<svg xmlns="http://www.w3.org/2000/svg" viewBox="0 0 394.58 257.1"><defs><style>.cls-1,.cls-4{fill:#00a89c;}.cls-1{opacity:0.44;}.cls-2,.cls-6{fill:#272361;}.cls-2{opacity:0.43;}.cls-3{fill:#fff;}.cls-5{fill:#aae5db;}</style></defs><title>Asset 2promo</title><g id="Layer_2" data-name="Layer 2"><g id="Layer_1-2" data-name="Layer 1"><rect id="_Path_" data-name="&lt;Path&gt;" class="cls-1" width="394.58" height="253.36"/><path id="_Path_2" data-name="&lt;Path&gt;" class="cls-2" d="M394.58,151.5V253.36H0V167.53l33.58-12.46L109,123.23l72,22.14,76.15,9.7s63-19.38,72-22.16C335,131.12,370.32,142.94,394.58,151.5Z"/><path id="_Path_3" data-name="&lt;Path&gt;" class="cls-3" d="M298.62,45.41V257.1h-203V45.41a9,9,0,0,1,8.89-9H289.73A9,9,0,0,1,298.62,45.41Z"/><ellipse id="_Path_4" data-name="&lt;Path&gt;" class="cls-4" cx="197.98" cy="160.75" rx="19.69" ry="23.19"/><ellipse id="_Path_5" data-name="&lt;Path&gt;" class="cls-3" cx="197.98" cy="169.97" rx="19.69" ry="23.19"/><rect id="_Rectangle_" data-name="&lt;Rectangle&gt;" class="cls-5" x="157.58" y="181.83" width="78.08" height="4.46" rx="1.75" ry="1.75"/><rect id="_Rectangle_2" data-name="&lt;Rectangle&gt;" class="cls-5" x="157.58" y="197.02" width="78.08" height="4.46" rx="1.75" ry="1.75"/><rect id="_Rectangle_3" data-name="&lt;Rectangle&gt;" class="cls-5" x="157.58" y="212.22" width="78.08" height="4.46" rx="1.75" ry="1.75"/><path id="_Path_6" data-name="&lt;Path&gt;" class="cls-4" d="M149.22,112.38a7.65,7.65,0,1,1-7.65-7.64A7.64,7.64,0,0,1,149.22,112.38Z"/><path id="_Path_7" data-name="&lt;Path&gt;" class="cls-4" d="M259.31,112.38a7.65,7.65,0,1,1-7.64-7.64A7.64,7.64,0,0,1,259.31,112.38Z"/><path id="_Path_8" data-name="&lt;Path&gt;" class="cls-6" d="M298.62,45.3V65.65h-203V45.3a8.89,8.89,0,0,1,8.89-8.89H289.73A8.89,8.89,0,0,1,298.62,45.3Z"/><path id="_Path_9" data-name="&lt;Path&gt;" class="cls-3" d="M283.71,54.76h-86A3.73,3.73,0,0,1,194,51h0a3.73,3.73,0,0,1,3.73-3.73h86A3.72,3.72,0,0,1,287.43,51h0A3.72,3.72,0,0,1,283.71,54.76Z"/><path id="_Path_10" data-name="&lt;Path&gt;" class="cls-3" d="M120.67,50.74a6.31,6.31,0,1,1-6.31-6.3A6.3,6.3,0,0,1,120.67,50.74Z"/><path id="_Path_11" data-name="&lt;Path&gt;" class="cls-3" d="M142.27,50.74a6.31,6.31,0,1,1-6.31-6.3A6.31,6.31,0,0,1,142.27,50.74Z"/><circle id="_Path_12" data-name="&lt;Path&gt;" class="cls-3" cx="157.56" cy="50.74" r="6.31"/><path id="_Compound_Path_" data-name="&lt;Compound Path&gt;" class="cls-3" d="M45.47,46.79c2.68-.76,4.7,0,5.33,2.26.85,3-2.11,4.29-1.45,6.63l-2.65.75c-.87-3.08,1.53-4,1-5.87-.24-.84-.87-1.07-1.75-.82s-1.33,1-1,2.21l-2.74.77C41.38,49.78,42.62,47.59,45.47,46.79Zm5.14,12a1.78,1.78,0,1,1-3.42,1,1.78,1.78,0,1,1,3.42-1Z"/><path id="_Compound_Path_2" data-name="&lt;Compound Path&gt;" class="cls-3" d="M343.25,63.12c2.66.82,3.91,2.58,3.22,4.8-.92,3-4.1,2.44-4.82,4.76L339,71.86c.95-3,3.44-2.47,4-4.37.25-.84-.14-1.37-1-1.64s-1.66.11-2,1.29l-2.72-.84C338.19,63.39,340.42,62.24,343.25,63.12ZM341,76a1.72,1.72,0,0,1-2.24,1.19A1.8,1.8,0,1,1,341,76Z"/><path id="_Compound_Path_3" data-name="&lt;Compound Path&gt;" class="cls-3" d="M356.9,180.41c2.53,1.16,3.55,3.07,2.58,5.18-1.3,2.85-4.38,1.9-5.39,4.11l-2.51-1.15c1.33-2.91,3.73-2,4.56-3.83.36-.79,0-1.37-.8-1.75s-1.66-.1-2.2,1l-2.59-1.18C351.84,180,354.2,179.18,356.9,180.41ZM353,192.9a1.73,1.73,0,0,1-2.38.9,1.71,1.71,0,0,1-.85-2.37,1.68,1.68,0,0,1,2.34-.89A1.7,1.7,0,0,1,353,192.9Z"/><path id="_Compound_Path_4" data-name="&lt;Compound Path&gt;" class="cls-3" d="M266.06,10.85c2.66.83,3.92,2.59,3.23,4.81-.93,3-4.11,2.44-4.83,4.76l-2.63-.82c.95-3.05,3.44-2.47,4-4.38.26-.83-.14-1.37-1-1.64s-1.67.12-2.06,1.3L260.08,14C261,11.13,263.23,10,266.06,10.85ZM263.8,23.73a1.72,1.72,0,0,1-2.24,1.2,1.71,1.71,0,0,1-1.14-2.25,1.77,1.77,0,1,1,3.38,1.05Z"/><path id="_Compound_Path_5" data-name="&lt;Compound Path&gt;" class="cls-3" d="M58.62,136.72c2.52-1.16,4.63-.69,5.61,1.42,1.3,2.85-1.43,4.56-.41,6.76l-2.51,1.16c-1.34-2.91.91-4.14.07-5.95-.36-.8-1-.93-1.85-.55s-1.16,1.2-.66,2.34l-2.58,1.19C55,140.31,55.92,138,58.62,136.72Zm6.92,11.09a1.77,1.77,0,1,1-3.22,1.48,1.77,1.77,0,1,1,3.22-1.48Z"/></g></g></svg>