<svg id="Layer_1" data-name="Layer 1" xmlns="http://www.w3.org/2000/svg" viewBox="0 0 200 200"><defs><style>.cls-1{fill:#fff;}</style></defs><title>NSIA web UI Design-V3</title><path class="cls-1" d="M9.82,72.53a3.82,3.82,0,0,0-4.67,2.73L5,75.83a3.83,3.83,0,0,0,2.77,4.65,3.93,3.93,0,0,0,1,.12,3.84,3.84,0,0,0,3.71-2.89l.13-.51A3.82,3.82,0,0,0,9.82,72.53Z"/><path class="cls-1" d="M131.54,7.19A98,98,0,0,0,11.31,58.26a3.82,3.82,0,1,0,6.92,3.26A90.35,90.35,0,0,1,48.8,25.65l.39.17,23.39,8.9a1.35,1.35,0,0,1,.88,1.33,4.12,4.12,0,0,0,.21,1.39,13.29,13.29,0,0,0,18.6,7.46l0,0,5.08-2.69a16.92,16.92,0,0,1,24.7,16.91l0,.4a5.71,5.71,0,0,1-4.33,5l-7.89,1.87a13.31,13.31,0,0,0-9.91,10.28L96.62,92.88a13.28,13.28,0,0,0,12.53,15.9l4.22.15a5.55,5.55,0,0,1,2.09.48,3.79,3.79,0,0,0,1.56.34,3.83,3.83,0,0,0,1.57-7.33,13.2,13.2,0,0,0-4.94-1.14l-4.22-.15a5.62,5.62,0,0,1-5.3-6.73l3.28-16.27a5.62,5.62,0,0,1,4.2-4.34c2.46-.59,5.33-1.28,7.86-1.87a13.43,13.43,0,0,0,10.17-11.53l.05-.41A24.57,24.57,0,0,0,93.81,35.42l-5,2.67a5.62,5.62,0,0,1-7.66-2.67,9,9,0,0,0-5.79-7.85L57,20.61a90.2,90.2,0,0,1,72-6.17,3.83,3.83,0,0,0,2.47-7.25Z"/><path class="cls-1" d="M194.19,72.87A3.82,3.82,0,0,0,186.84,75a91.1,91.1,0,0,1-.64,52.16,3.83,3.83,0,1,0,7.3,2.3,98.53,98.53,0,0,0,.69-56.57Z"/><path class="cls-1" d="M183.49,143.85a3.84,3.84,0,0,0-5.29,1.42l0,0a3.85,3.85,0,0,0,1.33,5.32,3.9,3.9,0,0,0,1.94.51,3.95,3.95,0,0,0,2-7.28Z"/><path class="cls-1" d="M172.75,159.93a3.83,3.83,0,0,0-5.41.3,90.45,90.45,0,0,1-17.59,15.16,14.28,14.28,0,0,1-8.59-14.12l2.42-28.62A3.83,3.83,0,0,0,136,132l-2.42,28.66a.25.25,0,0,1,0,.08,22.05,22.05,0,0,0,8.75,19.07,90.17,90.17,0,0,1-54.69,9.66L91.15,183h3.12A14.73,14.73,0,0,0,109,168.29V163a7,7,0,0,1,1.36-4.16,3.83,3.83,0,1,0-6.18-4.52,14.65,14.65,0,0,0-2.83,8.68v5.28a7.07,7.07,0,0,1-7.06,7.06H88.89a3.8,3.8,0,0,0-3.35,2L79.64,188A89.72,89.72,0,0,1,56,178.92a3.83,3.83,0,0,0-3.74,6.69A98.06,98.06,0,0,0,173,165.34,3.84,3.84,0,0,0,172.75,159.93Z"/><path class="cls-1" d="M165.91,18.42A16.13,16.13,0,1,0,182,34.54,16.15,16.15,0,0,0,165.91,18.42Zm0,24.59a8.47,8.47,0,1,1,8.47-8.47A8.48,8.48,0,0,1,165.91,43Z"/><path class="cls-1" d="M95.48,132.13,78.72,108a3.78,3.78,0,0,0-.59-.67A38.67,38.67,0,1,0,10.6,141.19l0,0,27,34.64a3.83,3.83,0,0,0,6,0l26.89-34.45c.05-.07.11-.14.15-.21A38.8,38.8,0,0,0,79,121.82L89.19,136.5a3.84,3.84,0,0,0,3.15,1.64,3.82,3.82,0,0,0,3.14-6Zm-30.9,4.48c-.1.12-.18.24-.27.37l-23.64,30.3L16.74,136.61l-.12-.16a31,31,0,1,1,48,.16Z"/><path class="cls-1" d="M40.66,95.23a22.21,22.21,0,1,0,22.21,22.2A22.23,22.23,0,0,0,40.66,95.23Zm0,36.75a14.55,14.55,0,1,1,14.55-14.55A14.56,14.56,0,0,1,40.66,132Z"/><path class="cls-1" d="M165.91,2a32.09,32.09,0,0,0-25,52.26l0,0,21.92,28.1a3.83,3.83,0,0,0,3,1.47h0a3.83,3.83,0,0,0,3-1.47l21.81-27.95.14-.19A32.09,32.09,0,0,0,165.91,2Zm18.85,47.64a3.69,3.69,0,0,0-.25.34l-18.6,23.83L147.07,49.67l-.11-.15a24.43,24.43,0,1,1,37.8.12Z"/><path class="cls-1" d="M79.81,161.75a3.83,3.83,0,0,0-5.1-1.83l-1.73.82a3.83,3.83,0,1,0,3.27,6.92l1.73-.82A3.82,3.82,0,0,0,79.81,161.75Z"/><path class="cls-1" d="M165.91,99.27a3.83,3.83,0,0,0-3.83,3.83,14.68,14.68,0,0,1-.08,1.48,3.82,3.82,0,0,0,3.37,4.23l.43,0a3.83,3.83,0,0,0,3.8-3.4,20.27,20.27,0,0,0,.14-2.34A3.84,3.84,0,0,0,165.91,99.27Z"/><path class="cls-1" d="M141.06,116.08h-1.91a3.83,3.83,0,1,0,0,7.65h1.91a3.83,3.83,0,1,0,0-7.65Z"/><path class="cls-1" d="M161.1,115.47a3.83,3.83,0,0,0-5.26-1.28,13.59,13.59,0,0,1-1.3.7,3.83,3.83,0,0,0,3.21,7,19.55,19.55,0,0,0,2.07-1.11A3.82,3.82,0,0,0,161.1,115.47Z"/><path class="cls-1" d="M103.39,138.45a3.83,3.83,0,0,0-5.28,1.18l-1,1.61a3.83,3.83,0,1,0,6.46,4.11l1-1.61A3.83,3.83,0,0,0,103.39,138.45Z"/><path class="cls-1" d="M112.64,123.92a3.83,3.83,0,0,0-5.29,1.17l-1,1.62A3.82,3.82,0,0,0,107.5,132a3.78,3.78,0,0,0,2,.6,3.84,3.84,0,0,0,3.24-1.77l1-1.62A3.82,3.82,0,0,0,112.64,123.92Z"/><path class="cls-1" d="M95.39,154.39a3.84,3.84,0,0,0-5.1-1.83l-1.73.82a3.83,3.83,0,1,0,3.27,6.92l1.73-.82A3.83,3.83,0,0,0,95.39,154.39Z"/><path class="cls-1" d="M123.83,116.08h-1.91a3.83,3.83,0,1,0,0,7.65h1.91a3.83,3.83,0,1,0,0-7.65Z"/></svg>