<svg id="Layer_1" data-name="Layer 1" xmlns="http://www.w3.org/2000/svg" viewBox="0 0 200 200"><defs><style>.cls-1{fill:#fff;}</style></defs><title>NSIA web UI Design-V3</title><path class="cls-1" d="M182,30H18A13.43,13.43,0,0,0,4.55,43.42V156.58A13.43,13.43,0,0,0,18,170H182a13.43,13.43,0,0,0,13.41-13.42V43.42A13.43,13.43,0,0,0,182,30Zm7.05,126.58a7.06,7.06,0,0,1-7.05,7.06H18a7.06,7.06,0,0,1-7-7.06V43.42A7.06,7.06,0,0,1,18,36.36H182a7.06,7.06,0,0,1,7.05,7.06Z"/><path class="cls-1" d="M76.58,119.87,65,114v-1.23c5.18-2.83,8.82-7.49,10.86-13.89a9.47,9.47,0,0,0,5-8.39V87.27a9.48,9.48,0,0,0-3.66-7.47c-2-12-10.38-18.12-25-18.12-.69,0-1.36,0-2,.07A16.08,16.08,0,0,1,40,59.4a13,13,0,0,1-2.91-2.53,3.82,3.82,0,0,0-6.8,2.78c.14,1.19.34,2.58.64,4.1.61,3.1.61,3.1-.25,5-.32.71-.72,1.56-1.2,2.72a35.64,35.64,0,0,0-2.23,8.42,9.53,9.53,0,0,0-3.6,7.43v3.18a9.49,9.49,0,0,0,5.05,8.4c2,6.4,5.68,11.06,10.86,13.88v1.2l-12,5.91a13.63,13.63,0,0,0-7.1,12V136c0,2.56,0,8.54,31.82,8.54s31.82-6,31.82-8.54v-4A13.56,13.56,0,0,0,76.58,119.87Zm1.15,15.42c-2,1.21-10.06,2.89-25.46,2.89s-23.47-1.68-25.45-2.89V131.8a7.21,7.21,0,0,1,3.66-6.31l12.28-6a5.66,5.66,0,0,0,3.15-5v-5.74L44,107.82c-4.82-2.08-8-6-9.59-12.13L33.94,94l-1.68-.52a3.21,3.21,0,0,1-2.26-3V87.27a3.17,3.17,0,0,1,1.72-2.78l1.49-.8L33.39,82a29.63,29.63,0,0,1,2-8.18c.42-1,.78-1.81,1.07-2.44,1.08-2.32,1.47-3.51,1.2-6A22.72,22.72,0,0,0,50.76,68.1c.49,0,1-.06,1.52-.06C64.19,68,70,72.35,71.14,82l.2,1.66,1.48.79a3.18,3.18,0,0,1,1.73,2.79v3.18a3.22,3.22,0,0,1-2.27,3L70.61,94l-.46,1.7c-1.63,6.08-4.76,10-9.59,12.13l-1.92.83v5.76a5.61,5.61,0,0,0,3.06,5l12,6.13a7.23,7.23,0,0,1,4,6.49Z"/><path class="cls-1" d="M100,77.73h31.82a3.19,3.19,0,0,0,0-6.37H100a3.19,3.19,0,0,0,0,6.37Z"/><path class="cls-1" d="M144.55,77.73h3.18a3.19,3.19,0,0,0,0-6.37h-3.18a3.19,3.19,0,1,0,0,6.37Z"/><path class="cls-1" d="M103.18,125.45H100a3.19,3.19,0,0,0,0,6.37h3.18a3.19,3.19,0,0,0,0-6.37Z"/><path class="cls-1" d="M122.27,125.45h-6.36a3.19,3.19,0,0,0,0,6.37h6.36a3.19,3.19,0,0,0,0-6.37Z"/><path class="cls-1" d="M138.18,125.45H135a3.19,3.19,0,0,0,0,6.37h3.18a3.19,3.19,0,0,0,0-6.37Z"/><path class="cls-1" d="M157.27,125.45h-6.36a3.19,3.19,0,0,0,0,6.37h6.36a3.19,3.19,0,0,0,0-6.37Z"/><path class="cls-1" d="M167.74,126.38a3.34,3.34,0,0,0-.92,2.26,3.38,3.38,0,0,0,.92,2.26,3.24,3.24,0,0,0,4.52,0,3.38,3.38,0,0,0,.92-2.26,3.18,3.18,0,0,0-5.44-2.26Z"/><path class="cls-1" d="M170,90.45H100a3.19,3.19,0,0,0,0,6.37h70a3.19,3.19,0,0,0,0-6.37Z"/><path class="cls-1" d="M170,109.55H100a3.18,3.18,0,0,0,0,6.36h70a3.18,3.18,0,0,0,0-6.36Z"/></svg>