<svg id="Layer_1" data-name="Layer 1" xmlns="http://www.w3.org/2000/svg" viewBox="0 0 1929.21 687.04"><defs><style>.cls-1{fill:#272361;}.cls-2{fill:#07a89c;}.cls-3{fill:#00a89c;}.cls-4{fill:#fff;}</style></defs><title>NSIA logo</title><path class="cls-1" d="M1559,816.46q-29.46,5.47-59.21,9.15a105.19,105.19,0,0,0,3.4,19.92q4.29,14.81,14.54,21t29.63,6.2h21.51v-58.2C1565.6,815.19,1562.27,815.84,1559,816.46Z" transform="translate(-47.39 -194.96)"/><path class="cls-1" d="M1555.9,799.58q6.45-1.14,12.91-2.35v-280h-70V808Q1527.52,804.56,1555.9,799.58Z" transform="translate(-47.39 -194.96)"/><path class="cls-2" d="M1693.64,764.31l36.36-80.7,32.75-73.73,43.84,104c4.44-2.51,8.85-5,13.19-7.7a475.51,475.51,0,0,0,46.15-31.58l-66-157.41h-24.24L1660.53,775q16.67-5,33.17-10.76" transform="translate(-47.39 -194.96)"/><path class="cls-1" d="M1920.58,804.87l-46.79-111.54h0l-2.93-7-.84-2q-10.3,8.43-21.06,16.22-14.07,9.95-28.85,18.89a623.12,623.12,0,0,1-83.74,42.17,809.06,809.06,0,0,1-82.88,29l-7.64,17.11h0l-29.06,65h28l20.54-45.59,13.34-29.63q31.84-10.75,62.68-24.18A629.15,629.15,0,0,0,1815.44,735l6.45,15.49h0l10.18,24.24h.15l6.09,14.85,9.4,22.27q16.55,35.77,41.67,48.86a131.22,131.22,0,0,0,61.41,14.26,99.36,99.36,0,0,0,25.82-2.69V858.72Q1941.06,855,1920.58,804.87Z" transform="translate(-47.39 -194.96)"/><rect class="cls-2" x="735.6" y="128.48" width="1176.25" height="4.22"/><path class="cls-1" d="M1705.8,412.69h12.84V378.28h9.81v34.41h.53v7.8H1705.8Zm11.36,25.06a5.19,5.19,0,0,1-3.82,1.57,5,5,0,0,1-3.67-1.57,5.43,5.43,0,0,1-1.55-3.91,5.26,5.26,0,0,1,1.55-3.76,4.83,4.83,0,0,1,3.67-1.61,5.08,5.08,0,0,1,3.82,1.57,5.31,5.31,0,0,1,1.48,3.8,5.5,5.5,0,0,1-1.48,3.91m13.92,0a5,5,0,0,1-3.71,1.57,5.17,5.17,0,0,1-3.78-1.57,5.52,5.52,0,0,1-1.52-3.91,5.22,5.22,0,0,1,1.52-3.76,5,5,0,0,1,3.78-1.61,4.9,4.9,0,0,1,3.71,1.57,5.16,5.16,0,0,1,1.55,3.8,5.43,5.43,0,0,1-1.55,3.91" transform="translate(-47.39 -194.96)"/><polygon class="cls-1" points="1697.54 162.23 1707.4 162.23 1707.4 217.72 1716.9 217.72 1716.9 225.53 1697.54 225.53 1697.54 162.23"/><path class="cls-1" d="M1762.92,412.69h12.49V378.28h9.85v3a92.86,92.86,0,0,1-1,14.81h0a28.36,28.36,0,0,1,9.72-14,22.73,22.73,0,0,1,14.08-4.82,17.32,17.32,0,0,1,13.66,5.37,22,22,0,0,1,4.75,15,22.67,22.67,0,0,1-5,15.07h11.29v7.8h-69.88Zm37.77,0q15.72,0,15.73-14.39c0-8.84-3.4-13.26-10.16-13.26q-8,0-14.17,8.69a40.11,40.11,0,0,0-6.91,18.89Z" transform="translate(-47.39 -194.96)"/><path class="cls-1" d="M1830.94,412.69h36a60.87,60.87,0,0,0,.58-8.2q0-9.67-4.14-14.12c-2.94-3.14-7.8-4.73-14.54-4.73a59.62,59.62,0,0,0-10.16.75v-7.71a75.6,75.6,0,0,1,11-.84q14.58,0,21.23,6.63,6.33,6.3,6.32,19.49a99.56,99.56,0,0,1-1.45,16.53h-44.87Z" transform="translate(-47.39 -194.96)"/><rect class="cls-1" x="1841.74" y="162.23" width="9.86" height="63.27"/><path class="cls-1" d="M1922.24,412.69h27.82a30,30,0,0,0-5.44-18.06,30.92,30.92,0,0,0-16.55-10l2.5-8.29c10,2.88,17.28,7.25,21.9,13.26q7.29,9.42,7.27,25.86v5.13h-37.57Z" transform="translate(-47.39 -194.96)"/><path class="cls-1" d="M810.37,420.49q-23.8,0-23.8-20.82a21.28,21.28,0,0,1,20-22.45,22.77,22.77,0,0,1,2.74,0q19.75,0,19.76,20.29v23Zm9.15-21.44q0-14-10.85-14a11.36,11.36,0,0,0-9,3.82,14.29,14.29,0,0,0-3.25,9.82q0,14,15.07,14h8Z" transform="translate(-47.39 -194.96)"/><path class="cls-1" d="M833.44,442.3l1-7.93a25.51,25.51,0,0,0,8.13,1.28,10.1,10.1,0,0,0,8.06-3q2.9-3.35,2.9-11.05V378.28h9.85v42.56q0,22.55-21.32,22.54a32.29,32.29,0,0,1-8.64-1.14" transform="translate(-47.39 -194.96)"/><rect class="cls-1" x="829.58" y="162.23" width="9.86" height="63.27"/><path class="cls-1" d="M897.66,412.69h27.82a30,30,0,0,0-5.43-18.06,30.79,30.79,0,0,0-16.56-10l2.5-8.29c10,2.88,17.28,7.25,21.9,13.26q7.29,9.42,7.27,25.86v5.13H897.59Z" transform="translate(-47.39 -194.96)"/><rect class="cls-1" x="899.26" y="162.23" width="9.86" height="63.27"/><path class="cls-1" d="M1048.46,420.49V398.13q0-7.14-2.63-10.13c-1.74-2-4.66-3-8.84-3a40.39,40.39,0,0,0-6.85.62v34.85h-17.57q-17,0-24.88-6.9-7.23-6.37-7.23-19.4a39.24,39.24,0,0,1,2.59-14.54l10.59-1.81A34.69,34.69,0,0,0,990.32,393q0,10.31,4.95,14.78c3.32,3,9.7,4.91,18.36,4.91h7V378.85a82,82,0,0,1,17-1.7q11.05,0,16,5.24c3,3.16,4.42,8,4.42,14.48V412.6h17.68V357.2h9.9v55.49h9.44v7.8Zm-41,17.26a5.13,5.13,0,0,1-3.8,1.57,5.05,5.05,0,0,1-3.69-1.57,5.53,5.53,0,0,1-1.53-3.91,5.37,5.37,0,0,1,1.53-3.76,4.89,4.89,0,0,1,3.69-1.61,5.05,5.05,0,0,1,3.8,1.57,5.27,5.27,0,0,1,1.48,3.8,5.5,5.5,0,0,1-1.48,3.91m14,0a5.26,5.26,0,0,1-7.44.05l-.06-.05a5.42,5.42,0,0,1-1.54-3.91,5.12,5.12,0,0,1,1.54-3.76,5.22,5.22,0,0,1,7.38-.12l.12.12a5.24,5.24,0,0,1,1.52,3.8,5.5,5.5,0,0,1-1.52,3.91" transform="translate(-47.39 -194.96)"/><path class="cls-1" d="M1094.08,420.49v-7.8h6.18a21,21,0,0,1,5.13.51q-5.94-4-5.92-14.06a21.31,21.31,0,0,1,5.74-15.29,22.31,22.31,0,0,1,17-6.63q19.76,0,19.76,20.29v23Zm38.29-21.44q0-14-10.82-14a11.32,11.32,0,0,0-9,3.82,14.29,14.29,0,0,0-3.25,9.82q0,14,15.08,14h8Z" transform="translate(-47.39 -194.96)"/><path class="cls-1" d="M1165.3,441.82l.66-8.07a64.79,64.79,0,0,0,14.15,1.63q16.44,0,16.44-13.1v-1.79h-8.07q-23.79,0-23.8-20.91a22.11,22.11,0,0,1,5.62-15.6q6.23-6.63,17.43-6.63a50.91,50.91,0,0,1,18.41,3.14V412.8h9.61v7.8h-9.5v1.08a19.41,19.41,0,0,1-6.14,15q-7.08,6.63-20.84,6.63a76.7,76.7,0,0,1-13.86-1.29m31.25-54.89a22.61,22.61,0,0,0-9.77-1.9,11.33,11.33,0,0,0-9,3.78,14.28,14.28,0,0,0-3.25,9.77q0,14.12,15.07,14.12h6.94Z" transform="translate(-47.39 -194.96)"/><path class="cls-1" d="M1214.34,412.69h12.84V378.28H1237v42.21h-22.7Zm5.57-43.56a5.32,5.32,0,0,1-1.55-3.87,5.13,5.13,0,0,1,1.55-3.75,4.87,4.87,0,0,1,3.67-1.59,4.92,4.92,0,0,1,3.78,1.59,5.13,5.13,0,0,1,1.52,3.75,5.27,5.27,0,0,1-1.52,3.83,5.08,5.08,0,0,1-3.78,1.57,5,5,0,0,1-3.67-1.53m13.92,0a5.31,5.31,0,0,1-1.52-3.87,5.13,5.13,0,0,1,1.52-3.75,5.22,5.22,0,0,1,7.38-.12l.11.12a5.22,5.22,0,0,1,1.55,3.75,5.3,5.3,0,0,1-9,3.83" transform="translate(-47.39 -194.96)"/><polygon class="cls-1" points="1203.36 162.23 1213.22 162.23 1213.22 217.72 1222.72 217.72 1222.72 225.53 1203.36 225.53 1203.36 162.23"/><path class="cls-1" d="M1268.79,420.49v-7.8H1275a21,21,0,0,1,5.12.51q-5.89-4-5.9-14.06a21.31,21.31,0,0,1,5.73-15.29,22.32,22.32,0,0,1,17.06-6.63q19.76,0,19.75,20.29v23Zm38.3-21.44q0-14-10.83-14a11.36,11.36,0,0,0-9,3.82,14.35,14.35,0,0,0-3.23,9.82q0,14,15.07,14h8Z" transform="translate(-47.39 -194.96)"/><path class="cls-1" d="M1327.58,441.82l.66-8.07a64.7,64.7,0,0,0,14.14,1.63q16.44,0,16.44-13.1v-1.79h-8.06q-23.8,0-23.8-20.91a22.06,22.06,0,0,1,5.61-15.6q6.23-6.63,17.44-6.63a50.89,50.89,0,0,1,18.4,3.14V412.8h9.51v7.8h-9.51v1.08a19.37,19.37,0,0,1-6.14,15q-7.05,6.63-20.86,6.63a76.37,76.37,0,0,1-13.83-1.29m31.24-54.89a22.7,22.7,0,0,0-9.79-1.9,11.34,11.34,0,0,0-9,3.78,14.38,14.38,0,0,0-3.25,9.77q0,14.12,15.07,14.12h6.94Z" transform="translate(-47.39 -194.96)"/><polygon class="cls-1" points="1329.22 217.72 1341.13 217.72 1341.13 162.23 1351.03 162.23 1351.03 217.72 1360.44 217.72 1360.44 225.53 1329.22 225.53 1329.22 217.72"/><path class="cls-1" d="M1406.45,412.69h3.07a62.6,62.6,0,0,0,23-3.78q-13.12-12.29-20.38-14.54l.78-6.92q14-10.41,25.94-10.39c6,0,10.63,1.42,13.81,4.29a12.73,12.73,0,0,1,4.25,9.95q0,10.05-10,18.05a21.9,21.9,0,0,0,11.58,3.34h5.73v7.8h-7a30.78,30.78,0,0,1-18.32-6.19,68,68,0,0,1-30,6.19h-2.32Zm33.83-8.2q6.83-5.17,6.83-11.91a7.7,7.7,0,0,0-2.21-5.84,9.68,9.68,0,0,0-7.05-2.4q-6.63,0-15.73,6.34,4,1.59,18.23,13.81" transform="translate(-47.39 -194.96)"/><path class="cls-1" d="M1462.8,420.49v-7.8H1469a21,21,0,0,1,5.12.51q-5.89-4-5.9-14.06a21.27,21.27,0,0,1,5.73-15.29,22.34,22.34,0,0,1,17.06-6.63q19.76,0,19.75,20.29v23Zm38.3-21.44c0-9.34-3.63-14-10.83-14a11.3,11.3,0,0,0-9,3.82,14.29,14.29,0,0,0-3.25,9.82q0,14,15.07,14h8Z" transform="translate(-47.39 -194.96)"/><path class="cls-1" d="M1532.79,441.82l.66-8.07a64.7,64.7,0,0,0,14.14,1.63q16.46,0,16.45-13.1v-1.79h-8q-23.8,0-23.8-20.91a22.1,22.1,0,0,1,5.61-15.6q6.24-6.63,17.44-6.63a50.91,50.91,0,0,1,18.41,3.14v41.19a19.47,19.47,0,0,1-6.12,15q-7.08,6.63-20.87,6.63A76.68,76.68,0,0,1,1532.9,442m31.25-54.89a22.64,22.64,0,0,0-9.77-1.9,11.41,11.41,0,0,0-9,3.78,14.32,14.32,0,0,0-3.24,9.77q0,14.12,15.09,14.12h6.92Z" transform="translate(-47.39 -194.96)"/><rect class="cls-1" x="1539.96" y="162.23" width="9.86" height="63.27"/><path class="cls-1" d="M1653.32,420.49q-17,0-24.89-6.9-7.26-6.37-7.25-19.4a39.24,39.24,0,0,1,2.59-14.54l10.61-1.81a34.83,34.83,0,0,0-3.32,15.16q0,10.29,5,14.78,5.37,4.91,18.34,4.91h7V378.85a81.89,81.89,0,0,1,17-1.7q11,0,15.91,5.24,4.41,4.73,4.42,14.48V412.6h8.33v7.8h-18V398.13q0-7.14-2.58-10.13c-1.73-2-4.73-3-8.84-3a38.61,38.61,0,0,0-6.79.6v34.85Zm-.91,24a5.1,5.1,0,0,1,1.59,3.82,4.87,4.87,0,0,1-1.59,3.67,5.51,5.51,0,0,1-3.89,1.5,5.42,5.42,0,0,1-3.78-1.5,4.92,4.92,0,0,1-1.61-3.67,5.19,5.19,0,0,1,1.57-3.82,5.77,5.77,0,0,1,7.71,0m0-14a5.26,5.26,0,0,1,.1,7.44l-.1.1a5.45,5.45,0,0,1-3.89,1.52,5.2,5.2,0,0,1-3.78-1.52,5.27,5.27,0,0,1-.1-7.44l.1-.1a5.26,5.26,0,0,1,3.83-1.54,5.39,5.39,0,0,1,3.88,1.54" transform="translate(-47.39 -194.96)"/><path class="cls-1" d="M1246.77,696.07,1313,735.91q28.53,17.82,42,32.88a53,53,0,0,1,13.45,36.57,60.4,60.4,0,0,1-.82,10.14h1.25q31.26,0,62.52-1.66a100.73,100.73,0,0,0,4.93-32.27q0-29.07-16.44-49.81t-54.13-42.71l-66.24-39.31q-29.62-17.21-42.82-31T1243.5,584q0-24.22,17-38.26t46-14q42,0,66.7,24.24t33.93,79.18h15.06v-63q0-19.36-17.78-34.21t-45.78-22.61a216,216,0,0,0-58.09-7.81q-55.49,0-88.06,24.77t-32.6,67.34q0,30.12,15.37,52.77T1246.77,696.07Z" transform="translate(-47.39 -194.96)"/><path class="cls-1" d="M1182,799.55c8.6,1.55,17.4,3,26.14,4.31a187,187,0,0,1-13.58-49.49h-15.06v44.86Z" transform="translate(-47.39 -194.96)"/><path class="cls-1" d="M1368.91,833.7h-8.41a43.63,43.63,0,0,1-10.33,10.54q-18.29,13.49-49.48,13.47-46.32,0-72.18-24.23a78.77,78.77,0,0,1-9.17-10.32q-20-2.86-39.85-6.46v.67q0,19.36,17.78,34.19t45.78,22.63a215.55,215.55,0,0,0,58.09,7.81q64.54,0,99.92-26.66a89.12,89.12,0,0,0,21.51-23Q1395.9,833.62,1368.91,833.7Z" transform="translate(-47.39 -194.96)"/><path class="cls-1" d="M970.17,734.21q15.6,7.42,31.57,14a832.54,832.54,0,0,0,112.52,36.94V517.23h-26.91V765L902.06,549.55A76.91,76.91,0,0,0,870,525q-19.11-7.75-49.27-7.81H783v16.16h2.68q26.4,0,37.44,12.91t11,35.56V872.73h26.94V606.11Z" transform="translate(-47.39 -194.96)"/><path class="cls-1" d="M1086.08,794.09c-15.28-4.54-30.45-9.47-45.42-14.93s-29.78-11.45-44.39-17.88l-4.77-2.15,98.1,115.23h24.66V802Q1100.05,798.26,1086.08,794.09Z" transform="translate(-47.39 -194.96)"/><path class="cls-3" d="M1696.65,271.24v-8.61h6.91a23,23,0,0,1,5.66.58q-6.46-4.41-6.46-15.53a23.48,23.48,0,0,1,6.46-16.87,24.65,24.65,0,0,1,18.8-7.29q21.8,0,21.8,22.37v25.35Zm42.26-23.67q0-15.45-11.94-15.47a12.52,12.52,0,0,0-9.92,4.22,15.8,15.8,0,0,0-3.57,10.76q0,15.45,16.63,15.47h8.8Z" transform="translate(-47.39 -194.96)"/><path class="cls-3" d="M1798.5,271.24q-26.26,0-26.24-23a23.48,23.48,0,0,1,22.1-24.77,25.53,25.53,0,0,1,3,0q21.78,0,21.79,22.37v25.35Zm10.14-23.65q0-15.45-12-15.47a12.58,12.58,0,0,0-10,4.2,16,16,0,0,0-3.53,10.76q0,15.45,16.63,15.47h8.85Z" transform="translate(-47.39 -194.96)"/><path class="cls-3" d="M1823.83,295.29l1.12-8.73a28.3,28.3,0,0,0,9,1.4,11.15,11.15,0,0,0,8.89-3.3q3.2-3.68,3.18-12.22V224.68h10.89v47q0,24.85-23.54,24.85a34.86,34.86,0,0,1-9.53-1.27" transform="translate(-47.39 -194.96)"/><rect class="cls-3" x="1824.58" y="6.46" width="10.89" height="69.79"/><path class="cls-3" d="M1894.81,262.63h30.7c-.22-8.35-2.15-15.06-6-19.92s-10-8.61-18.26-11.08l2.75-9.12q16.53,4.76,24.16,14.54,8.05,10.39,8,28.53v5.66h-41.37Z" transform="translate(-47.39 -194.96)"/><rect class="cls-3" x="1901.46" y="6.46" width="10.89" height="69.79"/><path class="cls-3" d="M821.12,271.24q-18.78,0-27.45-7.6-8-7.08-8-21.51a43,43,0,0,1,2.86-16l11.71-2a38.42,38.42,0,0,0-3.68,16.74q0,11.35,5.51,16.28,5.94,5.43,20.24,5.43h15.34V224.68h10.76v46.56ZM808,214.57a6,6,0,0,1,0-8.41,5.7,5.7,0,0,1,8.22,0,6,6,0,0,1,0,8.36,5.52,5.52,0,0,1-4.15,1.75,5.42,5.42,0,0,1-4.07-1.7m15.32,0a6.19,6.19,0,0,1,0-8.48,5.85,5.85,0,0,1,8.33,0,6.07,6.07,0,0,1,0,8.37,5.89,5.89,0,0,1-8.33,0" transform="translate(-47.39 -194.96)"/><polygon class="cls-3" points="816.22 6.46 827.1 6.46 827.1 67.67 837.58 67.67 837.58 76.27 816.22 76.27 816.22 6.46"/><path class="cls-3" d="M883.49,271.24v-8.61h6.8a22.76,22.76,0,0,1,5.64.58q-6.46-4.41-6.46-15.53a23.56,23.56,0,0,1,6.33-16.87,24.72,24.72,0,0,1,18.8-7.29q21.82,0,21.82,22.37v25.35Zm42.23-23.67q0-15.45-11.94-15.47a12.49,12.49,0,0,0-9.89,4.2,15.8,15.8,0,0,0-3.57,10.76q0,15.44,16.61,15.46h8.79Z" transform="translate(-47.39 -194.96)"/><path class="cls-3" d="M948.38,294.78l.73-8.91a70.8,70.8,0,0,0,15.62,1.78q18.12,0,18.12-14.43v-2H974q-26.26,0-26.25-23.07A24.37,24.37,0,0,1,953.89,231q6.86-7.46,19.23-7.44A55.81,55.81,0,0,1,993.43,227v35.63h10.5v8.61h-10.5v1.2A21.5,21.5,0,0,1,986.68,289q-7.81,7.2-23,7.2a86.93,86.93,0,0,1-15.28-1.39m34.42-60.61A24.71,24.71,0,0,0,972.05,232a12.53,12.53,0,0,0-9.92,4.3,15.9,15.9,0,0,0-3.57,10.76q0,15.55,16.63,15.57h7.61Z" transform="translate(-47.39 -194.96)"/><polygon class="cls-3" points="955.05 67.67 968.2 67.67 968.2 6.46 979.13 6.46 979.13 67.67 989.52 67.67 989.52 76.27 955.05 76.27 955.05 67.67"/><path class="cls-3" d="M1035.37,262.63h3.37a69,69,0,0,0,25.33-4.17q-14.46-13.56-22.49-16l.89-7.64q15.46-11.36,28.55-11.36,9.93,0,15.21,4.73a14,14,0,0,1,4.69,11q0,11.07-11.06,19.92a24.16,24.16,0,0,0,12.76,3.68H1099v8.6h-7.73a33.79,33.79,0,0,1-20.24-6.9,75.18,75.18,0,0,1-33.18,6.82h-2.56Zm37.32-9.1q7.53-5.68,7.53-13.14a8.42,8.42,0,0,0-2.51-6.46,10.79,10.79,0,0,0-7.77-2.67q-7.29,0-17.36,7,4.45,1.74,20.11,15.21" transform="translate(-47.39 -194.96)"/><path class="cls-3" d="M1097.54,271.24v-8.61h6.8a22.87,22.87,0,0,1,5.66.58q-6.45-4.41-6.45-15.53a23.54,23.54,0,0,1,6.19-16.87,24.76,24.76,0,0,1,18.81-7.29q21.81,0,21.81,22.37v25.35Zm42.24-23.67q0-15.45-11.94-15.47a12.51,12.51,0,0,0-9.9,4.2,15.8,15.8,0,0,0-3.57,10.76q0,15.44,16.61,15.46h8.88Z" transform="translate(-47.39 -194.96)"/><path class="cls-3" d="M1173.81,294.78l.74-8.91a70.53,70.53,0,0,0,15.59,1.78q18.15,0,18.14-14.43v-2h-8.91q-26.23,0-26.24-23.07a24.38,24.38,0,0,1,6.19-17.21q6.89-7.46,19.24-7.44a55.88,55.88,0,0,1,20.31,3.48v45.44a21.4,21.4,0,0,1-6.78,16.53q-7.78,7.2-23,7.2a87,87,0,0,1-15.28-1.39m34.47-60.61a24.73,24.73,0,0,0-10.76-2.15,12.58,12.58,0,0,0-9.94,4.3,15.8,15.8,0,0,0-3.57,10.76q0,15.55,16.63,15.57h7.64Z" transform="translate(-47.39 -194.96)"/><path class="cls-3" d="M1268.27,271.24q-26.28,0-26.25-23.07a24.51,24.51,0,0,1,6.17-17.21q6.88-7.46,19.26-7.44a55.74,55.74,0,0,1,20.29,3.48v35.63h10.39v8.61Zm8.88-37.07a24.73,24.73,0,0,0-10.76-2.15,12.48,12.48,0,0,0-9.91,4.3,15.82,15.82,0,0,0-3.6,10.76q0,15.55,16.63,15.57h7.64Z" transform="translate(-47.39 -194.96)"/><path class="cls-3" d="M1296.64,262.63h14.16V224.68h10.89v37.95h14.54v8.61h-39.59Zm12.53,27.65a5.67,5.67,0,0,1-4.31,1.74,5.51,5.51,0,0,1-4.06-1.74,6,6,0,0,1-1.68-4.3,5.83,5.83,0,0,1,1.68-4.16,5.41,5.41,0,0,1,4.06-1.8,5.67,5.67,0,0,1,4.31,1.74,6,6,0,0,1,1.63,4.3,6.14,6.14,0,0,1-1.63,4.31m15.36,0a5.77,5.77,0,0,1-8.26,0,6,6,0,0,1-1.7-4.31,5.83,5.83,0,0,1,9.76-4.35c.07.06.13.13.2.2a5.9,5.9,0,0,1,1.7,4.3,6.13,6.13,0,0,1-1.7,4.31" transform="translate(-47.39 -194.96)"/><polygon class="cls-3" points="1287.33 67.67 1301.49 67.67 1301.49 29.71 1312.38 29.71 1312.38 76.27 1287.33 76.27 1287.33 67.67"/><polygon class="cls-3" points="1327.5 6.46 1338.39 6.46 1338.39 67.67 1348.86 67.67 1348.86 76.27 1327.5 76.27 1327.5 6.46"/><path class="cls-3" d="M1394.77,262.63h13.77V224.68h10.89V228a107.48,107.48,0,0,1-1.12,16.33h.11a31.51,31.51,0,0,1,10.76-15.47,25.08,25.08,0,0,1,15.53-5.31,19,19,0,0,1,15.06,5.94Q1465,235.37,1465,246a24.89,24.89,0,0,1-5.47,16.63H1472v8.61h-77.24Zm41.68,0q17.33,0,17.34-15.85,0-14.55-11.21-14.57c-5.89,0-11.1,3.21-15.62,9.57a44.59,44.59,0,0,0-7.64,20.85Z" transform="translate(-47.39 -194.96)"/><path class="cls-3" d="M1469.8,262.63h39.67a63.78,63.78,0,0,0,.65-9.06q0-10.75-4.56-15.55-4.87-5.24-16-5.23a67,67,0,0,0-11.23.84V225a84.08,84.08,0,0,1,12.17-.92q16.13,0,23.45,7.31c4.65,4.63,7,11.82,7,21.52a112.6,112.6,0,0,1-1.6,18.24h-49.48Z" transform="translate(-47.39 -194.96)"/><rect class="cls-3" x="1486.6" y="6.46" width="10.89" height="69.79"/><path class="cls-3" d="M1605.77,271.24q-18.8,0-27.45-7.6-8-7.08-8-21.51a42.82,42.82,0,0,1,2.86-16l11.68-2a38.26,38.26,0,0,0-3.66,16.74q0,11.35,5.51,16.28,5.94,5.43,20.25,5.43h7.74V225.41a89.4,89.4,0,0,1,18.81-1.89c8.09,0,13.92,1.93,17.53,5.81,3.29,3.46,4.93,8.8,4.93,15.94v17.36h9.19v8.61h-19.71V246.58q0-7.87-2.86-11.16t-9.81-3.3a41.73,41.73,0,0,0-7.49.67v38.45Z" transform="translate(-47.39 -194.96)"/><polygon class="cls-3" points="1616.34 67.67 1629.48 67.67 1629.48 6.46 1640.41 6.46 1640.41 67.67 1650.81 67.67 1650.81 76.27 1616.34 76.27 1616.34 67.67"/><path class="cls-3" d="M1329.05,209.25a33.48,33.48,0,0,1,6.32.5,4.32,4.32,0,0,1-2.37-4.3,9.19,9.19,0,0,1,3.1-7.1,14.91,14.91,0,0,1,10.31-3.36c1,0,2.86.13,5.51.39l-1,6.45a45.27,45.27,0,0,0-4.93-.39q-5.16,0-5.16,3.68c0,2.78,2.45,4.16,7.33,4.16h5.43v6.45h-24.57Z" transform="translate(-47.39 -194.96)"/><path class="cls-3" d="M1784.07,209.25a33.48,33.48,0,0,1,6.32.5,4.3,4.3,0,0,1-2.36-4.3,9.15,9.15,0,0,1,3.09-7.1,14.92,14.92,0,0,1,10.31-3.36c1,0,2.86.13,5.51.39l-1,6.45a45.07,45.07,0,0,0-4.93-.39q-5.16,0-5.16,3.68c0,2.78,2.45,4.16,7.34,4.16h5.42v6.45h-24.57Z" transform="translate(-47.39 -194.96)"/><rect class="cls-3" y="3.04" width="674.28" height="674.28"/><polygon class="cls-4" points="497.11 459.5 415.28 437.68 330.71 560.42 202.52 516.79 71.13 572.11 71.13 605.59 600.76 605.59 600.76 307.64 497.11 459.5"/><path class="cls-4" d="M370.07,445.37a5.93,5.93,0,1,0,5.93,5.95,5.93,5.93,0,0,0-5.93-5.95h0" transform="translate(-47.39 -194.96)"/><path class="cls-4" d="M391.28,445.8a5.54,5.54,0,1,0,5.52,5.57,5.54,5.54,0,0,0-5.52-5.57h0" transform="translate(-47.39 -194.96)"/><path class="cls-4" d="M378.28,467.94a5,5,0,1,0,5-5,5,5,0,0,0-5,5h0" transform="translate(-47.39 -194.96)"/><path class="cls-4" d="M359.46,472a5.89,5.89,0,1,0,5.91-5.87h-.05a5.87,5.87,0,0,0-5.86,5.87h0" transform="translate(-47.39 -194.96)"/><path class="cls-4" d="M345.08,460.46A5.89,5.89,0,1,0,351,454.6h0a5.88,5.88,0,0,0-5.87,5.86" transform="translate(-47.39 -194.96)"/><path class="cls-4" d="M354.57,442.12a3.65,3.65,0,1,0-3.67,3.66,3.63,3.63,0,0,0,3.67-3.66v0" transform="translate(-47.39 -194.96)"/><path class="cls-4" d="M365.32,434.05a3.43,3.43,0,1,0-3.4-3.45v0a3.38,3.38,0,0,0,3.36,3.4h0" transform="translate(-47.39 -194.96)"/><path class="cls-4" d="M377.38,434.74a6,6,0,1,0,6-5.9h-.09a5.87,5.87,0,0,0-5.9,5.86v0" transform="translate(-47.39 -194.96)"/><path class="cls-4" d="M406.44,451.37a6.08,6.08,0,1,0,0-.07v.07" transform="translate(-47.39 -194.96)"/><path class="cls-4" d="M408.29,464.77a4.9,4.9,0,1,0,4.92,4.92,5,5,0,0,0-4.92-4.92" transform="translate(-47.39 -194.96)"/><path class="cls-4" d="M396.54,480a4.49,4.49,0,1,0,4.44,4.52v0a4.46,4.46,0,0,0-4.44-4.48h0" transform="translate(-47.39 -194.96)"/><path class="cls-4" d="M375.05,492.8a4.46,4.46,0,1,0,4.44-4.48,4.46,4.46,0,0,0-4.44,4.48v0" transform="translate(-47.39 -194.96)"/><path class="cls-4" d="M355.39,492.8a5.24,5.24,0,1,0,5.23-5.26,5.24,5.24,0,0,0-5.23,5.26" transform="translate(-47.39 -194.96)"/><path class="cls-4" d="M340.55,484.52a3.07,3.07,0,1,0,3.07-3.06h0a3.05,3.05,0,0,0-3.07,3v0" transform="translate(-47.39 -194.96)"/><path class="cls-4" d="M331.82,466.56a3.2,3.2,0,1,0,3.19,3.19h0a3.19,3.19,0,0,0-3.19-3.19" transform="translate(-47.39 -194.96)"/><path class="cls-4" d="M324.41,451.37a3.23,3.23,0,1,0,3.23-3.24,3.23,3.23,0,0,0-3.23,3.24" transform="translate(-47.39 -194.96)"/><path class="cls-4" d="M328.59,432.89a3.24,3.24,0,1,0,3.28-3.19h-.05a3.27,3.27,0,0,0-3.23,3.19" transform="translate(-47.39 -194.96)"/><path class="cls-4" d="M340.25,418.12a3.37,3.37,0,1,0,3.41-3.32h0a3.33,3.33,0,0,0-3.37,3.28v0" transform="translate(-47.39 -194.96)"/><path class="cls-4" d="M360.62,413.38a3.42,3.42,0,1,0-3.4-3.43,3.42,3.42,0,0,0,3.4,3.43" transform="translate(-47.39 -194.96)"/><path class="cls-4" d="M376.73,410a2.78,2.78,0,1,0,2.8-2.76h0a2.81,2.81,0,0,0-2.76,2.76" transform="translate(-47.39 -194.96)"/><path class="cls-4" d="M390.59,418.12a5.93,5.93,0,1,0,5.93-5.93,5.93,5.93,0,0,0-5.93,5.93" transform="translate(-47.39 -194.96)"/><path class="cls-4" d="M408.29,427.35a5.56,5.56,0,1,0,5.56,5.56v0a5.6,5.6,0,0,0-5.56-5.54" transform="translate(-47.39 -194.96)"/><path class="cls-4" d="M433.71,446.62a4.7,4.7,0,0,0,0,9.4h0a4.7,4.7,0,1,0,0-9.4" transform="translate(-47.39 -194.96)"/><path class="cls-4" d="M434.44,470.1a3.54,3.54,0,1,0-3.53,3.53h0a3.5,3.5,0,0,0,3.53-3.49v0" transform="translate(-47.39 -194.96)"/><path class="cls-4" d="M425.73,487.2a3.08,3.08,0,1,0-2.81,2.81,3.08,3.08,0,0,0,2.81-2.81" transform="translate(-47.39 -194.96)"/><path class="cls-4" d="M406.7,501.1a3.06,3.06,0,1,0,3.06-3.06h0a3,3,0,0,0-3.06,3,0,0,0,0,0,0,0" transform="translate(-47.39 -194.96)"/><path class="cls-4" d="M393.31,515.82a5.26,5.26,0,1,0-5.24-5.28v.07a5.23,5.23,0,0,0,5.24,5.21" transform="translate(-47.39 -194.96)"/><path class="cls-4" d="M369.59,514.83a5.24,5.24,0,1,0,5.24-5.28,5.25,5.25,0,0,0-5.24,5.28h0" transform="translate(-47.39 -194.96)"/><path class="cls-4" d="M355.93,518.28a4.87,4.87,0,1,0-4.9-4.87,4.87,4.87,0,0,0,4.9,4.87h0" transform="translate(-47.39 -194.96)"/><path class="cls-4" d="M332.6,506.45a5.65,5.65,0,1,0,5.69-5.61h-.09a5.65,5.65,0,0,0-5.6,5.61" transform="translate(-47.39 -194.96)"/><path class="cls-4" d="M320.63,494.63a2.72,2.72,0,0,0,2.68,2.76h.08a2.75,2.75,0,0,0,2.78-2.74v0a2.77,2.77,0,0,0-5.54,0v0" transform="translate(-47.39 -194.96)"/><path class="cls-4" d="M309.38,479a3.3,3.3,0,0,0,3.28,3.32h0a3.34,3.34,0,1,0-3.32-3.36v0" transform="translate(-47.39 -194.96)"/><path class="cls-4" d="M303.93,460.81a3.19,3.19,0,1,0,3.23-3.15h0a3.15,3.15,0,0,0-3.19,3.1v.05" transform="translate(-47.39 -194.96)"/><path class="cls-4" d="M302.42,441.86a4.72,4.72,0,1,0,0-.64,3.42,3.42,0,0,0,0,.64" transform="translate(-47.39 -194.96)"/><path class="cls-4" d="M312.7,427.09a3.39,3.39,0,0,0,3.41-3.36h0a3.41,3.41,0,1,0-3.45,3.36h0" transform="translate(-47.39 -194.96)"/><path class="cls-4" d="M319.66,408a3.84,3.84,0,1,0,7.66.58,5.61,5.61,0,0,0,0-.58,3.84,3.84,0,0,0-7.66,0" transform="translate(-47.39 -194.96)"/><path class="cls-4" d="M335.36,396.2a2.89,2.89,0,1,0,2.91-2.87h-.07a2.88,2.88,0,0,0-2.84,2.87" transform="translate(-47.39 -194.96)"/><path class="cls-4" d="M352.89,389.32a3,3,0,1,0,3-3,3,3,0,0,0-3,3" transform="translate(-47.39 -194.96)"/><path class="cls-4" d="M371.77,387.85a3.06,3.06,0,1,0,3.06-3.06h0a3.06,3.06,0,0,0-3.06,3.06" transform="translate(-47.39 -194.96)"/><path class="cls-4" d="M390.81,392a2.57,2.57,0,1,0,2.56-2.57,2.56,2.56,0,0,0-2.56,2.57" transform="translate(-47.39 -194.96)"/><path class="cls-4" d="M407.17,401.54a2.59,2.59,0,1,0,2.58-2.58,2.58,2.58,0,0,0-2.58,2.58" transform="translate(-47.39 -194.96)"/><path class="cls-4" d="M422.67,409.39a6.08,6.08,0,1,0,6,6.12v-.06a6.09,6.09,0,0,0-6-6.06" transform="translate(-47.39 -194.96)"/><path class="cls-4" d="M430.91,427.87a4.72,4.72,0,1,0,4.69,4.74.08.08,0,0,0,0-.07,4.69,4.69,0,0,0-4.69-4.67" transform="translate(-47.39 -194.96)"/><path class="cls-4" d="M454.9,447.05a4.32,4.32,0,1,0,4.31,4.32,4.31,4.31,0,0,0-4.31-4.32" transform="translate(-47.39 -194.96)"/><path class="cls-4" d="M452.83,473.85a3.62,3.62,0,1,0-.09,0h.09" transform="translate(-47.39 -194.96)"/><path class="cls-4" d="M443.17,488.14a3.37,3.37,0,1,0,3.36-3.36h0a3.37,3.37,0,0,0-3.36,3.36" transform="translate(-47.39 -194.96)"/><path class="cls-4" d="M436.42,499.38a4.9,4.9,0,1,0,.65,0,3.53,3.53,0,0,0-.65,0" transform="translate(-47.39 -194.96)"/><path class="cls-4" d="M423,521.56a3.88,3.88,0,1,0-3.9-3.88,3.87,3.87,0,0,0,3.9,3.88" transform="translate(-47.39 -194.96)"/><path class="cls-4" d="M406.91,532.7a4.9,4.9,0,1,0-.65,0,3.53,3.53,0,0,0,.65,0" transform="translate(-47.39 -194.96)"/><path class="cls-4" d="M384.06,534.08a4.9,4.9,0,1,0,4.91-4.87h0a4.9,4.9,0,0,0-4.87,4.87" transform="translate(-47.39 -194.96)"/><path class="cls-4" d="M365.07,536.24a5,5,0,1,0,5-5h0a5,5,0,0,0-5,4.91v.09" transform="translate(-47.39 -194.96)"/><path class="cls-4" d="M351.16,539a4.92,4.92,0,1,0-4.91-4.92h0a4.88,4.88,0,0,0,4.87,4.92h0" transform="translate(-47.39 -194.96)"/><path class="cls-4" d="M333.25,532.1a4.31,4.31,0,1,0-4.32-4.31,4.31,4.31,0,0,0,4.32,4.31" transform="translate(-47.39 -194.96)"/><path class="cls-4" d="M317.14,513.28a4.31,4.31,0,1,0,4.31,4.31,4.31,4.31,0,0,0-4.31-4.31" transform="translate(-47.39 -194.96)"/><path class="cls-4" d="M301,504.25a2.76,2.76,0,1,0,2.77-2.76h0a2.76,2.76,0,0,0-2.76,2.76" transform="translate(-47.39 -194.96)"/><path class="cls-4" d="M296.94,488.14a3.36,3.36,0,1,0-6.7-.53,2.35,2.35,0,0,0,0,.53,3.36,3.36,0,1,0,6.7.54,2.44,2.44,0,0,0,0-.54" transform="translate(-47.39 -194.96)"/><path class="cls-4" d="M287.33,465.44a4.77,4.77,0,1,0,4.76,4.77v0a4.76,4.76,0,0,0-4.76-4.75" transform="translate(-47.39 -194.96)"/><path class="cls-4" d="M285.17,446.58a4.77,4.77,0,1,0,4.74,4.79v-.05a4.76,4.76,0,0,0-4.74-4.74" transform="translate(-47.39 -194.96)"/><path class="cls-4" d="M282.56,432.44a4.77,4.77,0,1,0,4.77-4.77h0a4.76,4.76,0,0,0-4.74,4.77" transform="translate(-47.39 -194.96)"/><path class="cls-4" d="M290.15,414.5a3.29,3.29,0,1,0,3.43-3.43,3.42,3.42,0,0,0-3.43,3.43" transform="translate(-47.39 -194.96)"/><path class="cls-4" d="M303.71,394.58a3.84,3.84,0,1,0,3.79,3.88v0a3.84,3.84,0,0,0-3.8-3.86" transform="translate(-47.39 -194.96)"/><path class="cls-4" d="M313.91,385a3.24,3.24,0,1,0,3.23-3.24,3.23,3.23,0,0,0-3.23,3.24" transform="translate(-47.39 -194.96)"/><path class="cls-4" d="M329.84,374.85a3.41,3.41,0,1,0,3.41-3.4,3.4,3.4,0,0,0-3.41,3.4v0" transform="translate(-47.39 -194.96)"/><path class="cls-4" d="M348.19,368.56a3,3,0,1,0,3-2.95h-.07a3,3,0,0,0-3,3" transform="translate(-47.39 -194.96)"/><path class="cls-4" d="M370.07,360.91a5.58,5.58,0,1,0,.15,0h0" transform="translate(-47.39 -194.96)"/><path class="cls-4" d="M388.93,363.15a5.43,5.43,0,1,0,5.46,5.41,5.43,5.43,0,0,0-5.46-5.41h0" transform="translate(-47.39 -194.96)"/><path class="cls-4" d="M406.91,369.42a5.41,5.41,0,1,0,5.39,5.43,5.41,5.41,0,0,0-5.39-5.43" transform="translate(-47.39 -194.96)"/><path class="cls-4" d="M423,379.68a5.31,5.31,0,1,0,5.26,5.35.06.06,0,0,0,0-.06,5.29,5.29,0,0,0-5.26-5.29" transform="translate(-47.39 -194.96)"/><path class="cls-4" d="M436.42,393.42a5,5,0,1,0,5,5,5,5,0,0,0-5-5h0" transform="translate(-47.39 -194.96)"/><path class="cls-4" d="M446.53,418.73a4.32,4.32,0,1,0-4.31-4.32,4.31,4.31,0,0,0,4.31,4.32" transform="translate(-47.39 -194.96)"/><path class="cls-4" d="M448.52,432.44a4.31,4.31,0,1,0,4.31-4.31,4.31,4.31,0,0,0-4.31,4.31" transform="translate(-47.39 -194.96)"/><path class="cls-4" d="M476.16,447.1a4.31,4.31,0,1,0,4.31,4.31,4.31,4.31,0,0,0-4.31-4.31" transform="translate(-47.39 -194.96)"/><path class="cls-4" d="M472.73,470.27a1.66,1.66,0,0,0,1.59,1.73h.05a1.73,1.73,0,0,0,0-3.45,1.66,1.66,0,0,0-1.64,1.68v0" transform="translate(-47.39 -194.96)"/><path class="cls-4" d="M490.69,470.27a1.66,1.66,0,0,0,1.59,1.73h0a1.73,1.73,0,1,0,0-3.45,1.65,1.65,0,0,0-1.63,1.68v0" transform="translate(-47.39 -194.96)"/><path class="cls-4" d="M466.26,488.62a3.09,3.09,0,1,0,3.11-3.06,3.08,3.08,0,0,0-3.11,3.06h0" transform="translate(-47.39 -194.96)"/><path class="cls-4" d="M458.11,505.74a3,3,0,1,0,3-3h0a3.08,3.08,0,0,0-3,3" transform="translate(-47.39 -194.96)"/><path class="cls-4" d="M445.2,521.13a4.74,4.74,0,0,0,4.72,4.76h0a4.76,4.76,0,1,0,.64-9.5,3.42,3.42,0,0,0-.64,0,4.71,4.71,0,0,0-4.74,4.69v0" transform="translate(-47.39 -194.96)"/><path class="cls-4" d="M441,534.26a4.77,4.77,0,1,0-4.76,4.78,4.77,4.77,0,0,0,4.76-4.78v0" transform="translate(-47.39 -194.96)"/><path class="cls-4" d="M415.71,544.8a4.66,4.66,0,1,0,4.63-4.68h0a4.61,4.61,0,0,0-4.61,4.61v.07" transform="translate(-47.39 -194.96)"/><path class="cls-4" d="M397.75,552.22a5.13,5.13,0,1,0,5.17-5.09h-.08a5.13,5.13,0,0,0-5.09,5.09" transform="translate(-47.39 -194.96)"/><path class="cls-4" d="M389.28,556.44a5,5,0,1,0-5,5,5,5,0,0,0,5-5h0" transform="translate(-47.39 -194.96)"/><path class="cls-4" d="M370.58,557.3a4.86,4.86,0,1,0,0,.11.45.45,0,0,0,0-.11" transform="translate(-47.39 -194.96)"/><path class="cls-4" d="M341.22,554.76a5.31,5.31,0,1,0,5.31-5.3,5.3,5.3,0,0,0-5.31,5.3h0" transform="translate(-47.39 -194.96)"/><path class="cls-4" d="M322.6,548.85a5.76,5.76,0,1,0,5.77-5.73,5.75,5.75,0,0,0-5.77,5.73v0" transform="translate(-47.39 -194.96)"/><path class="cls-4" d="M308.43,539.86a3.19,3.19,0,0,0,3.19,3.19,3.23,3.23,0,1,0-3.19-3.27" transform="translate(-47.39 -194.96)"/><path class="cls-4" d="M293.49,528.05a3.24,3.24,0,1,0,3.24-3.24,3.24,3.24,0,0,0-3.24,3.24" transform="translate(-47.39 -194.96)"/><path class="cls-4" d="M284.24,510.82a2.87,2.87,0,1,0,2.85,2.89,2.88,2.88,0,0,0-2.85-2.89" transform="translate(-47.39 -194.96)"/><path class="cls-4" d="M274.39,494.37a3,3,0,1,0,3,3,3,3,0,0,0-3-3h0" transform="translate(-47.39 -194.96)"/><path class="cls-4" d="M264.78,479.56a3,3,0,1,0,3-3,2.94,2.94,0,0,0-3,2.89v.08" transform="translate(-47.39 -194.96)"/><path class="cls-4" d="M268.23,460.87a3.84,3.84,0,1,0-3.88,3.8h0a3.83,3.83,0,0,0,3.84-3.8h0" transform="translate(-47.39 -194.96)"/><path class="cls-4" d="M264.39,445.67a3.86,3.86,0,1,0-3.84-3.88v0a3.86,3.86,0,0,0,3.84,3.86" transform="translate(-47.39 -194.96)"/><path class="cls-4" d="M264.6,423.12a3.17,3.17,0,1,0,3.19-3.19,3.18,3.18,0,0,0-3.19,3.19v0" transform="translate(-47.39 -194.96)"/><path class="cls-4" d="M274.39,408.36a3.07,3.07,0,1,0-3.06-3.07h0a3.05,3.05,0,0,0,3,3.07h0" transform="translate(-47.39 -194.96)"/><path class="cls-4" d="M280.71,388.93a3.52,3.52,0,1,0,3.53-3.49,3.52,3.52,0,0,0-3.53,3.49v0" transform="translate(-47.39 -194.96)"/><path class="cls-4" d="M293.1,374.64a3.65,3.65,0,1,0,3.63-3.67,3.66,3.66,0,0,0-3.63,3.67h0" transform="translate(-47.39 -194.96)"/><path class="cls-4" d="M311.62,360.86a1.92,1.92,0,1,0,1.71,1.71,1.92,1.92,0,0,0-1.71-1.71" transform="translate(-47.39 -194.96)"/><path class="cls-4" d="M328.29,349.22a4.57,4.57,0,0,0-4.53,4.57,4.53,4.53,0,0,0,9.05,0,4.57,4.57,0,0,0-4.52-4.57" transform="translate(-47.39 -194.96)"/><path class="cls-4" d="M343.23,347.93a3.23,3.23,0,1,0,3.23-3.24,3.23,3.23,0,0,0-3.23,3.24" transform="translate(-47.39 -194.96)"/><path class="cls-4" d="M360.32,345.32a5,5,0,1,0,5-5,5,5,0,0,0-5,5h0" transform="translate(-47.39 -194.96)"/><path class="cls-4" d="M384.34,340.66a5.54,5.54,0,1,0,.69,0q-.34,0-.69,0" transform="translate(-47.39 -194.96)"/><path class="cls-4" d="M402.84,344.93a5.55,5.55,0,1,1,0,.09h0" transform="translate(-47.39 -194.96)"/><path class="cls-4" d="M420.32,353.49a4.42,4.42,0,1,0,4.42,4.42,4.42,4.42,0,0,0-4.42-4.42h0" transform="translate(-47.39 -194.96)"/><path class="cls-4" d="M436.21,363.28a5.09,5.09,0,1,0,5.06,5.11,5.08,5.08,0,0,0-5.06-5.11h0" transform="translate(-47.39 -194.96)"/><path class="cls-4" d="M450,376.39a5.09,5.09,0,1,0,5,5.15v-.09a5.06,5.06,0,0,0-5-5.06" transform="translate(-47.39 -194.96)"/><path class="cls-4" d="M455.18,396.93a5.94,5.94,0,1,0,0-.06v.06" transform="translate(-47.39 -194.96)"/><path class="cls-4" d="M464.49,414.07a4.89,4.89,0,1,0,0-.11v.11" transform="translate(-47.39 -194.96)"/><path class="cls-4" d="M470.18,432.44a4.32,4.32,0,1,0,4.32-4.31,4.31,4.31,0,0,0-4.32,4.31" transform="translate(-47.39 -194.96)"/><path class="cls-4" d="M494.63,451.37a2.72,2.72,0,1,0,0-.09v.09" transform="translate(-47.39 -194.96)"/><path class="cls-4" d="M491.7,487a1.88,1.88,0,0,0-1.9,1.85h0a1.9,1.9,0,0,0,3.8,0,1.88,1.88,0,0,0-1.9-1.85h0" transform="translate(-47.39 -194.96)"/><path class="cls-4" d="M455.48,537.92a5.78,5.78,0,1,0,5.82-5.73h0a5.75,5.75,0,0,0-5.78,5.73h0" transform="translate(-47.39 -194.96)"/><path class="cls-4" d="M449.42,553.34a4.62,4.62,0,1,0-4.61-4.62h0a4.62,4.62,0,0,0,4.61,4.62" transform="translate(-47.39 -194.96)"/><path class="cls-4" d="M403.74,575.46a5.39,5.39,0,1,0-5.39,5.43,5.38,5.38,0,0,0,5.39-5.43v0" transform="translate(-47.39 -194.96)"/><path class="cls-4" d="M379.57,572.33a6,6,0,1,0,5.95,6v0a6,6,0,0,0-5.95-6" transform="translate(-47.39 -194.96)"/><path class="cls-4" d="M366.19,578.3a5.65,5.65,0,1,0-5.65,5.65h0a5.62,5.62,0,0,0,5.65-5.56v-.09" transform="translate(-47.39 -194.96)"/><path class="cls-4" d="M346.72,575.46a5,5,0,1,0-5,5h0a5,5,0,0,0,5-5" transform="translate(-47.39 -194.96)"/><path class="cls-4" d="M323.52,573a3.17,3.17,0,1,0-3.14-3.19,3.17,3.17,0,0,0,3.14,3.19" transform="translate(-47.39 -194.96)"/><path class="cls-4" d="M303.24,561.64a3.19,3.19,0,1,0,3.19-3.19h-.05a3.11,3.11,0,0,0-3.14,3.1v.09" transform="translate(-47.39 -194.96)"/><path class="cls-4" d="M287.48,550.88a3.21,3.21,0,1,0,3.27-3.15h-.08a3.15,3.15,0,0,0-3.19,3.11v0" transform="translate(-47.39 -194.96)"/><path class="cls-4" d="M279.33,537.92a2.61,2.61,0,1,0-2.63,2.59h0a2.59,2.59,0,0,0,2.59-2.59" transform="translate(-47.39 -194.96)"/><path class="cls-4" d="M264.86,520a3.06,3.06,0,1,0,3.07,3.06s0-.06,0-.09a3.06,3.06,0,0,0-3.06-3" transform="translate(-47.39 -194.96)"/><path class="cls-4" d="M258.5,506.58a3.17,3.17,0,1,0-3.19,3.14h.05a3.15,3.15,0,0,0,3.14-3.14h0" transform="translate(-47.39 -194.96)"/><path class="cls-4" d="M245.05,488.83a3.34,3.34,0,0,0,3.32,3.37h.15a3.35,3.35,0,1,0-3.36-3.37" transform="translate(-47.39 -194.96)"/><path class="cls-4" d="M244.21,466.05a4.31,4.31,0,1,0,4.31,4.31,4.31,4.31,0,0,0-4.31-4.31" transform="translate(-47.39 -194.96)"/><path class="cls-4" d="M242.74,454.69a3.35,3.35,0,1,0-3.36-3.32,3.34,3.34,0,0,0,3.36,3.32h0" transform="translate(-47.39 -194.96)"/><path class="cls-4" d="M240.8,432.44a3.37,3.37,0,0,0,6.71.54,4.86,4.86,0,0,0,0-.54,3.37,3.37,0,0,0-6.71-.54,4.86,4.86,0,0,0,0,.54" transform="translate(-47.39 -194.96)"/><path class="cls-4" d="M245.18,413.81a3.22,3.22,0,1,0,0-.06v.06" transform="translate(-47.39 -194.96)"/><path class="cls-4" d="M255.36,392.38a3.73,3.73,0,1,0,.56,0h-.56" transform="translate(-47.39 -194.96)"/><path class="cls-4" d="M264.86,375.29a4.31,4.31,0,1,0,4.31,4.31,4.31,4.31,0,0,0-4.31-4.31" transform="translate(-47.39 -194.96)"/><path class="cls-4" d="M276.74,360.43a4.32,4.32,0,1,0,4.31,4.31,4.31,4.31,0,0,0-4.31-4.31" transform="translate(-47.39 -194.96)"/><path class="cls-4" d="M290.67,347.24a4.4,4.4,0,1,0,4.55,4.57,4.57,4.57,0,0,0-4.55-4.57" transform="translate(-47.39 -194.96)"/><path class="cls-4" d="M306.38,334.41a6.66,6.66,0,1,0,6.67,6.66v0a6.64,6.64,0,0,0-6.64-6.64h0" transform="translate(-47.39 -194.96)"/><path class="cls-4" d="M316.88,332.82a6.67,6.67,0,1,0,6.66-6.67h0a6.65,6.65,0,0,0-6.64,6.64v0" transform="translate(-47.39 -194.96)"/><path class="cls-4" d="M341.76,321.33a5.9,5.9,0,1,0,.07,0" transform="translate(-47.39 -194.96)"/><path class="cls-4" d="M416.68,328.48a4.32,4.32,0,1,0,4.31,4.31,4.32,4.32,0,0,0-4.31-4.31" transform="translate(-47.39 -194.96)"/><path class="cls-4" d="M433.71,336.83a4.31,4.31,0,1,0,4.31,4.31,4.31,4.31,0,0,0-4.31-4.31" transform="translate(-47.39 -194.96)"/><path class="cls-4" d="M449.42,347.24a4.58,4.58,0,0,0-4.52,4.57,4.52,4.52,0,0,0,4.52,4.48A4.46,4.46,0,0,0,454,351.9v-.09a4.52,4.52,0,0,0-4.48-4.57h-.05" transform="translate(-47.39 -194.96)"/><path class="cls-4" d="M460,364.77a3.49,3.49,0,1,0,3.9-3.39h-.54a3.36,3.36,0,0,0-3.36,3.36v0" transform="translate(-47.39 -194.96)"/><path class="cls-4" d="M480.55,379.6a5.3,5.3,0,1,0-5.32,5.28h.06a5.28,5.28,0,0,0,5.26-5.28" transform="translate(-47.39 -194.96)"/><path class="cls-4" d="M479.2,396.09a5.49,5.49,0,1,0,5.69-5.65,5.67,5.67,0,0,0-5.69,5.65" transform="translate(-47.39 -194.96)"/><path class="cls-4" d="M491.7,409.13a4.68,4.68,0,1,0,4.35,4.35,4.68,4.68,0,0,0-4.35-4.35" transform="translate(-47.39 -194.96)"/><path class="cls-4" d="M493.25,432.44a2.72,2.72,0,1,0,2.72-2.72,2.71,2.71,0,0,0-2.72,2.72h0" transform="translate(-47.39 -194.96)"/><path class="cls-4" d="M514.92,451.37a3.69,3.69,0,1,0,3.71-3.71,3.69,3.69,0,0,0-3.71,3.71h0" transform="translate(-47.39 -194.96)"/><path class="cls-4" d="M362.26,599.19a6.47,6.47,0,1,0-6.46,6.47,6.47,6.47,0,0,0,6.46-6.47" transform="translate(-47.39 -194.96)"/><path class="cls-4" d="M342.36,596.28a5.37,5.37,0,1,0-5.38,5.35h0a5.35,5.35,0,0,0,5.36-5.33v0" transform="translate(-47.39 -194.96)"/><path class="cls-4" d="M313.86,590.74a4.9,4.9,0,1,0,4.9-4.89h0a4.94,4.94,0,0,0-4.88,4.89" transform="translate(-47.39 -194.96)"/><path class="cls-4" d="M301.34,586.23a3.23,3.23,0,1,0-3.23-3.23,3.22,3.22,0,0,0,3.23,3.23" transform="translate(-47.39 -194.96)"/><path class="cls-4" d="M288.43,573.15a3.35,3.35,0,0,0-3.37-3.32h0a3.3,3.3,0,0,0-3.32,3.28v0a3.35,3.35,0,0,0,3.3,3.38h0a3.39,3.39,0,0,0,3.37-3.38" transform="translate(-47.39 -194.96)"/><path class="cls-4" d="M268.14,561.29a2.16,2.16,0,1,0,2.16-2.15,2.16,2.16,0,0,0-2.16,2.15" transform="translate(-47.39 -194.96)"/><path class="cls-4" d="M259.86,547.64a2.91,2.91,0,1,0-3,2.85H257a2.87,2.87,0,0,0,2.91-2.82v0" transform="translate(-47.39 -194.96)"/><path class="cls-4" d="M242.4,532.36a3.19,3.19,0,1,0,3.19-3.19h0a3.19,3.19,0,0,0-3.17,3.19" transform="translate(-47.39 -194.96)"/><path class="cls-4" d="M232.87,515.78a3.37,3.37,0,1,0,3.36-3.36h0a3.36,3.36,0,0,0-3.36,3.36" transform="translate(-47.39 -194.96)"/><path class="cls-4" d="M229.12,494.81a3.34,3.34,0,1,0,3.34,3.34,3.33,3.33,0,0,0-3.34-3.34" transform="translate(-47.39 -194.96)"/><path class="cls-4" d="M224.27,476.65a3.09,3.09,0,1,0,3,3.15v-.06a3.07,3.07,0,0,0-3-3.09" transform="translate(-47.39 -194.96)"/><path class="cls-4" d="M221.81,464.58a3.73,3.73,0,1,0-3.71-3.75v0a3.71,3.71,0,0,0,3.71,3.71h0" transform="translate(-47.39 -194.96)"/><path class="cls-4" d="M221.81,445.05a3.24,3.24,0,1,0-3.23-3.24,3.23,3.23,0,0,0,3.23,3.24" transform="translate(-47.39 -194.96)"/><path class="cls-4" d="M220.22,423a4.07,4.07,0,1,0,4.09-4.05h0a4,4,0,0,0-4.05,4.05" transform="translate(-47.39 -194.96)"/><path class="cls-4" d="M225.91,404.52a3.19,3.19,0,1,0,3.23-3.15h0A3.15,3.15,0,0,0,226,404.5v0" transform="translate(-47.39 -194.96)"/><path class="cls-4" d="M236.31,389a4.24,4.24,0,1,0,4.27-4.21h0a4.23,4.23,0,0,0-4.23,4.21" transform="translate(-47.39 -194.96)"/><path class="cls-4" d="M447.05,319.9a4.32,4.32,0,1,0,4.31,4.31,4.31,4.31,0,0,0-4.31-4.31" transform="translate(-47.39 -194.96)"/><path class="cls-4" d="M462.68,331.11a4.1,4.1,0,1,0,4.1,4.1,4.1,4.1,0,0,0-4.1-4.1" transform="translate(-47.39 -194.96)"/><path class="cls-4" d="M476.76,344.16a3.84,3.84,0,1,0,3.54,3.53,3.83,3.83,0,0,0-3.54-3.53" transform="translate(-47.39 -194.96)"/><path class="cls-4" d="M485.3,362.5a3.77,3.77,0,0,0,3.73,3.82h.08a3.84,3.84,0,0,0,0-7.66,3.75,3.75,0,0,0-3.81,3.69v.15" transform="translate(-47.39 -194.96)"/><path class="cls-4" d="M497.3,384a5.54,5.54,0,1,0-5.51-5.56v0a5.48,5.48,0,0,0,5.45,5.54h.06" transform="translate(-47.39 -194.96)"/><path class="cls-4" d="M504.31,395.57a3.43,3.43,0,0,0,3.43,3.43h0a3.42,3.42,0,1,0-3.45-3.43h0" transform="translate(-47.39 -194.96)"/><path class="cls-4" d="M513.69,408.36a5.3,5.3,0,1,0,.68,0,3.86,3.86,0,0,0-.68,0" transform="translate(-47.39 -194.96)"/><path class="cls-4" d="M511.53,432.44a3.69,3.69,0,1,0,3.65-3.73h0a3.69,3.69,0,0,0-3.63,3.73" transform="translate(-47.39 -194.96)"/><path class="cls-4" d="M356.66,620a5.61,5.61,0,1,0-5.63,5.63,5.61,5.61,0,0,0,5.63-5.63v0" transform="translate(-47.39 -194.96)"/><path class="cls-4" d="M337.64,616.85a5.35,5.35,0,1,0-5.34,5.37,5.34,5.34,0,0,0,5.34-5.37v0" transform="translate(-47.39 -194.96)"/><path class="cls-4" d="M310.37,611.54a3.65,3.65,0,1,0,7.29,0h0A3.67,3.67,0,0,0,314,607.9a3.62,3.62,0,0,0-3.62,3.62v0" transform="translate(-47.39 -194.96)"/><path class="cls-4" d="M294.23,604.28a2.16,2.16,0,1,0,2.15-2.16,2.15,2.15,0,0,0-2.15,2.16" transform="translate(-47.39 -194.96)"/><path class="cls-4" d="M277.69,595.05a2.15,2.15,0,1,0,2.28-2h-.12a2,2,0,0,0-2.16,1.93v.09" transform="translate(-47.39 -194.96)"/><path class="cls-4" d="M262.15,584.08a2.16,2.16,0,1,0,2.15-2.16,2.15,2.15,0,0,0-2.15,2.16" transform="translate(-47.39 -194.96)"/><path class="cls-4" d="M252.51,571.38a2.48,2.48,0,0,0-5,0h0a2.48,2.48,0,0,0,5,0" transform="translate(-47.39 -194.96)"/><path class="cls-4" d="M234.47,557.17a2.87,2.87,0,1,0,2.84-2.89,2.86,2.86,0,0,0-2.84,2.89" transform="translate(-47.39 -194.96)"/><path class="cls-4" d="M229.12,541.67a2.91,2.91,0,0,0-2.89-2.93h0a2.9,2.9,0,1,0,2.91,2.93" transform="translate(-47.39 -194.96)"/><path class="cls-4" d="M211.25,525a5.86,5.86,0,1,0,5.86-5.91,5.86,5.86,0,0,0-5.86,5.91" transform="translate(-47.39 -194.96)"/><path class="cls-4" d="M209.72,500.76a6.66,6.66,0,1,0,6.66,6.66v0a6.64,6.64,0,0,0-6.64-6.64h0" transform="translate(-47.39 -194.96)"/><path class="cls-4" d="M204.54,492.8a3.71,3.71,0,1,0-3.71-3.71,3.71,3.71,0,0,0,3.71,3.71" transform="translate(-47.39 -194.96)"/><path class="cls-4" d="M201.35,466.93a3.44,3.44,0,0,0-3.4,3.45,3.41,3.41,0,1,0,3.4-3.45" transform="translate(-47.39 -194.96)"/><path class="cls-4" d="M200.32,454.69a3.35,3.35,0,0,0,3.32-3.37h0a3.3,3.3,0,0,0-3.28-3.32h0a3.35,3.35,0,0,0-3.37,3.32h0a3.37,3.37,0,0,0,3.37,3.37" transform="translate(-47.39 -194.96)"/><path class="cls-4" d="M198,432.44a3.31,3.31,0,0,0,3.28,3.32h0a3.32,3.32,0,1,0-3.32-3.37v.05" transform="translate(-47.39 -194.96)"/><path class="cls-4" d="M203.94,415.71a2.76,2.76,0,1,0,2.84-2.67h-.08a2.79,2.79,0,0,0-2.76,2.79" transform="translate(-47.39 -194.96)"/><path class="cls-4" d="M456.13,307.59a4.31,4.31,0,1,0,4.31-4.31,4.31,4.31,0,0,0-4.31,4.31" transform="translate(-47.39 -194.96)"/><path class="cls-4" d="M472.73,318.61a3.18,3.18,0,0,0,3.15,3.23h0a3.23,3.23,0,0,0,0-6.46,3.18,3.18,0,0,0-3.19,3.19v0" transform="translate(-47.39 -194.96)"/><path class="cls-4" d="M493.6,331.31a3.52,3.52,0,0,0-7-.55,5,5,0,0,0,0,.55,3.52,3.52,0,0,0,7,0" transform="translate(-47.39 -194.96)"/><path class="cls-4" d="M502.74,340.92a4.54,4.54,0,0,0-4.49,4.57h0a4.47,4.47,0,0,0,4.42,4.51h.07a4.53,4.53,0,0,0,4.59-4.46v-.05a4.61,4.61,0,0,0-4.59-4.57" transform="translate(-47.39 -194.96)"/><path class="cls-4" d="M508.8,361a5,5,0,1,0,5.08-5h-.08a5,5,0,0,0-5,4.92v0" transform="translate(-47.39 -194.96)"/><path class="cls-4" d="M513.37,377.21a3.67,3.67,0,1,0,3.68-3.65h0a3.63,3.63,0,0,0-3.66,3.61v0" transform="translate(-47.39 -194.96)"/><path class="cls-4" d="M530.29,390.4a4.88,4.88,0,1,0,4.91,4.84h0a4.88,4.88,0,0,0-4.91-4.83" transform="translate(-47.39 -194.96)"/><path class="cls-4" d="M534.46,414.93a4,4,0,0,0-4-4h0a4,4,0,0,0-4,4,4,4,0,0,0,3.94,4h0a3.92,3.92,0,0,0,4-3.85v-.13" transform="translate(-47.39 -194.96)"/><path class="cls-4" d="M367.09,642.29a3.86,3.86,0,1,0-3.88,3.88,3.86,3.86,0,0,0,3.88-3.88v0" transform="translate(-47.39 -194.96)"/><path class="cls-4" d="M346.33,644.7a3.9,3.9,0,1,0-3.88-3.92v0a3.9,3.9,0,0,0,3.88,3.88" transform="translate(-47.39 -194.96)"/><path class="cls-4" d="M332.6,637.52a5.09,5.09,0,1,0-5.09,5.11,5.13,5.13,0,0,0,5.09-5.11" transform="translate(-47.39 -194.96)"/><path class="cls-4" d="M306.44,632.28a2.92,2.92,0,0,0,2.86,2.92,2.87,2.87,0,0,0,2.7-2.92,2.81,2.81,0,0,0-2.7-2.7,2.86,2.86,0,0,0-2.86,2.7" transform="translate(-47.39 -194.96)"/><path class="cls-4" d="M287.09,625.45a4.44,4.44,0,1,0,4.46-4.42h-.15a4.31,4.31,0,0,0-4.31,4.31v.11" transform="translate(-47.39 -194.96)"/><path class="cls-4" d="M277.65,616.72a3.09,3.09,0,1,0-3.11,3.06h0a3.05,3.05,0,0,0,3.09-3v-.06" transform="translate(-47.39 -194.96)"/><path class="cls-4" d="M261.76,606.41a3.19,3.19,0,1,0-3.24,3.15h.05a3.15,3.15,0,0,0,3.19-3.1v-.05" transform="translate(-47.39 -194.96)"/><path class="cls-4" d="M247,594.53a3.26,3.26,0,1,0-3.28,3.24h0a3.24,3.24,0,0,0,3.24-3.24" transform="translate(-47.39 -194.96)"/><path class="cls-4" d="M235.72,581.19a5.67,5.67,0,1,0-5.7,5.65h0a5.64,5.64,0,0,0,5.65-5.61v0" transform="translate(-47.39 -194.96)"/><path class="cls-4" d="M222.65,566.64a4.72,4.72,0,1,0-4.73,4.72,4.72,4.72,0,0,0,4.73-4.72h0" transform="translate(-47.39 -194.96)"/><path class="cls-4" d="M207.09,546.7a4.14,4.14,0,1,0,4.13,4.13,4.14,4.14,0,0,0-4.13-4.13" transform="translate(-47.39 -194.96)"/><path class="cls-4" d="M192.1,534.17a5.89,5.89,0,1,0,5.91-5.86h0a5.91,5.91,0,0,0-5.89,5.86" transform="translate(-47.39 -194.96)"/><path class="cls-4" d="M190.59,510.28a6.47,6.47,0,1,0,6.47,6.47v-.11a6.47,6.47,0,0,0-6.47-6.36" transform="translate(-47.39 -194.96)"/><path class="cls-4" d="M185,492.63a5.84,5.84,0,1,0,5.82,5.86v0a5.82,5.82,0,0,0-5.8-5.84h0" transform="translate(-47.39 -194.96)"/><path class="cls-4" d="M181.19,486.16a6.36,6.36,0,1,0-6.36-6.47,6.47,6.47,0,0,0,6.36,6.47" transform="translate(-47.39 -194.96)"/><path class="cls-4" d="M179.34,464.77a3.9,3.9,0,1,0-3.9-3.9v0a3.89,3.89,0,0,0,3.9,3.88" transform="translate(-47.39 -194.96)"/><path class="cls-4" d="M179.34,444.9a3.08,3.08,0,0,0,3-3.11v0a3.05,3.05,0,1,0-3.06,3.13h0" transform="translate(-47.39 -194.96)"/><path class="cls-4" d="M184.56,422.87a3.37,3.37,0,1,0-3.37,3.36h0a3.37,3.37,0,0,0,3.37-3.36" transform="translate(-47.39 -194.96)"/><path class="cls-4" d="M475.15,289a3.41,3.41,0,1,0,3.42,3.4,3.41,3.41,0,0,0-3.42-3.4h0" transform="translate(-47.39 -194.96)"/><path class="cls-4" d="M489.11,297.14a4.89,4.89,0,1,0,.07,0h-.07" transform="translate(-47.39 -194.96)"/><path class="cls-4" d="M503.45,309.55a5.14,5.14,0,1,0,5.09,5.18v-.09a5.17,5.17,0,0,0-5.09-5.09" transform="translate(-47.39 -194.96)"/><path class="cls-4" d="M516.38,324a4.53,4.53,0,0,0-.62,9,3.21,3.21,0,0,0,.62,0,4.53,4.53,0,0,0,0-9" transform="translate(-47.39 -194.96)"/><path class="cls-4" d="M523.3,343.77a4.55,4.55,0,0,0,4.51,4.59h.06a4.47,4.47,0,0,0,4.49-4.44v-.07a4.53,4.53,0,0,0-4.48-4.57h0a4.61,4.61,0,0,0-4.57,4.57" transform="translate(-47.39 -194.96)"/><path class="cls-4" d="M533.65,360a4.11,4.11,0,1,0,0-.06V360" transform="translate(-47.39 -194.96)"/><path class="cls-4" d="M299.46,651.16a3.34,3.34,0,1,0,3.34-3.34,3.34,3.34,0,0,0-3.34,3.34" transform="translate(-47.39 -194.96)"/><path class="cls-4" d="M293.32,646.43a6.66,6.66,0,0,0-13.3-.76,4.82,4.82,0,0,0,0,.76,6.66,6.66,0,0,0,13.3,0" transform="translate(-47.39 -194.96)"/><path class="cls-4" d="M272.67,638.21a3.17,3.17,0,1,0-3.17,3.17,3.17,3.17,0,0,0,3.17-3.17" transform="translate(-47.39 -194.96)"/><path class="cls-4" d="M253.16,626a2.46,2.46,0,1,0,2.45,2.5,2.46,2.46,0,0,0-2.45-2.5h0" transform="translate(-47.39 -194.96)"/><path class="cls-4" d="M241.15,617.24a3.41,3.41,0,1,0-3.41,3.4,3.41,3.41,0,0,0,3.41-3.4v0" transform="translate(-47.39 -194.96)"/><path class="cls-4" d="M226.83,604.71a3.43,3.43,0,1,0-3.45,3.41h0a3.41,3.41,0,0,0,3.42-3.39v0" transform="translate(-47.39 -194.96)"/><path class="cls-4" d="M210.26,594.12a3.26,3.26,0,1,0-3.26-3.25h0a3.23,3.23,0,0,0,3.21,3.25h0" transform="translate(-47.39 -194.96)"/><path class="cls-4" d="M198.38,571.38a4.69,4.69,0,0,0-4.72,4.68h0a4.72,4.72,0,0,0,9.42.64c0-.22,0-.43,0-.64a4.66,4.66,0,0,0-4.64-4.68h-.06" transform="translate(-47.39 -194.96)"/><path class="cls-4" d="M187.88,565.3a5.13,5.13,0,1,0-5.09-5.17v0a5.11,5.11,0,0,0,5.09,5.13h0" transform="translate(-47.39 -194.96)"/><path class="cls-4" d="M178.87,549.37a6,6,0,1,0-5.93-6v.07a6,6,0,0,0,5.93,6" transform="translate(-47.39 -194.96)"/><path class="cls-4" d="M165,525.89a6.47,6.47,0,1,0,6.47-6.47,6.47,6.47,0,0,0-6.47,6.47" transform="translate(-47.39 -194.96)"/><path class="cls-4" d="M165.52,501.83a6,6,0,1,0-.71,11.88,4.21,4.21,0,0,0,.71,0,6,6,0,0,0,0-11.88" transform="translate(-47.39 -194.96)"/><path class="cls-4" d="M161.27,482.75a6.47,6.47,0,1,0,6.47,6.47,6.47,6.47,0,0,0-6.47-6.47" transform="translate(-47.39 -194.96)"/><path class="cls-4" d="M158.69,463.8a6.52,6.52,0,1,0,.11,0h-.11" transform="translate(-47.39 -194.96)"/><path class="cls-4" d="M158,457.32a6,6,0,1,0-6-6v0a6,6,0,0,0,6,6" transform="translate(-47.39 -194.96)"/><path class="cls-4" d="M158.69,438.32a6,6,0,1,0-.05,0h.05" transform="translate(-47.39 -194.96)"/><path class="cls-4" d="M157.22,413.47a4.08,4.08,0,1,0,4.08-4.08h0a4.06,4.06,0,0,0-4.05,4.05v0" transform="translate(-47.39 -194.96)"/><path class="cls-4" d="M486.94,270a4.31,4.31,0,1,0,4.31,4.31,4.31,4.31,0,0,0-4.31-4.31" transform="translate(-47.39 -194.96)"/><path class="cls-4" d="M500.24,280.56a4.89,4.89,0,1,0,4.83,5v-.07a4.87,4.87,0,0,0-4.85-4.89h0" transform="translate(-47.39 -194.96)"/><path class="cls-4" d="M550.34,342.47a4.16,4.16,0,1,0,4.22-4.09h-.06a4.18,4.18,0,0,0-4.16,4.09" transform="translate(-47.39 -194.96)"/><path class="cls-4" d="M269,658.41a5.58,5.58,0,0,0-11.14-.64c0,.22,0,.43,0,.64a5.58,5.58,0,0,0,11.14,0" transform="translate(-47.39 -194.96)"/><path class="cls-4" d="M247.9,656.79a6.47,6.47,0,1,0-6.62-6.46,6.58,6.58,0,0,0,6.62,6.46" transform="translate(-47.39 -194.96)"/><path class="cls-4" d="M234.85,639.59a2.76,2.76,0,1,0-2.76,2.78,2.76,2.76,0,0,0,2.76-2.78v0" transform="translate(-47.39 -194.96)"/><path class="cls-4" d="M220.5,627.78a3.37,3.37,0,1,0-3.37,3.36,3.37,3.37,0,0,0,3.37-3.36" transform="translate(-47.39 -194.96)"/><path class="cls-4" d="M200.1,614.69a2.29,2.29,0,1,0-.08-.08" transform="translate(-47.39 -194.96)"/><path class="cls-4" d="M193.16,606.16a3.86,3.86,0,1,0-3.87-3.86,3.86,3.86,0,0,0,3.87,3.86" transform="translate(-47.39 -194.96)"/><path class="cls-4" d="M168.76,561.79a5.45,5.45,0,0,0-5.48,5.43h0a5.48,5.48,0,1,0,5.48-5.43h0" transform="translate(-47.39 -194.96)"/><path class="cls-4" d="M159.72,546.14a6.47,6.47,0,1,0,6.47,6.46,6.47,6.47,0,0,0-6.47-6.46" transform="translate(-47.39 -194.96)"/><path class="cls-4" d="M152.18,528.61a6.47,6.47,0,1,0,6.46,6.47,6.47,6.47,0,0,0-6.46-6.47" transform="translate(-47.39 -194.96)"/><path class="cls-4" d="M146.1,510.56a6.47,6.47,0,1,0,6.47,6.47,6.47,6.47,0,0,0-6.47-6.47" transform="translate(-47.39 -194.96)"/><path class="cls-4" d="M142.71,493a5.56,5.56,0,1,0,5.57,5.56,5.56,5.56,0,0,0-5.57-5.56" transform="translate(-47.39 -194.96)"/><path class="cls-4" d="M138.36,473.2a6.63,6.63,0,1,0,.11,0h-.09" transform="translate(-47.39 -194.96)"/><path class="cls-4" d="M136.85,468.29a7.44,7.44,0,1,0-7.42-7.46v0a7.44,7.44,0,0,0,7.42,7.44" transform="translate(-47.39 -194.96)"/><path class="cls-4" d="M134.62,441.78a4.37,4.37,0,1,0,4.38-4.35,4.37,4.37,0,0,0-4.38,4.35v0" transform="translate(-47.39 -194.96)"/><path class="cls-4" d="M136.42,425a4.12,4.12,0,1,0,4.14-4.1h-.05a4.1,4.1,0,0,0-4.09,4.1h0" transform="translate(-47.39 -194.96)"/><path class="cls-4" d="M139.39,408.36A4.32,4.32,0,1,0,143.7,404a4.31,4.31,0,0,0-4.31,4.32" transform="translate(-47.39 -194.96)"/><path class="cls-4" d="M570.8,341.53a5.29,5.29,0,0,0,5.26,5.26,5.22,5.22,0,1,0-5.26-5.26" transform="translate(-47.39 -194.96)"/><path class="cls-4" d="M593.25,328.07a2.53,2.53,0,1,0,2.51-2.5,2.52,2.52,0,0,0-2.51,2.5" transform="translate(-47.39 -194.96)"/><path class="cls-4" d="M226.6,658.52a3.24,3.24,0,1,0,3.25,3.21v0a3.25,3.25,0,0,0-3.25-3.19" transform="translate(-47.39 -194.96)"/><path class="cls-4" d="M214.52,650.39a3.26,3.26,0,1,0,0,.75,3.14,3.14,0,0,0,0-.75" transform="translate(-47.39 -194.96)"/><path class="cls-4" d="M202.17,638a7,7,0,1,1-.09,0v0" transform="translate(-47.39 -194.96)"/><path class="cls-4" d="M188.7,626a3.91,3.91,0,1,0-3.92,3.89h0A3.91,3.91,0,0,0,188.7,626" transform="translate(-47.39 -194.96)"/><path class="cls-4" d="M588.41,318a3.88,3.88,0,1,0,3.88,3.88h0a3.86,3.86,0,0,0-3.84-3.88h0" transform="translate(-47.39 -194.96)"/><path class="cls-4" d="M595.61,338.68a3.86,3.86,0,1,0,3.92-3.79h-.12a3.79,3.79,0,0,0-3.8,3.79h0" transform="translate(-47.39 -194.96)"/><path class="cls-4" d="M195,660.58a4.48,4.48,0,1,0-4.48-4.48v0A4.5,4.5,0,0,0,195,660.6" transform="translate(-47.39 -194.96)"/><path class="cls-4" d="M176.69,643.06a5,5,0,1,0,5,5v0a5,5,0,0,0-5-5h0" transform="translate(-47.39 -194.96)"/><path class="cls-4" d="M601.37,308.71a3.54,3.54,0,1,0,3.6-3.47h-.07a3.49,3.49,0,0,0-3.53,3.45v.05" transform="translate(-47.39 -194.96)"/><path class="cls-4" d="M608.55,323.14a3.54,3.54,0,1,0,3.53-3.54,3.53,3.53,0,0,0-3.53,3.54" transform="translate(-47.39 -194.96)"/><path class="cls-4" d="M619.07,333.16a2.87,2.87,0,0,0,2.84,2.89h0a2.92,2.92,0,0,0,2.88-2.89,2.88,2.88,0,0,0-5.76,0v0" transform="translate(-47.39 -194.96)"/><path class="cls-4" d="M618.35,315.38a2.86,2.86,0,0,0,2.85,2.88h0a2.92,2.92,0,0,0,2.88-2.88,2.88,2.88,0,0,0-2.88-2.85,2.85,2.85,0,0,0-2.88,2.81v0" transform="translate(-47.39 -194.96)"/><path class="cls-4" d="M632.24,305.39a3.28,3.28,0,0,0,0,6.55h0a3.28,3.28,0,1,0,0-6.55h0" transform="translate(-47.39 -194.96)"/><path class="cls-4" d="M632,320.12a3.1,3.1,0,0,0,0,6.2h0a3.1,3.1,0,1,0,0-6.2h0" transform="translate(-47.39 -194.96)"/><path class="cls-4" d="M643,306.82a3.1,3.1,0,0,0,0,6.2h0a3.1,3.1,0,1,0,0-6.2h0" transform="translate(-47.39 -194.96)"/></svg>