<svg id="Layer_1" data-name="Layer 1" xmlns="http://www.w3.org/2000/svg" viewBox="0 0 200 200"><defs><style>.cls-1{fill:#fff;}</style></defs><title>NSIA web UI Design-V3</title><path class="cls-1" d="M193,188.92h-4V71.71a4,4,0,0,0-4-4H160.62a4,4,0,0,0-4,4V188.92H140.42V120.21a4,4,0,0,0-4-4H112.12a4,4,0,0,0-4,4v68.71H91.92V104a4,4,0,0,0-4-4H63.62a4,4,0,0,0-4,4v84.88H43.42V144.46a4,4,0,0,0-4.05-4H15.12a4,4,0,0,0-4,4v44.46H7A4,4,0,0,0,7,197H193a4,4,0,0,0,0-8.08ZM164.67,75.75h16.16V188.92H164.67Zm-48.5,48.5h16.16v64.67H116.17Zm-48.5-16.17H83.83v80.84H67.67ZM35.33,188.92H19.17V148.5H35.33v40.42Z"/><path class="cls-1" d="M27.25,108.08a16.16,16.16,0,0,0,14.14-24L66,64.42a16.15,16.15,0,0,0,23.65-4.74L108.31,65a15.72,15.72,0,0,0-.23,2.68,16.17,16.17,0,0,0,32.34,0,16,16,0,0,0-2.25-8.21l26.37-26.37a16.23,16.23,0,1,0-5.71-5.72L132.46,53.75a16.13,16.13,0,0,0-20.8,3.79L91.91,51.9c0-.13,0-.27,0-.4a16.17,16.17,0,0,0-32.34,0A16,16,0,0,0,61,58.1L35.79,78.2a16.16,16.16,0,1,0-8.54,29.88Zm145.5-97a8.09,8.09,0,0,1,0,16.17,8,8,0,0,1-5.64-2.31l-.07-.07-.07-.06a8.08,8.08,0,0,1,5.78-13.73Zm-48.5,48.5a8.09,8.09,0,1,1-8.08,8.09A8.09,8.09,0,0,1,124.25,59.58ZM75.75,43.42a8.08,8.08,0,1,1-6.21,13.24l-.1-.12,0-.06a8.07,8.07,0,0,1,6.35-13.06ZM27.25,83.83a8.08,8.08,0,0,1,5.68,2.34.6.6,0,0,0,.08.08,8.08,8.08,0,1,1-5.76-2.42Z"/></svg>