<svg id="Layer_1" data-name="Layer 1" xmlns="http://www.w3.org/2000/svg" viewBox="0 0 1080 1662"><defs><style>.cls-1{fill:#ccc;}.cls-2,.cls-6{fill:#272361;}.cls-3{fill:#00a89c;}.cls-4{fill:#fff;}.cls-5{fill:none;stroke:#272361;stroke-miterlimit:10;stroke-width:3.72px;}.cls-6{font-size:62.54px;font-family:Raleway-SemiBold, Raleway;font-weight:700;}.cls-7{letter-spacing:-0.01em;}</style></defs><title>No-image</title><rect class="cls-1" width="1080" height="1662"/><path class="cls-2" d="M766.1,872.24q-12.17,2.25-24.47,3.78a43.31,43.31,0,0,0,1.4,8.23q1.79,6.12,6,8.68t12.24,2.57h8.9V871.44Z"/><path class="cls-2" d="M764.84,865.26l5.34-1V748.54H741.25v120.2Q753.12,867.32,764.84,865.26Z"/><path class="cls-3" d="M821.78,850.68l15-33.36,13.54-30.48,18.12,43c1.84-1,3.66-2.09,5.46-3.19a195.2,195.2,0,0,0,19.07-13l-27.28-65.07h-10l-47.6,106.57q6.9-2.08,13.72-4.45"/><path class="cls-2" d="M915.6,867.44l-19.35-46.1h0L895,818.45l-.35-.83q-4.26,3.48-8.7,6.71-5.82,4.09-11.93,7.8a256.66,256.66,0,0,1-34.62,17.44,334,334,0,0,1-34.26,12L802,868.62h0L790,895.5h11.56l8.5-18.85,5.51-12.25q13.17-4.44,25.91-10a259.69,259.69,0,0,0,30.64-15.86l2.67,6.4h0L879,855h.06l2.51,6.14,3.89,9.21q6.84,14.79,17.23,20.19a54.2,54.2,0,0,0,25.38,5.9,40.88,40.88,0,0,0,10.68-1.11v-5.59Q924.06,888.15,915.6,867.44Z"/><rect class="cls-3" x="445.33" y="668.43" width="486.25" height="1.74"/><path class="cls-2" d="M826.81,705.32h5.31V691.1h4v14.22h.22v3.23h-9.58Zm4.69,10.36a2.12,2.12,0,0,1-1.58.65,2,2,0,0,1-1.51-.65,2.26,2.26,0,0,1-.64-1.62,2.15,2.15,0,0,1,.64-1.55,2,2,0,0,1,1.51-.67,2.12,2.12,0,0,1,1.58.65,2.2,2.2,0,0,1,.62,1.57,2.32,2.32,0,0,1-.62,1.62m5.76,0a2.06,2.06,0,0,1-1.53.65,2.11,2.11,0,0,1-1.57-.65,2.29,2.29,0,0,1-.63-1.62,2.14,2.14,0,0,1,.63-1.55,2.1,2.1,0,0,1,1.57-.67,2.06,2.06,0,0,1,1.53.65,2.18,2.18,0,0,1,.64,1.57,2.26,2.26,0,0,1-.64,1.62"/><polygon class="cls-2" points="842.99 682.38 847.06 682.38 847.06 705.32 850.99 705.32 850.99 708.55 842.99 708.55 842.99 682.38"/><path class="cls-2" d="M850.42,705.32h5.16V691.1h4.08v1.23a39.1,39.1,0,0,1-.42,6.12h0a11.73,11.73,0,0,1,4-5.79,9.36,9.36,0,0,1,5.82-2,7.14,7.14,0,0,1,5.64,2.22,9.08,9.08,0,0,1,2,6.2,9.36,9.36,0,0,1-2.05,6.23h4.67v3.23H850.42Zm15.61,0q6.5,0,6.51-6c0-3.65-1.41-5.48-4.2-5.48-2.21,0-4.17,1.2-5.86,3.59a16.68,16.68,0,0,0-2.86,7.81Z"/><path class="cls-2" d="M878.54,705.32h14.87a23.94,23.94,0,0,0,.24-3.39c0-2.67-.57-4.61-1.71-5.84s-3.22-2-6-2a24.59,24.59,0,0,0-4.2.31v-3.19a31.73,31.73,0,0,1,4.57-.34c4,0,6.94.91,8.78,2.74s2.61,4.42,2.61,8.05a41.3,41.3,0,0,1-.6,6.84H878.54Z"/><rect class="cls-2" x="902.59" y="682.38" width="4.07" height="26.15"/><path class="cls-2" d="M916.28,705.32h11.5a12.36,12.36,0,0,0-2.25-7.46,12.76,12.76,0,0,0-6.84-4.15l1-3.43c4.13,1.19,7.15,3,9.06,5.49s3,6.15,3,10.68v2.12H916.25Z"/><path class="cls-2" d="M456.65,708.55q-9.84,0-9.84-8.61a8.79,8.79,0,0,1,8.28-9.28,8.67,8.67,0,0,1,1.14,0q8.16,0,8.16,8.38v9.5Zm3.78-8.86q0-5.81-4.49-5.81a4.68,4.68,0,0,0-3.71,1.58,5.94,5.94,0,0,0-1.35,4.06q0,5.81,6.23,5.8h3.32Z"/><path class="cls-2" d="M466.19,717.56l.42-3.28a10.36,10.36,0,0,0,3.36.53,4.14,4.14,0,0,0,3.33-1.23c.8-.92,1.2-2.44,1.2-4.57V691.1h4.07v17.59q0,9.31-8.81,9.32a13.54,13.54,0,0,1-3.58-.47"/><rect class="cls-2" x="484.18" y="682.38" width="4.07" height="26.15"/><path class="cls-2" d="M492.73,705.32h11.5a12.35,12.35,0,0,0-2.24-7.46,12.7,12.7,0,0,0-6.85-4.15l1-3.43c4.13,1.19,7.14,3,9.05,5.49s3,6.15,3,10.68v2.12H492.71Z"/><rect class="cls-2" x="512.99" y="682.38" width="4.07" height="26.15"/><path class="cls-2" d="M555.07,708.55V699.3c0-2-.36-3.36-1.08-4.18a4.67,4.67,0,0,0-3.66-1.24,16.74,16.74,0,0,0-2.83.26v14.41h-7.26q-7.05,0-10.29-2.85c-2-1.76-3-4.44-3-8a16.48,16.48,0,0,1,1.07-6l4.38-.74a14.39,14.39,0,0,0-1.37,6.26c0,2.84.67,4.88,2,6.11s4,2,7.6,2h2.89v-14a34.07,34.07,0,0,1,7-.71q4.56,0,6.59,2.17c1.23,1.3,1.83,3.29,1.83,6v6.51h7.31V682.38h4.09v22.94h3.9v3.23Zm-16.93,7.13a2.12,2.12,0,0,1-1.58.65,2,2,0,0,1-1.52-.65,2.25,2.25,0,0,1-.63-1.62,2.2,2.2,0,0,1,.63-1.55,2,2,0,0,1,1.52-.67,2.12,2.12,0,0,1,1.58.65,2.23,2.23,0,0,1,.61,1.57,2.26,2.26,0,0,1-.61,1.62m5.76,0a2.16,2.16,0,0,1-3.07,0l0,0a2.26,2.26,0,0,1-.64-1.62,2.19,2.19,0,0,1,3.69-1.6l0,0a2.21,2.21,0,0,1,.63,1.57,2.26,2.26,0,0,1-.63,1.62"/><path class="cls-2" d="M573.93,708.55v-3.23h2.56a9.47,9.47,0,0,1,2.12.21q-2.46-1.63-2.45-5.81a8.8,8.8,0,0,1,2.37-6.32,9.21,9.21,0,0,1,7.05-2.74q8.16,0,8.16,8.39v9.49Zm15.83-8.86q0-5.81-4.48-5.81a4.66,4.66,0,0,0-3.7,1.58,5.94,5.94,0,0,0-1.35,4.06q0,5.81,6.23,5.8h3.3Z"/><path class="cls-2" d="M603.37,717.36l.28-3.33a26.76,26.76,0,0,0,5.84.67q6.79,0,6.8-5.41v-.74H613q-9.84,0-9.84-8.65a9.11,9.11,0,0,1,2.32-6.45,9.43,9.43,0,0,1,7.21-2.74,21.05,21.05,0,0,1,7.61,1.3v13.36h4v3.22H620.3V709a8,8,0,0,1-2.54,6.19q-2.93,2.74-8.61,2.74a30.55,30.55,0,0,1-5.73-.53m12.92-22.69a9.19,9.19,0,0,0-4-.78,4.66,4.66,0,0,0-3.72,1.56,5.92,5.92,0,0,0-1.34,4q0,5.83,6.23,5.83h2.87Z"/><path class="cls-2" d="M623.64,705.32H629V691.1H633v17.45h-9.39Zm2.31-18a2.16,2.16,0,0,1-.64-1.6,2.12,2.12,0,0,1,.64-1.56,2,2,0,0,1,1.51-.65,2.08,2.08,0,0,1,1.57.65,2.15,2.15,0,0,1,.63,1.56,2.21,2.21,0,0,1-.63,1.58,2.11,2.11,0,0,1-1.57.65,2,2,0,0,1-1.51-.63m5.75,0a2.23,2.23,0,0,1-.63-1.6,2.18,2.18,0,0,1,3.68-1.6l0,0a2.21,2.21,0,1,1-3.1,3.14"/><polygon class="cls-2" points="638.7 682.38 642.77 682.38 642.77 705.32 646.7 705.32 646.7 708.55 638.7 708.55 638.7 682.38"/><path class="cls-2" d="M646.15,708.55v-3.23h2.55a9.36,9.36,0,0,1,2.12.21c-1.62-1.09-2.44-3-2.44-5.81a8.8,8.8,0,0,1,2.37-6.32,9.21,9.21,0,0,1,7-2.74q8.18,0,8.17,8.39v9.49ZM662,699.69c0-3.87-1.5-5.81-4.48-5.81a4.71,4.71,0,0,0-3.72,1.58,6,6,0,0,0-1.33,4.06q0,5.81,6.23,5.8H662Z"/><path class="cls-2" d="M670.45,717.36l.28-3.33a26.78,26.78,0,0,0,5.85.67q6.79,0,6.79-5.41v-.74H680q-9.84,0-9.84-8.65a9.16,9.16,0,0,1,2.32-6.45,9.44,9.44,0,0,1,7.21-2.74,21.05,21.05,0,0,1,7.61,1.3v13.36h3.93v3.22h-3.93V709a8,8,0,0,1-2.54,6.19c-1.95,1.83-4.82,2.74-8.63,2.74a30.6,30.6,0,0,1-5.72-.53m12.92-22.69a9.19,9.19,0,0,0-4-.78,4.66,4.66,0,0,0-3.71,1.56,5.92,5.92,0,0,0-1.35,4q0,5.83,6.23,5.83h2.87Z"/><polygon class="cls-2" points="690.73 705.32 695.65 705.32 695.65 682.38 699.74 682.38 699.74 705.32 703.63 705.32 703.63 708.55 690.73 708.55 690.73 705.32"/><path class="cls-2" d="M703.06,705.32h1.27a25.81,25.81,0,0,0,9.49-1.56q-5.43-5.09-8.42-6l.32-2.86q5.79-4.3,10.72-4.29a8.22,8.22,0,0,1,5.71,1.77,5.27,5.27,0,0,1,1.76,4.11c0,2.77-1.39,5.26-4.15,7.46a9,9,0,0,0,4.79,1.38h2.36v3.23H724a12.79,12.79,0,0,1-7.58-2.56A28.14,28.14,0,0,1,704,708.55h-1Zm14-3.39a6.11,6.11,0,0,0,2.82-4.92,3.18,3.18,0,0,0-.91-2.41,4,4,0,0,0-2.92-1c-1.83,0-4,.87-6.5,2.62q1.65.66,7.53,5.71"/><path class="cls-2" d="M726.35,708.55v-3.23h2.55a9.36,9.36,0,0,1,2.12.21c-1.62-1.09-2.44-3-2.44-5.81A8.8,8.8,0,0,1,731,693.4a9.21,9.21,0,0,1,7-2.74q8.18,0,8.17,8.39v9.49Zm15.84-8.86c0-3.87-1.5-5.81-4.48-5.81a4.69,4.69,0,0,0-3.71,1.58,5.88,5.88,0,0,0-1.34,4.06q0,5.81,6.23,5.8h3.3Z"/><path class="cls-2" d="M755.29,717.36l.27-3.33a26.78,26.78,0,0,0,5.85.67q6.8,0,6.79-5.41v-.74h-3.28q-9.84,0-9.84-8.65a9.11,9.11,0,0,1,2.32-6.45,9.43,9.43,0,0,1,7.21-2.74,21.05,21.05,0,0,1,7.61,1.3v17a8,8,0,0,1-2.54,6.19c-1.94,1.83-4.82,2.74-8.62,2.74a30.62,30.62,0,0,1-5.73-.53m12.92-22.69a9.19,9.19,0,0,0-4-.78,4.71,4.71,0,0,0-3.72,1.56,5.92,5.92,0,0,0-1.34,4q0,5.83,6.24,5.83h2.86Z"/><rect class="cls-2" x="777.84" y="682.38" width="4.07" height="26.15"/><path class="cls-2" d="M805.11,708.55q-7,0-10.28-2.85c-2-1.76-3-4.44-3-8a16.07,16.07,0,0,1,1.07-6l4.38-.74a14.39,14.39,0,0,0-1.37,6.26q0,4.26,2.07,6.11c1.48,1.36,4,2,7.58,2h2.9v-14a33.4,33.4,0,0,1,7-.71c3,0,5.24.72,6.58,2.17s1.82,3.29,1.82,6v6.51h3.45v3.22h-7.43V699.3a6.42,6.42,0,0,0-1.07-4.18,4.66,4.66,0,0,0-3.65-1.23,16.58,16.58,0,0,0-2.81.25v14.41Zm-.37,9.92a2.13,2.13,0,0,1,.66,1.58,2.05,2.05,0,0,1-.66,1.51,2.35,2.35,0,0,1-1.61.63,2.23,2.23,0,0,1-1.56-.63,2,2,0,0,1-.67-1.51,2.12,2.12,0,0,1,.65-1.58,2.38,2.38,0,0,1,3.19,0m0-5.78a2.18,2.18,0,0,1,0,3.08l0,0a2.28,2.28,0,0,1-1.61.63,2.19,2.19,0,0,1-1.6-3.71l0,0a2.17,2.17,0,0,1,1.58-.64,2.25,2.25,0,0,1,1.61.64"/><path class="cls-2" d="M637.05,822.47l27.39,16.47q11.79,7.37,17.36,13.59a22,22,0,0,1,5.56,15.12,25.65,25.65,0,0,1-.34,4.19h.51q12.93,0,25.85-.69a41.62,41.62,0,0,0,2-13.34,32.14,32.14,0,0,0-6.8-20.59q-6.79-8.57-22.38-17.65l-27.38-16.25q-12.24-7.12-17.7-12.81a20,20,0,0,1-5.46-14.35q0-10,7-15.82t19-5.79q17.37,0,27.57,10t14,32.73h6.22V771.25q0-8-7.34-14.14t-18.93-9.34a88.58,88.58,0,0,0-24-3.23q-22.93,0-36.41,10.23t-13.47,27.84a38,38,0,0,0,6.35,21.82Q622.11,813.79,637.05,822.47Z"/><path class="cls-2" d="M610.25,865.25c3.56.64,7.2,1.22,10.81,1.78a77.38,77.38,0,0,1-5.61-20.46h-6.23v18.54Z"/><path class="cls-2" d="M687.54,879.36h-3.47a18,18,0,0,1-4.27,4.36q-7.56,5.58-20.46,5.57-19.15,0-29.84-10a33.44,33.44,0,0,1-3.79-4.27q-8.25-1.17-16.47-2.66v.27q0,8,7.35,14.13t18.92,9.36a89.39,89.39,0,0,0,24,3.23q26.69,0,41.3-11a36.75,36.75,0,0,0,8.9-9.5Q698.69,879.32,687.54,879.36Z"/><path class="cls-2" d="M522.71,838.24q6.45,3.06,13,5.79a344.14,344.14,0,0,0,46.51,15.28V748.54H571.15V851l-76.6-89.06a31.8,31.8,0,0,0-13.25-10.13q-7.91-3.21-20.37-3.23H445.34v6.68h1.11q10.92,0,15.48,5.34t4.56,14.7V895.5h11.14V785.28Z"/><path class="cls-2" d="M570.62,863c-6.31-1.88-12.58-3.92-18.77-6.17s-12.31-4.74-18.35-7.4l-2-.89,40.56,47.64h10.19V866.25Q576.41,864.72,570.62,863Z"/><path class="cls-3" d="M823,646.85v-3.56h2.85a9.21,9.21,0,0,1,2.34.24c-1.78-1.22-2.67-3.35-2.67-6.42a9.73,9.73,0,0,1,2.67-7,10.18,10.18,0,0,1,7.77-3q9,0,9,9.25v10.48Zm17.46-9.79q0-6.37-4.93-6.39a5.16,5.16,0,0,0-4.1,1.74,6.55,6.55,0,0,0-1.48,4.45q0,6.39,6.88,6.39h3.63Z"/><path class="cls-3" d="M865.13,646.85q-10.86,0-10.85-9.5a9.71,9.71,0,0,1,9.14-10.24,10.44,10.44,0,0,1,1.25,0q9,0,9,9.25v10.48Zm4.19-9.78c0-4.25-1.65-6.39-5-6.39a5.19,5.19,0,0,0-4.12,1.73,6.55,6.55,0,0,0-1.46,4.45q0,6.39,6.87,6.39h3.66Z"/><path class="cls-3" d="M875.6,656.79l.46-3.61a11.76,11.76,0,0,0,3.72.58,4.57,4.57,0,0,0,3.67-1.36c.89-1,1.32-2.7,1.32-5V627.6h4.5V647q0,10.28-9.73,10.28a14.56,14.56,0,0,1-3.94-.53"/><rect class="cls-3" x="895.5" y="617.99" width="4.5" height="28.85"/><path class="cls-3" d="M904.94,643.29h12.69c-.09-3.45-.89-6.23-2.48-8.24a14.77,14.77,0,0,0-7.55-4.58l1.14-3.77q6.82,2,10,6Q922,637,922,644.51v2.34h-17.1Z"/><rect class="cls-3" x="927.28" y="617.99" width="4.5" height="28.85"/><path class="cls-3" d="M461.09,646.85q-7.75,0-11.35-3.14-3.28-2.93-3.3-8.9a17.63,17.63,0,0,1,1.19-6.62l4.83-.83a15.91,15.91,0,0,0-1.52,6.92c0,3.13.76,5.38,2.28,6.73s4.43,2.24,8.37,2.24h6.34V627.6h4.45v19.25Zm-5.43-23.43a2.5,2.5,0,0,1,0-3.48,2.26,2.26,0,0,1,1.68-.72,2.33,2.33,0,0,1,1.72.72,2.49,2.49,0,0,1,0,3.46,2.25,2.25,0,0,1-1.72.72,2.21,2.21,0,0,1-1.68-.7m6.33,0a2.36,2.36,0,0,1-.69-1.78,2.41,2.41,0,0,1,.69-1.72,2.33,2.33,0,0,1,1.72-.72,2.25,2.25,0,0,1,1.72.72,2.49,2.49,0,0,1,0,3.46,2.43,2.43,0,0,1-3.44,0"/><polygon class="cls-3" points="478.66 617.99 483.16 617.99 483.16 643.29 487.49 643.29 487.49 646.85 478.66 646.85 478.66 617.99"/><path class="cls-3" d="M486.88,646.85v-3.56h2.81a9.18,9.18,0,0,1,2.33.24c-1.78-1.22-2.67-3.35-2.67-6.42a9.71,9.71,0,0,1,2.61-7,10.23,10.23,0,0,1,7.78-3q9,0,9,9.25v10.48Zm17.45-9.79q0-6.37-4.93-6.39a5.16,5.16,0,0,0-4.09,1.73,6.55,6.55,0,0,0-1.48,4.45q0,6.39,6.87,6.4h3.63Z"/><path class="cls-3" d="M513.7,656.58l.3-3.68a29.28,29.28,0,0,0,6.46.73q7.49,0,7.49-6v-.82h-3.67q-10.86,0-10.86-9.54A10.1,10.1,0,0,1,516,630.2c1.89-2.06,4.54-3.08,7.95-3.08a23.3,23.3,0,0,1,8.39,1.44v14.73h4.34v3.56h-4.34v.5a8.86,8.86,0,0,1-2.79,6.83q-3.22,3-9.51,3a36.15,36.15,0,0,1-6.32-.58m14.23-25.06a10.33,10.33,0,0,0-4.45-.89,5.22,5.22,0,0,0-4.1,1.78,6.59,6.59,0,0,0-1.47,4.45q0,6.43,6.87,6.44h3.15Z"/><polygon class="cls-3" points="536.05 643.29 541.49 643.29 541.49 617.99 546 617.99 546 643.29 550.3 643.29 550.3 646.85 536.05 646.85 536.05 643.29"/><path class="cls-3" d="M549.66,643.29h1.4a28.48,28.48,0,0,0,10.46-1.72q-6-5.61-9.29-6.64l.36-3.16q6.4-4.69,11.81-4.69,4.11,0,6.28,1.95a5.77,5.77,0,0,1,1.94,4.54q0,4.57-4.57,8.24a10,10,0,0,0,5.28,1.52H576v3.55h-3.19A14,14,0,0,1,564.4,644a31,31,0,0,1-13.72,2.82h-1.06Zm15.43-3.76c2.08-1.57,3.11-3.38,3.11-5.44a3.46,3.46,0,0,0-1-2.66,4.44,4.44,0,0,0-3.21-1.11q-3,0-7.18,2.9,1.85.72,8.32,6.29"/><path class="cls-3" d="M575.36,646.85v-3.56h2.81a9.17,9.17,0,0,1,2.34.24c-1.78-1.22-2.67-3.35-2.67-6.42a9.7,9.7,0,0,1,2.57-7,10.21,10.21,0,0,1,7.77-3q9,0,9,9.25v10.48Zm17.46-9.79q0-6.37-4.93-6.39a5.19,5.19,0,0,0-4.1,1.73,6.54,6.54,0,0,0-1.47,4.45q0,6.39,6.86,6.4h3.68Z"/><path class="cls-3" d="M606.89,656.58l.3-3.68a29.19,29.19,0,0,0,6.45.73q7.5,0,7.5-6v-.82h-3.68q-10.86,0-10.85-9.54a10.06,10.06,0,0,1,2.56-7.11c1.9-2.06,4.55-3.08,8-3.08a23.39,23.39,0,0,1,8.4,1.44v18.79a8.87,8.87,0,0,1-2.81,6.83q-3.21,3-9.5,3a36.24,36.24,0,0,1-6.32-.58m14.25-25.06a10.33,10.33,0,0,0-4.45-.89,5.24,5.24,0,0,0-4.11,1.78,6.54,6.54,0,0,0-1.47,4.45q0,6.43,6.87,6.44h3.16Z"/><path class="cls-3" d="M645.94,646.85q-10.86,0-10.85-9.54a10.1,10.1,0,0,1,2.55-7.11c1.9-2.06,4.55-3.08,8-3.08a23.12,23.12,0,0,1,8.39,1.44v14.73h4.29v3.56Zm3.67-15.33a10.33,10.33,0,0,0-4.45-.89,5.19,5.19,0,0,0-4.1,1.78,6.55,6.55,0,0,0-1.48,4.45q0,6.43,6.87,6.44h3.16Z"/><path class="cls-3" d="M657.67,643.29h5.85V627.6H668v15.69h6v3.56H657.67Zm5.17,11.43a2.32,2.32,0,0,1-1.77.72,2.3,2.3,0,0,1-1.69-.72,2.55,2.55,0,0,1-.69-1.78,2.41,2.41,0,0,1,.69-1.72,2.25,2.25,0,0,1,1.69-.74,2.29,2.29,0,0,1,1.77.72,2.46,2.46,0,0,1,.68,1.78,2.54,2.54,0,0,1-.68,1.77m6.35,0a2.25,2.25,0,0,1-1.69.73,2.28,2.28,0,0,1-1.72-.73,2.44,2.44,0,0,1-.7-1.77,2.41,2.41,0,0,1,4-1.8l.08.08a2.41,2.41,0,0,1,.71,1.78,2.53,2.53,0,0,1-.71,1.78"/><polygon class="cls-3" points="673.41 643.29 679.26 643.29 679.26 627.6 683.76 627.6 683.76 646.85 673.41 646.85 673.41 643.29"/><polygon class="cls-3" points="690.02 617.99 694.52 617.99 694.52 643.29 698.85 643.29 698.85 646.85 690.02 646.85 690.02 617.99"/><path class="cls-3" d="M698.23,643.29h5.7V627.6h4.5V629a44.78,44.78,0,0,1-.47,6.75h0a13,13,0,0,1,4.45-6.39,10.36,10.36,0,0,1,6.42-2.2,7.84,7.84,0,0,1,6.22,2.46,10,10,0,0,1,2.16,6.84,10.19,10.19,0,0,1-2.26,6.87h5.16v3.56H698.23Zm17.23,0q7.15,0,7.17-6.55,0-6-4.63-6c-2.44,0-4.59,1.33-6.46,4a18.49,18.49,0,0,0-3.16,8.62Z"/><path class="cls-3" d="M729.25,643.29h16.4a24.66,24.66,0,0,0,.26-3.74c0-3-.62-5.11-1.88-6.43S740.48,631,737.4,631a28.91,28.91,0,0,0-4.64.35v-3.56a36.9,36.9,0,0,1,5-.38q6.68,0,9.7,3c1.92,1.91,2.88,4.88,2.88,8.89a45.34,45.34,0,0,1-.66,7.54H729.26Z"/><rect class="cls-3" x="755.79" y="617.99" width="4.5" height="28.85"/><path class="cls-3" d="M785.46,646.85q-7.77,0-11.35-3.14-3.29-2.93-3.3-8.9a17.82,17.82,0,0,1,1.18-6.62l4.83-.83a15.9,15.9,0,0,0-1.51,6.92c0,3.13.76,5.38,2.28,6.73s4.42,2.24,8.37,2.24h3.2V627.9a37.52,37.52,0,0,1,7.77-.78c3.35,0,5.76.8,7.25,2.4,1.36,1.43,2,3.64,2,6.59v7.18H810v3.56h-8.14V636.66c0-2.17-.4-3.71-1.19-4.62s-2.14-1.36-4-1.36a17.86,17.86,0,0,0-3.1.27v15.9Z"/><polygon class="cls-3" points="809.42 643.29 814.85 643.29 814.85 617.99 819.37 617.99 819.37 643.29 823.67 643.29 823.67 646.85 809.42 646.85 809.42 643.29"/><path class="cls-3" d="M671.06,621.22a14.4,14.4,0,0,1,2.62.21,1.77,1.77,0,0,1-1-1.78,3.77,3.77,0,0,1,1.28-2.93,6.12,6.12,0,0,1,4.26-1.39c.43,0,1.18,0,2.28.16l-.4,2.67a15.57,15.57,0,0,0-2-.16c-1.42,0-2.13.5-2.13,1.52s1,1.71,3,1.71h2.24v2.67H671.06Z"/><path class="cls-3" d="M859.16,621.22a14.4,14.4,0,0,1,2.62.21,1.77,1.77,0,0,1-1-1.78,3.77,3.77,0,0,1,1.28-2.93,6.12,6.12,0,0,1,4.26-1.39c.43,0,1.18,0,2.28.16l-.4,2.67a15.57,15.57,0,0,0-2-.16c-1.42,0-2.13.5-2.13,1.52s1,1.71,3,1.71h2.24v2.67H859.16Z"/><rect class="cls-3" x="141.24" y="616.57" width="278.74" height="278.74"/><polygon class="cls-4" points="346.74 805.27 312.92 796.25 277.95 846.99 224.96 828.95 170.65 851.82 170.65 865.66 389.59 865.66 389.59 742.49 346.74 805.27"/><path class="cls-4" d="M274.63,718.83a2.45,2.45,0,1,0,2.45,2.46,2.45,2.45,0,0,0-2.45-2.46h0"/><path class="cls-4" d="M283.4,719a2.29,2.29,0,0,0,0,4.58,2.29,2.29,0,0,0,0-4.58h0"/><path class="cls-4" d="M278,728.16a2.07,2.07,0,1,0,2.07-2.06,2.06,2.06,0,0,0-2.07,2.06h0"/><path class="cls-4" d="M270.25,729.84a2.43,2.43,0,1,0,2.44-2.43h0a2.42,2.42,0,0,0-2.42,2.43h0"/><path class="cls-4" d="M264.3,725.07a2.44,2.44,0,1,0,2.45-2.42h0a2.43,2.43,0,0,0-2.43,2.42"/><path class="cls-4" d="M268.23,717.49a1.5,1.5,0,0,0-1.5-1.5,1.51,1.51,0,1,0,1.5,1.51h0"/><path class="cls-4" d="M272.67,714.15a1.42,1.42,0,1,0,0-2.83,1.43,1.43,0,0,0-1.43,1.41v0a1.4,1.4,0,0,0,1.39,1.4h0"/><path class="cls-4" d="M277.65,714.44a2.46,2.46,0,1,0,2.48-2.44h0a2.43,2.43,0,0,0-2.45,2.42v0"/><path class="cls-4" d="M289.67,721.31a2.51,2.51,0,1,0,2.51-2.52,2.51,2.51,0,0,0-2.51,2.52v0"/><path class="cls-4" d="M290.43,726.85a2,2,0,1,0,2,2,2.06,2.06,0,0,0-2-2"/><path class="cls-4" d="M285.58,733.16a1.86,1.86,0,1,0,1.83,1.87h0a1.84,1.84,0,0,0-1.83-1.86h0"/><path class="cls-4" d="M276.69,738.44a1.85,1.85,0,1,0,1.84-1.85,1.84,1.84,0,0,0-1.84,1.85v0"/><path class="cls-4" d="M268.56,738.44a2.17,2.17,0,1,0,2.17-2.18,2.17,2.17,0,0,0-2.17,2.18"/><path class="cls-4" d="M262.43,735a1.27,1.27,0,1,0,1.27-1.27h0a1.26,1.26,0,0,0-1.27,1.25v0"/><path class="cls-4" d="M258.82,727.59a1.32,1.32,0,1,0,1.32,1.32h0a1.32,1.32,0,0,0-1.32-1.32"/><path class="cls-4" d="M255.76,721.31a1.34,1.34,0,1,0,1.33-1.34,1.34,1.34,0,0,0-1.33,1.34"/><path class="cls-4" d="M257.49,713.67a1.34,1.34,0,1,0,1.35-1.32h0a1.36,1.36,0,0,0-1.33,1.32"/><path class="cls-4" d="M262.31,707.57a1.39,1.39,0,1,0,1.41-1.37h0a1.37,1.37,0,0,0-1.39,1.35v0"/><path class="cls-4" d="M270.73,705.61a1.42,1.42,0,0,0,1.41-1.42,1.41,1.41,0,0,0-2.82,0,1.42,1.42,0,0,0,1.41,1.42"/><path class="cls-4" d="M277.39,704.19a1.14,1.14,0,0,0,1.14,1.16,1.16,1.16,0,0,0,1.16-1.14,1.15,1.15,0,0,0-1.14-1.16h0a1.15,1.15,0,0,0-1.14,1.14"/><path class="cls-4" d="M283.12,707.57a2.45,2.45,0,1,0,2.45-2.45,2.45,2.45,0,0,0-2.45,2.45"/><path class="cls-4" d="M290.43,711.38a2.3,2.3,0,1,0,2.3,2.3h0a2.31,2.31,0,0,0-2.3-2.29"/><path class="cls-4" d="M300.94,719.35a1.95,1.95,0,0,0,0,3.89h0a1.95,1.95,0,0,0,0-3.89"/><path class="cls-4" d="M301.24,729.05a1.46,1.46,0,1,0-1.46,1.47h0a1.45,1.45,0,0,0,1.46-1.45v0"/><path class="cls-4" d="M297.64,736.12a1.26,1.26,0,0,0-1.37-1.16,1.17,1.17,0,1,0,1.37,1.16"/><path class="cls-4" d="M289.77,741.87A1.27,1.27,0,1,0,291,740.6h0a1.27,1.27,0,0,0-1.27,1.25v0"/><path class="cls-4" d="M284.24,748a2.18,2.18,0,1,0-2.17-2.19v0a2.18,2.18,0,0,0,2.17,2.16"/><path class="cls-4" d="M274.44,747.55a2.17,2.17,0,1,0,2.16-2.19,2.16,2.16,0,0,0-2.16,2.19h0"/><path class="cls-4" d="M268.79,749a2,2,0,0,0,0-4,2,2,0,1,0,0,4h0"/><path class="cls-4" d="M259.14,744.08a2.34,2.34,0,1,0,2.36-2.32h0a2.34,2.34,0,0,0-2.32,2.32"/><path class="cls-4" d="M254.2,739.2a1.12,1.12,0,0,0,1.1,1.14h0a1.15,1.15,0,0,0,1.15-1.13h0a1.15,1.15,0,0,0-2.29,0h0"/><path class="cls-4" d="M249.55,732.72a1.36,1.36,0,0,0,1.35,1.37h0a1.38,1.38,0,1,0,0-2.76,1.37,1.37,0,0,0-1.39,1.37v0"/><path class="cls-4" d="M247.29,725.21a1.32,1.32,0,1,0,1.34-1.3h0a1.31,1.31,0,0,0-1.32,1.29h0"/><path class="cls-4" d="M246.67,717.38a2,2,0,1,0,0-.26,1.13,1.13,0,0,0,0,.26"/><path class="cls-4" d="M250.92,711.28a1.41,1.41,0,0,0,1.41-1.39h0a1.41,1.41,0,1,0-1.43,1.39h0"/><path class="cls-4" d="M253.8,703.39a1.58,1.58,0,0,0,3.16.24,1,1,0,0,0,0-.24,1.58,1.58,0,0,0-3.16,0"/><path class="cls-4" d="M260.29,698.5a1.19,1.19,0,1,0,2.38,0,1.18,1.18,0,0,0-1.18-1.2h0a1.19,1.19,0,0,0-1.17,1.18"/><path class="cls-4" d="M267.53,695.66a1.25,1.25,0,1,0,1.26-1.25,1.27,1.27,0,0,0-1.26,1.25"/><path class="cls-4" d="M275.34,695.06a1.27,1.27,0,1,0,1.26-1.27h0a1.26,1.26,0,0,0-1.26,1.27"/><path class="cls-4" d="M283.21,696.78a1.06,1.06,0,1,0,1.06-1.06,1.06,1.06,0,0,0-1.06,1.06"/><path class="cls-4" d="M290,700.71a1.07,1.07,0,1,0,1.07-1.06,1.06,1.06,0,0,0-1.07,1.06"/><path class="cls-4" d="M296.38,704a2.51,2.51,0,1,0,2.49,2.53v0a2.51,2.51,0,0,0-2.49-2.5"/><path class="cls-4" d="M299.78,711.6a2,2,0,1,0,2,2v0a2,2,0,0,0-2-1.93"/><path class="cls-4" d="M309.7,719.53a1.78,1.78,0,1,0,1.78,1.78,1.78,1.78,0,0,0-1.78-1.78"/><path class="cls-4" d="M308.85,730.61a1.51,1.51,0,1,0-1.52-1.52,1.51,1.51,0,0,0,1.52,1.52h0"/><path class="cls-4" d="M304.85,736.51a1.39,1.39,0,1,0,1.39-1.39h0a1.4,1.4,0,0,0-1.39,1.39"/><path class="cls-4" d="M302.06,741.16a2,2,0,1,0,.27,0h-.27"/><path class="cls-4" d="M296.52,750.33a1.61,1.61,0,1,0,0-3.21,1.61,1.61,0,0,0,0,3.21"/><path class="cls-4" d="M289.86,754.94a2,2,0,1,0-.26,0h.26"/><path class="cls-4" d="M280.42,755.51a2,2,0,1,0,2-2h0a2,2,0,0,0-2,2"/><path class="cls-4" d="M272.57,756.4a2.08,2.08,0,1,0,2.08-2.07h0a2,2,0,0,0-2.06,2v0"/><path class="cls-4" d="M266.82,757.54a2,2,0,1,0-2-2h0a2,2,0,0,0,2,2h0"/><path class="cls-4" d="M259.41,754.69a1.79,1.79,0,1,0-1.78-1.79,1.78,1.78,0,0,0,1.78,1.79"/><path class="cls-4" d="M252.75,746.91a1.78,1.78,0,1,0,1.79,1.78,1.78,1.78,0,0,0-1.79-1.78"/><path class="cls-4" d="M246.06,743.17a1.14,1.14,0,0,0,2.28,0,1.12,1.12,0,0,0-1.13-1.14h0a1.14,1.14,0,0,0-1.14,1.14"/><path class="cls-4" d="M244.4,736.51a1.39,1.39,0,0,0-2.77-.22v.22a1.39,1.39,0,0,0,2.77.23.89.89,0,0,0,0-.23"/><path class="cls-4" d="M240.43,727.13a2,2,0,1,0,2,2h0a2,2,0,0,0-2-2"/><path class="cls-4" d="M239.54,719.33a2,2,0,1,0,2,2v0a2,2,0,0,0-2-2"/><path class="cls-4" d="M238.46,713.49a2,2,0,1,0,2-2h0a2,2,0,0,0-2,2"/><path class="cls-4" d="M241.6,706.07a1.36,1.36,0,1,0,1.41-1.42,1.41,1.41,0,0,0-1.41,1.42"/><path class="cls-4" d="M247.2,697.84a1.59,1.59,0,1,0,1.57,1.6h0a1.58,1.58,0,0,0-1.57-1.59"/><path class="cls-4" d="M251.42,693.88a1.34,1.34,0,1,0,1.33-1.34,1.34,1.34,0,0,0-1.33,1.34"/><path class="cls-4" d="M258,689.68a1.41,1.41,0,1,0,1.41-1.41,1.41,1.41,0,0,0-1.41,1.41v0"/><path class="cls-4" d="M265.59,687.08a1.24,1.24,0,1,0,1.25-1.22h0a1.23,1.23,0,0,0-1.23,1.23"/><path class="cls-4" d="M274.63,683.92a2.31,2.31,0,1,0,.07,0h0"/><path class="cls-4" d="M282.43,684.84a2.25,2.25,0,1,0,2.26,2.24,2.26,2.26,0,0,0-2.26-2.24h0"/><path class="cls-4" d="M289.86,687.44a2.24,2.24,0,1,0,2.23,2.24,2.23,2.23,0,0,0-2.23-2.24"/><path class="cls-4" d="M296.52,691.68a2.19,2.19,0,1,0,2.18,2.21v0a2.19,2.19,0,0,0-2.18-2.18"/><path class="cls-4" d="M302.06,697.35a2.08,2.08,0,1,0,2.08,2.08,2.08,2.08,0,0,0-2.08-2.08h0"/><path class="cls-4" d="M306.24,707.82a1.79,1.79,0,1,0-1.78-1.78,1.79,1.79,0,0,0,1.78,1.78"/><path class="cls-4" d="M307.06,713.49a1.79,1.79,0,1,0,1.79-1.79,1.79,1.79,0,0,0-1.79,1.79"/><path class="cls-4" d="M318.49,719.55a1.78,1.78,0,1,0,1.78,1.78,1.77,1.77,0,0,0-1.78-1.78"/><path class="cls-4" d="M317.07,729.13a.7.7,0,0,0,.66.71h0a.72.72,0,0,0,0-1.43.7.7,0,0,0-.68.7v0"/><path class="cls-4" d="M324.5,729.13a.69.69,0,0,0,.65.71h0a.72.72,0,1,0,0-1.43.68.68,0,0,0-.67.7v0"/><path class="cls-4" d="M314.4,736.71a1.28,1.28,0,0,0,2.55,0,1.28,1.28,0,1,0-2.55,0h0"/><path class="cls-4" d="M311,743.79a1.25,1.25,0,1,0,1.25-1.25h0a1.26,1.26,0,0,0-1.25,1.25"/><path class="cls-4" d="M305.69,750.15a2,2,0,0,0,1.95,2h0a2,2,0,1,0,.27-3.93,1.22,1.22,0,0,0-.27,0,2,2,0,0,0-2,1.94v0"/><path class="cls-4" d="M303.94,755.58a2,2,0,1,0-2,2,2,2,0,0,0,2-2h0"/><path class="cls-4" d="M293.5,759.93a1.93,1.93,0,1,0,1.92-1.93h0a1.9,1.9,0,0,0-1.91,1.91v0"/><path class="cls-4" d="M286.08,763a2.12,2.12,0,1,0,2.13-2.1h0a2.11,2.11,0,0,0-2.1,2.1"/><path class="cls-4" d="M282.57,764.75a2.06,2.06,0,1,0-2.06,2.06,2.06,2.06,0,0,0,2.06-2.06h0"/><path class="cls-4" d="M274.85,765.1a2.19,2.19,0,1,0-2.2,2.2,2.19,2.19,0,0,0,2.2-2.2v0"/><path class="cls-4" d="M262.71,764.05a2.19,2.19,0,1,0,2.19-2.19,2.19,2.19,0,0,0-2.19,2.19h0"/><path class="cls-4" d="M255,761.61a2.38,2.38,0,1,0,2.39-2.37,2.39,2.39,0,0,0-2.39,2.37v0"/><path class="cls-4" d="M249.15,757.89a1.32,1.32,0,0,0,1.32,1.32,1.34,1.34,0,1,0-1.32-1.35"/><path class="cls-4" d="M243,753a1.34,1.34,0,1,0,1.33-1.34A1.34,1.34,0,0,0,243,753"/><path class="cls-4" d="M239.15,745.89a1.19,1.19,0,1,0,1.18,1.19,1.18,1.18,0,0,0-1.18-1.19"/><path class="cls-4" d="M235.08,739.09a1.24,1.24,0,1,0,1.24,1.25,1.23,1.23,0,0,0-1.23-1.25h0"/><path class="cls-4" d="M231.11,733a1.24,1.24,0,1,0,1.24-1.23,1.21,1.21,0,0,0-1.24,1.19v0"/><path class="cls-4" d="M232.53,725.24a1.59,1.59,0,1,0-1.6,1.57h0a1.57,1.57,0,0,0,1.58-1.57h0"/><path class="cls-4" d="M231,719a1.6,1.6,0,1,0-1.59-1.61h0A1.6,1.6,0,0,0,231,719"/><path class="cls-4" d="M231,709.64a1.31,1.31,0,0,0,1.31,1.3,1.31,1.31,0,1,0,0-2.62,1.29,1.29,0,0,0-1.31,1.3v0"/><path class="cls-4" d="M235.08,703.53a1.27,1.27,0,1,0-1.26-1.26h0a1.24,1.24,0,0,0,1.24,1.26h0"/><path class="cls-4" d="M237.69,695.5a1.46,1.46,0,1,0,1.46-1.44,1.45,1.45,0,0,0-1.46,1.44v0"/><path class="cls-4" d="M242.82,689.59a1.51,1.51,0,1,0,1.49-1.51,1.51,1.51,0,0,0-1.49,1.51h0"/><path class="cls-4" d="M250.47,683.9a.78.78,0,0,0-.7.87.71.71,0,1,0,.7-.87"/><path class="cls-4" d="M257.36,679.09a1.89,1.89,0,0,0-1.87,1.88,1.87,1.87,0,0,0,3.74,0,1.88,1.88,0,0,0-1.87-1.88"/><path class="cls-4" d="M263.54,678.55a1.34,1.34,0,1,0,1.33-1.34,1.34,1.34,0,0,0-1.33,1.34"/><path class="cls-4" d="M270.61,677.47a2.06,2.06,0,1,0,2-2.07,2,2,0,0,0-2,2.07h0"/><path class="cls-4" d="M280.53,675.55a2.29,2.29,0,1,0,.29,0h-.29"/><path class="cls-4" d="M288.18,677.31a2.27,2.27,0,1,0,2.27,2.31,2.26,2.26,0,0,0-2.27-2.31h0"/><path class="cls-4" d="M295.41,680.85a1.83,1.83,0,1,0,1.83,1.83,1.83,1.83,0,0,0-1.83-1.83h0"/><path class="cls-4" d="M302,684.9a2.1,2.1,0,1,0,2.09,2.11A2.1,2.1,0,0,0,302,684.9h0"/><path class="cls-4" d="M307.67,690.31a2.11,2.11,0,1,0,2.08,2.13v0a2.1,2.1,0,0,0-2.08-2.1"/><path class="cls-4" d="M309.82,698.81a2.46,2.46,0,1,0,2.46-2.47,2.46,2.46,0,0,0-2.46,2.47v0"/><path class="cls-4" d="M313.67,705.89a2,2,0,1,0,2-2,2,2,0,0,0-2,2v0"/><path class="cls-4" d="M316,713.49a1.79,1.79,0,1,0,1.78-1.79,1.78,1.78,0,0,0-1.78,1.79"/><path class="cls-4" d="M326.13,721.31a1.12,1.12,0,1,0,1.14-1.14,1.12,1.12,0,0,0-1.14,1.1v0"/><path class="cls-4" d="M324.91,736a.79.79,0,0,0-.78.77h0a.79.79,0,1,0,.78-.77h0"/><path class="cls-4" d="M309.94,757.09a2.39,2.39,0,1,0,2.41-2.37h0a2.39,2.39,0,0,0-2.39,2.37h0"/><path class="cls-4" d="M307.44,763.46a1.91,1.91,0,1,0-1.91-1.9h0a1.9,1.9,0,0,0,1.91,1.9"/><path class="cls-4" d="M288.55,772.61a2.23,2.23,0,1,0-2.22,2.24,2.22,2.22,0,0,0,2.22-2.24v0"/><path class="cls-4" d="M278.56,771.32a2.47,2.47,0,1,0,2.46,2.47h0a2.46,2.46,0,0,0-2.46-2.46"/><path class="cls-4" d="M273,773.78a2.34,2.34,0,1,0-2.34,2.34h0a2.32,2.32,0,0,0,2.34-2.3v0"/><path class="cls-4" d="M265,772.61a2.07,2.07,0,1,0-2.07,2.07h0a2.07,2.07,0,0,0,2.06-2.07"/><path class="cls-4" d="M255.39,771.6a1.31,1.31,0,1,0,0-2.62,1.31,1.31,0,0,0,0,2.62"/><path class="cls-4" d="M247,766.89a1.32,1.32,0,1,0,1.32-1.31h0a1.28,1.28,0,0,0-1.3,1.28v0"/><path class="cls-4" d="M240.49,762.45a1.33,1.33,0,1,0,1.36-1.3h0a1.3,1.3,0,0,0-1.32,1.28v0"/><path class="cls-4" d="M237.12,757.09a1.08,1.08,0,1,0-2.15,0,1.07,1.07,0,0,0,1.07,1.09h0a1.07,1.07,0,0,0,1.07-1.07"/><path class="cls-4" d="M231.14,749.69a1.25,1.25,0,0,0-1.26,1.26,1.27,1.27,0,1,0,2.53,0v0a1.27,1.27,0,0,0-1.27-1.25"/><path class="cls-4" d="M228.51,744.13a1.31,1.31,0,0,0-1.3-1.32,1.32,1.32,0,0,0-1.32,1.31,1.31,1.31,0,0,0,1.31,1.31h0a1.3,1.3,0,0,0,1.3-1.3h0"/><path class="cls-4" d="M223,736.8a1.39,1.39,0,0,0,1.37,1.39h.07A1.38,1.38,0,1,0,223,736.8"/><path class="cls-4" d="M222.61,727.38a1.78,1.78,0,1,0,1.78,1.78,1.79,1.79,0,0,0-1.78-1.78"/><path class="cls-4" d="M222,722.68a1.38,1.38,0,1,0-1.39-1.37,1.37,1.37,0,0,0,1.39,1.37h0"/><path class="cls-4" d="M221.2,713.49a1.39,1.39,0,0,0,2.77.22v-.22a1.39,1.39,0,0,0-2.77-.23.89.89,0,0,0,0,.23"/><path class="cls-4" d="M223,705.79a1.34,1.34,0,0,0,2.67,0,1.34,1.34,0,0,0-1.34-1.33,1.32,1.32,0,0,0-1.33,1.32v0"/><path class="cls-4" d="M227.21,696.93a1.54,1.54,0,1,0,.24,0h-.24"/><path class="cls-4" d="M231.14,689.86a1.78,1.78,0,1,0,1.79,1.78,1.78,1.78,0,0,0-1.79-1.78"/><path class="cls-4" d="M236.05,683.72a1.78,1.78,0,1,0,1.79,1.78,1.78,1.78,0,0,0-1.79-1.78"/><path class="cls-4" d="M241.81,678.27a1.82,1.82,0,1,0,1.88,1.88,1.88,1.88,0,0,0-1.88-1.88"/><path class="cls-4" d="M248.31,673a2.76,2.76,0,1,0,2.75,2.76h0a2.75,2.75,0,0,0-2.74-2.75h0"/><path class="cls-4" d="M252.65,672.3a2.76,2.76,0,1,0,2.75-2.75h0a2.74,2.74,0,0,0-2.74,2.74h0"/><path class="cls-4" d="M262.93,667.55a2.44,2.44,0,1,0,2.45,2.43,2.43,2.43,0,0,0-2.45-2.43"/><path class="cls-4" d="M293.9,670.51a1.79,1.79,0,1,0,1.78,1.78,1.78,1.78,0,0,0-1.78-1.78"/><path class="cls-4" d="M300.94,674a1.79,1.79,0,1,0,1.78,1.78,1.78,1.78,0,0,0-1.78-1.78"/><path class="cls-4" d="M307.44,678.27a1.87,1.87,0,1,0,0,3.74,1.85,1.85,0,0,0,1.87-1.82v0a1.87,1.87,0,0,0-1.85-1.88h0"/><path class="cls-4" d="M311.81,685.51a1.45,1.45,0,1,0,1.62-1.4h-.23a1.39,1.39,0,0,0-1.39,1.39h0"/><path class="cls-4" d="M320.31,691.64a2.2,2.2,0,1,0-2.2,2.19h0a2.2,2.2,0,0,0,2.18-2.19"/><path class="cls-4" d="M319.75,698.46a2.27,2.27,0,1,0,2.35-2.33,2.35,2.35,0,0,0-2.35,2.33"/><path class="cls-4" d="M324.91,703.85a1.93,1.93,0,1,0,1.8,1.8,1.93,1.93,0,0,0-1.8-1.8"/><path class="cls-4" d="M325.56,713.49a1.12,1.12,0,1,0,1.12-1.13,1.12,1.12,0,0,0-1.12,1.13h0"/><path class="cls-4" d="M334.51,721.31a1.53,1.53,0,1,0,3.05,0,1.52,1.52,0,0,0-1.51-1.51,1.53,1.53,0,0,0-1.54,1.53h0"/><path class="cls-4" d="M271.41,782.42a2.68,2.68,0,1,0-2.68,2.67,2.67,2.67,0,0,0,2.68-2.67"/><path class="cls-4" d="M263.18,781.22a2.22,2.22,0,1,0-4.44,0,2.23,2.23,0,0,0,2.21,2.23h0a2.21,2.21,0,0,0,2.22-2.2h0"/><path class="cls-4" d="M251.4,778.93a2,2,0,1,0,2-2h0a2,2,0,0,0-2,2"/><path class="cls-4" d="M246.22,777.06a1.34,1.34,0,1,0-1.33-1.33,1.34,1.34,0,0,0,1.33,1.33"/><path class="cls-4" d="M240.88,771.65a1.38,1.38,0,0,0-1.39-1.37h0a1.37,1.37,0,0,0-1.37,1.36h0a1.38,1.38,0,0,0,1.36,1.4h0a1.4,1.4,0,0,0,1.39-1.4"/><path class="cls-4" d="M232.5,766.75a.89.89,0,1,0,.89-.89.89.89,0,0,0-.89.89"/><path class="cls-4" d="M229.08,761.11a1.22,1.22,0,0,0-1.18-1.23,1.21,1.21,0,1,0-.05,2.41h0a1.19,1.19,0,0,0,1.21-1.17h0"/><path class="cls-4" d="M221.86,754.79a1.32,1.32,0,1,0,1.32-1.32h0a1.32,1.32,0,0,0-1.31,1.32"/><path class="cls-4" d="M217.92,747.94a1.39,1.39,0,1,0,1.39-1.39h0a1.39,1.39,0,0,0-1.39,1.39"/><path class="cls-4" d="M216.37,739.27a1.38,1.38,0,1,0,1.38,1.38,1.38,1.38,0,0,0-1.38-1.38"/><path class="cls-4" d="M214.36,731.76a1.29,1.29,0,0,0-1.3,1.25,1.28,1.28,0,1,0,2.55,0v0a1.27,1.27,0,0,0-1.25-1.28"/><path class="cls-4" d="M213.35,726.77a1.54,1.54,0,1,0-1.54-1.55v0a1.53,1.53,0,0,0,1.54,1.53h0"/><path class="cls-4" d="M213.35,718.7a1.34,1.34,0,1,0-1.34-1.34,1.34,1.34,0,0,0,1.34,1.34"/><path class="cls-4" d="M212.69,709.56a1.68,1.68,0,1,0,1.69-1.67h0a1.67,1.67,0,0,0-1.67,1.67"/><path class="cls-4" d="M215,701.94a1.32,1.32,0,1,0,1.34-1.3h0a1.31,1.31,0,0,0-1.31,1.3h0"/><path class="cls-4" d="M219.34,695.54a1.75,1.75,0,1,0,1.76-1.74h0a1.75,1.75,0,0,0-1.75,1.74"/><path class="cls-4" d="M306.46,667a1.78,1.78,0,1,0,1.78,1.78,1.77,1.77,0,0,0-1.78-1.78"/><path class="cls-4" d="M312.92,671.6a1.7,1.7,0,1,0,1.69,1.69,1.69,1.69,0,0,0-1.69-1.69"/><path class="cls-4" d="M318.74,677a1.58,1.58,0,1,0,1.46,1.46,1.58,1.58,0,0,0-1.46-1.46"/><path class="cls-4" d="M322.27,684.58a1.55,1.55,0,0,0,1.54,1.57h0a1.58,1.58,0,0,0,0-3.16,1.55,1.55,0,0,0-1.58,1.52v.07"/><path class="cls-4" d="M327.23,693.45a2.29,2.29,0,1,0-2.28-2.3h0a2.27,2.27,0,0,0,2.25,2.29h0"/><path class="cls-4" d="M330.13,698.25a1.41,1.41,0,0,0,1.41,1.41h0a1.41,1.41,0,1,0-1.42-1.41h0"/><path class="cls-4" d="M334,703.53a2.19,2.19,0,1,0,.28,0H334"/><path class="cls-4" d="M333.11,713.49a1.53,1.53,0,1,0,1.51-1.55h0a1.53,1.53,0,0,0-1.5,1.55"/><path class="cls-4" d="M269.09,791a2.32,2.32,0,1,0-2.33,2.33,2.32,2.32,0,0,0,2.33-2.33v0"/><path class="cls-4" d="M261.23,789.72a2.21,2.21,0,1,0-2.21,2.22,2.21,2.21,0,0,0,2.21-2.22h0"/><path class="cls-4" d="M250,787.53a1.51,1.51,0,0,0,3,0h0a1.52,1.52,0,0,0-1.52-1.51,1.5,1.5,0,0,0-1.49,1.5h0"/><path class="cls-4" d="M243.28,784.52a.89.89,0,1,0,.89-.89.89.89,0,0,0-.89.89"/><path class="cls-4" d="M236.45,780.71a.89.89,0,1,0,.94-.84h0a.84.84,0,0,0-.89.8v0"/><path class="cls-4" d="M230,776.17a.89.89,0,1,0,.89-.89.89.89,0,0,0-.89.89"/><path class="cls-4" d="M226,770.92a1,1,0,0,0-2,0h0a1,1,0,1,0,2,0"/><path class="cls-4" d="M218.58,765.05a1.19,1.19,0,1,0,1.17-1.19,1.19,1.19,0,0,0-1.17,1.19"/><path class="cls-4" d="M216.37,758.64a1.21,1.21,0,0,0-1.2-1.21h0a1.2,1.2,0,1,0,1.21,1.21"/><path class="cls-4" d="M209,751.75a2.43,2.43,0,1,0,2.42-2.44,2.42,2.42,0,0,0-2.42,2.44"/><path class="cls-4" d="M208.35,741.73a2.76,2.76,0,1,0,2.75,2.75h0a2.74,2.74,0,0,0-2.74-2.74h0"/><path class="cls-4" d="M206.21,738.44a1.54,1.54,0,1,0-1.54-1.53,1.54,1.54,0,0,0,1.54,1.53"/><path class="cls-4" d="M204.89,727.74a1.43,1.43,0,0,0-1.41,1.43,1.41,1.41,0,1,0,1.41-1.43"/><path class="cls-4" d="M204.46,722.68a1.37,1.37,0,0,0,1.37-1.39h0a1.36,1.36,0,0,0-1.35-1.37h0a1.39,1.39,0,0,0-1.39,1.37h0a1.39,1.39,0,0,0,1.39,1.39"/><path class="cls-4" d="M203.52,713.49a1.36,1.36,0,0,0,1.35,1.37h0a1.38,1.38,0,1,0-1.37-1.39v0"/><path class="cls-4" d="M206,706.57a1.14,1.14,0,1,0,1.17-1.1h0a1.15,1.15,0,0,0-1.14,1.15"/><path class="cls-4" d="M310.21,661.88a1.78,1.78,0,1,0,1.78-1.79,1.78,1.78,0,0,0-1.78,1.79"/><path class="cls-4" d="M317.07,666.43a1.32,1.32,0,0,0,1.3,1.34h0a1.34,1.34,0,0,0,0-2.68,1.32,1.32,0,0,0-1.32,1.32v0"/><path class="cls-4" d="M325.7,671.68a1.45,1.45,0,0,0-2.9-.23v.23a1.46,1.46,0,0,0,2.9,0"/><path class="cls-4" d="M329.48,675.65a1.88,1.88,0,0,0-1.86,1.89h0a1.85,1.85,0,0,0,1.83,1.87h0a1.88,1.88,0,0,0,1.9-1.85v0a1.92,1.92,0,0,0-1.9-1.89"/><path class="cls-4" d="M332,684a2.08,2.08,0,1,0,2.1-2.05h0a2.05,2.05,0,0,0-2.07,2v0"/><path class="cls-4" d="M333.87,690.66a1.52,1.52,0,1,0,1.52-1.51h0a1.51,1.51,0,0,0-1.52,1.49v0"/><path class="cls-4" d="M340.87,696.11a2,2,0,1,0,2,2h0a2,2,0,0,0-2-2"/><path class="cls-4" d="M342.59,706.25A1.64,1.64,0,0,0,341,704.6h0a1.65,1.65,0,0,0-1.64,1.65,1.63,1.63,0,0,0,1.63,1.64h0a1.61,1.61,0,0,0,1.65-1.59v0"/><path class="cls-4" d="M273.4,800.23a1.6,1.6,0,0,0-3.19,0,1.6,1.6,0,0,0,3.19,0v0"/><path class="cls-4" d="M264.82,801.23a1.61,1.61,0,1,0-1.6-1.62v0a1.6,1.6,0,0,0,1.6,1.6"/><path class="cls-4" d="M259.14,798.26a2.1,2.1,0,1,0-2.1,2.12,2.1,2.1,0,0,0,2.1-2.12"/><path class="cls-4" d="M248.33,796.1a1.21,1.21,0,0,0,1.18,1.21,1.2,1.2,0,0,0,1.12-1.21,1.17,1.17,0,0,0-1.12-1.12,1.19,1.19,0,0,0-1.18,1.12"/><path class="cls-4" d="M240.33,793.27a1.84,1.84,0,1,0,1.85-1.82h-.07a1.78,1.78,0,0,0-1.78,1.78v0"/><path class="cls-4" d="M236.43,789.66a1.28,1.28,0,0,0-2.55,0,1.27,1.27,0,0,0,1.26,1.28h0a1.25,1.25,0,0,0,1.28-1.24v0"/><path class="cls-4" d="M229.86,785.4a1.32,1.32,0,1,0-1.34,1.31h0a1.31,1.31,0,0,0,1.32-1.29v0"/><path class="cls-4" d="M223.74,780.49a1.35,1.35,0,1,0-2.69,0,1.33,1.33,0,0,0,1.33,1.35h0a1.34,1.34,0,0,0,1.34-1.34"/><path class="cls-4" d="M219.09,775a2.34,2.34,0,1,0-2.35,2.33h0a2.32,2.32,0,0,0,2.33-2.31v0"/><path class="cls-4" d="M213.69,769a2,2,0,1,0-1.95,2,1.95,1.95,0,0,0,1.95-2h0"/><path class="cls-4" d="M207.26,760.72a1.71,1.71,0,1,0,1.71,1.71,1.71,1.71,0,0,0-1.71-1.71"/><path class="cls-4" d="M201.07,755.54a2.43,2.43,0,1,0,2.44-2.42h0a2.42,2.42,0,0,0-2.43,2.42"/><path class="cls-4" d="M200.44,745.67a2.67,2.67,0,1,0,2.68,2.67v0a2.67,2.67,0,0,0-2.67-2.63"/><path class="cls-4" d="M198.12,738.37a2.42,2.42,0,1,0,2.41,2.42h0a2.4,2.4,0,0,0-2.4-2.41h0"/><path class="cls-4" d="M196.56,735.69a2.63,2.63,0,1,0-2.63-2.67,2.67,2.67,0,0,0,2.63,2.67"/><path class="cls-4" d="M195.79,726.85a1.61,1.61,0,1,0-1.61-1.61h0a1.6,1.6,0,0,0,1.61,1.6"/><path class="cls-4" d="M195.79,718.64a1.27,1.27,0,0,0,1.25-1.29h0a1.27,1.27,0,0,0-2.53,0,1.29,1.29,0,0,0,1.26,1.3h0"/><path class="cls-4" d="M198,709.53a1.39,1.39,0,1,0-1.39,1.39h0a1.39,1.39,0,0,0,1.39-1.39"/><path class="cls-4" d="M318.07,654.18a1.41,1.41,0,0,0-1.4,1.42,1.4,1.4,0,0,0,1.41,1.4,1.41,1.41,0,0,0,0-2.82h0"/><path class="cls-4" d="M323.85,657.55a2,2,0,1,0,2,2,2,2,0,0,0-2-2h0"/><path class="cls-4" d="M329.77,662.69a2.12,2.12,0,1,0,2.1,2.14v0a2.12,2.12,0,0,0-2.1-2.1"/><path class="cls-4" d="M335.12,668.68a1.87,1.87,0,1,0-.26,3.73h.26a1.87,1.87,0,0,0,0-3.73"/><path class="cls-4" d="M338,676.83a1.88,1.88,0,0,0,1.86,1.9h0a1.84,1.84,0,0,0,1.85-1.84v0a1.87,1.87,0,0,0-1.85-1.89h0a1.89,1.89,0,0,0-1.89,1.89"/><path class="cls-4" d="M342.26,683.54a1.7,1.7,0,1,0,1.72-1.71,1.69,1.69,0,0,0-1.72,1.71v0"/><path class="cls-4" d="M245.45,803.9a1.38,1.38,0,1,0,1.37-1.38,1.37,1.37,0,0,0-1.37,1.38"/><path class="cls-4" d="M242.91,802a2.75,2.75,0,0,0-5.5-.32,1.71,1.71,0,0,0,0,.32,2.75,2.75,0,0,0,5.5,0"/><path class="cls-4" d="M234.37,798.55a1.31,1.31,0,1,0-1.31,1.31,1.31,1.31,0,0,0,1.31-1.31"/><path class="cls-4" d="M226.3,793.49a1,1,0,1,0,1,1,1,1,0,0,0-1-1h0"/><path class="cls-4" d="M221.34,789.88a1.41,1.41,0,1,0-1.41,1.41,1.41,1.41,0,0,0,1.41-1.41v0"/><path class="cls-4" d="M215.42,784.7a1.42,1.42,0,1,0-1.42,1.41h0a1.41,1.41,0,0,0,1.41-1.4h0"/><path class="cls-4" d="M208.57,780.33a1.35,1.35,0,1,0-1.35-1.35h0a1.35,1.35,0,0,0,1.33,1.35h0"/><path class="cls-4" d="M203.66,770.92a1.94,1.94,0,0,0-1.95,1.94h0a1.95,1.95,0,1,0,3.89.26,1.13,1.13,0,0,0,0-.26,1.92,1.92,0,0,0-1.91-1.94h0"/><path class="cls-4" d="M199.32,768.41a2.12,2.12,0,1,0-2.1-2.14v0a2.1,2.1,0,0,0,2.1,2.12h0"/><path class="cls-4" d="M195.59,761.82a2.47,2.47,0,1,0-2.45-2.48v0a2.47,2.47,0,0,0,2.45,2.46"/><path class="cls-4" d="M189.84,752.12a2.68,2.68,0,1,0,2.68-2.67,2.67,2.67,0,0,0-2.68,2.67"/><path class="cls-4" d="M190.08,742.17a2.46,2.46,0,1,0-.3,4.91h.3a2.46,2.46,0,0,0,0-4.91"/><path class="cls-4" d="M188.32,734.29A2.67,2.67,0,1,0,191,737a2.66,2.66,0,0,0-2.67-2.67"/><path class="cls-4" d="M187.25,726.45a2.7,2.7,0,1,0,.05,0h-.05"/><path class="cls-4" d="M187,723.77a2.49,2.49,0,1,0-2.48-2.5v0a2.48,2.48,0,0,0,2.48,2.48"/><path class="cls-4" d="M187.25,715.92a2.49,2.49,0,1,0-2.48-2.5,2.5,2.5,0,0,0,2.48,2.5h0"/><path class="cls-4" d="M186.65,705.64a1.68,1.68,0,1,0,1.68-1.68h0a1.67,1.67,0,0,0-1.67,1.67h0"/><path class="cls-4" d="M322.94,646.32a1.78,1.78,0,1,0,1.79,1.78,1.78,1.78,0,0,0-1.79-1.78"/><path class="cls-4" d="M328.44,650.7a2,2,0,1,0,2,2v0a2,2,0,0,0-2-2h0"/><path class="cls-4" d="M349.16,676.3a1.72,1.72,0,1,0,1.74-1.7h0a1.73,1.73,0,0,0-1.72,1.7"/><path class="cls-4" d="M232.85,806.9a2.3,2.3,0,1,0-4.6-.26,1.13,1.13,0,0,0,0,.26,2.3,2.3,0,0,0,4.6,0"/><path class="cls-4" d="M224.13,806.23a2.67,2.67,0,1,0-2.74-2.67,2.72,2.72,0,0,0,2.74,2.67"/><path class="cls-4" d="M218.74,799.12a1.14,1.14,0,1,0-1.14,1.15,1.14,1.14,0,0,0,1.14-1.15h0"/><path class="cls-4" d="M212.8,794.24a1.39,1.39,0,1,0-1.39,1.39,1.39,1.39,0,0,0,1.39-1.39"/><path class="cls-4" d="M204.37,788.83a1.34,1.34,0,1,0,1.3-1.38,1.34,1.34,0,0,0-1.3,1.38"/><path class="cls-4" d="M201.5,785.3a1.6,1.6,0,1,0-1.6-1.6,1.6,1.6,0,0,0,1.6,1.6"/><path class="cls-4" d="M191.41,767a2.25,2.25,0,0,0-2.26,2.24h0a2.27,2.27,0,1,0,2.26-2.24h0"/><path class="cls-4" d="M187.68,760.49a2.67,2.67,0,1,0,2.67,2.67,2.66,2.66,0,0,0-2.67-2.67"/><path class="cls-4" d="M184.56,753.24a2.68,2.68,0,1,0,2.67,2.68,2.67,2.67,0,0,0-2.67-2.68"/><path class="cls-4" d="M182.05,745.78a2.68,2.68,0,1,0,2.67,2.68,2.68,2.68,0,0,0-2.67-2.68"/><path class="cls-4" d="M180.65,738.53a2.3,2.3,0,1,0,2.3,2.3,2.3,2.3,0,0,0-2.3-2.3"/><path class="cls-4" d="M178.85,730.34a2.76,2.76,0,1,0,2.76,2.75,2.76,2.76,0,0,0-2.76-2.75h0"/><path class="cls-4" d="M178.22,728.31a3.08,3.08,0,1,0-3.06-3.09h0a3.08,3.08,0,0,0,3.06,3.08"/><path class="cls-4" d="M177.3,717.35a1.81,1.81,0,1,0,1.81-1.8,1.81,1.81,0,0,0-1.81,1.8v0"/><path class="cls-4" d="M178.05,710.4a1.7,1.7,0,1,0,1.71-1.69h0a1.69,1.69,0,0,0-1.69,1.69h0"/><path class="cls-4" d="M179.28,703.53a1.78,1.78,0,1,0,1.78-1.78,1.77,1.77,0,0,0-1.78,1.78"/><path class="cls-4" d="M357.61,675.9a2.2,2.2,0,0,0,2.18,2.18,2.16,2.16,0,1,0-2.18-2.18"/><path class="cls-4" d="M366.89,670.34A1.07,1.07,0,0,0,368,671.4a1,1,0,0,0,1-1.06,1,1,0,0,0-1.05-1,1,1,0,0,0-1,1"/><path class="cls-4" d="M215.32,807a1.34,1.34,0,0,0,0,2.67,1.34,1.34,0,0,0,1.33-1.35h0a1.34,1.34,0,0,0-1.35-1.31"/><path class="cls-4" d="M210.33,803.59a1.35,1.35,0,1,0,0,.3.76.76,0,0,0,0-.3"/><path class="cls-4" d="M205.23,798.44a2.21,2.21,0,1,0-2.23,2.22,2.21,2.21,0,0,0,2.23-2.22h0"/><path class="cls-4" d="M199.66,793.48a1.62,1.62,0,0,0-3.23,0,1.6,1.6,0,0,0,1.61,1.62h0a1.62,1.62,0,0,0,1.61-1.61"/><path class="cls-4" d="M364.89,666.16a1.61,1.61,0,1,0,1.61,1.61h0a1.61,1.61,0,0,0-1.59-1.61h0"/><path class="cls-4" d="M367.87,674.73a1.6,1.6,0,1,0,1.62-1.57h-.05a1.57,1.57,0,0,0-1.57,1.57h0"/><path class="cls-4" d="M202.28,807.8a1.86,1.86,0,1,0-1.85-1.86h0a1.85,1.85,0,0,0,1.85,1.85"/><path class="cls-4" d="M194.69,800.56a2.07,2.07,0,1,0,2.07,2.06h0a2.06,2.06,0,0,0-2.07-2.07h0"/><path class="cls-4" d="M370.25,662.34a1.46,1.46,0,1,0,1.49-1.43h0a1.43,1.43,0,0,0-1.46,1.42v0"/><path class="cls-4" d="M373.22,668.3a1.47,1.47,0,0,0,1.46,1.46,1.46,1.46,0,1,0-1.46-1.46"/><path class="cls-4" d="M377.57,672.45a1.18,1.18,0,0,0,1.17,1.19h0a1.21,1.21,0,0,0,1.19-1.19,1.19,1.19,0,0,0-1.19-1.18,1.17,1.17,0,0,0-1.19,1.16v0"/><path class="cls-4" d="M377.27,665.09a1.19,1.19,0,0,0,1.18,1.2h0a1.21,1.21,0,0,0,1.19-1.2,1.19,1.19,0,0,0-1.19-1.17,1.17,1.17,0,0,0-1.19,1.16h0"/><path class="cls-4" d="M383,661a1.35,1.35,0,0,0,0,2.7h0a1.35,1.35,0,1,0,0-2.7h0"/><path class="cls-4" d="M382.93,667.05a1.29,1.29,0,0,0,0,2.57h0a1.29,1.29,0,0,0,0-2.57h0"/><path class="cls-4" d="M387.46,661.56a1.28,1.28,0,0,0,0,2.56h0a1.28,1.28,0,0,0,0-2.56h0"/><line class="cls-5" x1="141" y1="925.25" x2="939" y2="925.25"/><text class="cls-6" transform="translate(396.29 1032.49)"><tspan class="cls-7">N</tspan><tspan x="47.53" y="0">o Image</tspan></text></svg>