<svg id="Layer_1" data-name="Layer 1" xmlns="http://www.w3.org/2000/svg" viewBox="0 0 1662 1080"><defs><style>.cls-1{fill:#ccc;}.cls-2,.cls-6{fill:#272361;}.cls-3{fill:#00a89c;}.cls-4{fill:#fff;}.cls-5{fill:none;stroke:#272361;stroke-miterlimit:10;stroke-width:3.89px;}.cls-6{font-size:65.36px;font-family:Raleway-SemiBold, Raleway;font-weight:700;}.cls-7{letter-spacing:-0.01em;}</style></defs><title>No-image</title><rect class="cls-1" width="1662" height="1080"/><path class="cls-2" d="M1067.3,583.1q-12.72,2.35-25.58,3.95a46.56,46.56,0,0,0,1.47,8.61q1.86,6.39,6.29,9.07t12.8,2.68h9.29V582.26C1070.18,582.55,1068.74,582.83,1067.3,583.1Z"/><path class="cls-2" d="M1066,575.8c1.86-.32,3.72-.67,5.58-1v-121h-30.23V579.44Q1053.72,578,1066,575.8Z"/><path class="cls-3" d="M1125.49,560.57l15.71-34.87,14.15-31.86,18.94,45c1.92-1.09,3.82-2.19,5.7-3.33a203.58,203.58,0,0,0,19.94-13.65l-28.52-68h-10.47L1111.19,565.2q7.2-2.18,14.33-4.65"/><path class="cls-2" d="M1223.54,578.09l-20.22-48.19h0l-1.26-3-.36-.86q-4.46,3.63-9.1,7-6.09,4.31-12.47,8.17A268.54,268.54,0,0,1,1144,559.4a351.26,351.26,0,0,1-35.8,12.53l-3.3,7.38h0l-12.56,28.1h12.08l8.88-19.7,5.76-12.8q13.77-4.65,27.08-10.45a270.89,270.89,0,0,0,32-16.57l2.79,6.69h0l4.4,10.48h.06l2.63,6.41,4.07,9.62q7.14,15.46,18,21.11a56.71,56.71,0,0,0,26.53,6.16,43.14,43.14,0,0,0,11.15-1.16v-5.85Q1232.4,599.74,1223.54,578.09Z"/><rect class="cls-3" x="732.06" y="370.1" width="508.18" height="1.82"/><path class="cls-2" d="M1130.75,408.65h5.54V393.79h4.24v14.86h.23V412h-10Zm4.91,10.83a2.3,2.3,0,0,1-1.66.68,2.15,2.15,0,0,1-1.58-.68,2.36,2.36,0,0,1-.67-1.69,2.29,2.29,0,0,1,.67-1.62,2.08,2.08,0,0,1,1.58-.7,2.21,2.21,0,0,1,1.66.68,2.27,2.27,0,0,1,.63,1.64,2.4,2.4,0,0,1-.63,1.69m6,0a2.17,2.17,0,0,1-1.6.68,2.24,2.24,0,0,1-1.64-.68,2.4,2.4,0,0,1-.66-1.69,2.28,2.28,0,0,1,.66-1.62,2.17,2.17,0,0,1,1.64-.7,2.12,2.12,0,0,1,1.6.68,2.23,2.23,0,0,1,.67,1.64,2.36,2.36,0,0,1-.67,1.69"/><polygon class="cls-2" points="1147.65 384.68 1151.91 384.68 1151.91 408.65 1156.02 408.65 1156.02 412.02 1147.65 412.02 1147.65 384.68"/><path class="cls-2" d="M1155.43,408.65h5.39V393.79h4.26v1.29a41.43,41.43,0,0,1-.44,6.39h0a12.26,12.26,0,0,1,4.2-6.05,9.8,9.8,0,0,1,6.08-2.08,7.46,7.46,0,0,1,5.9,2.32,9.44,9.44,0,0,1,2.06,6.48,9.83,9.83,0,0,1-2.14,6.51h4.88V412h-30.19Zm16.31,0q6.79,0,6.8-6.21c0-3.82-1.47-5.73-4.39-5.73q-3.47,0-6.12,3.75a17.39,17.39,0,0,0-3,8.16Z"/><path class="cls-2" d="M1184.81,408.65h15.55a27.82,27.82,0,0,0,.25-3.54q0-4.19-1.79-6.1c-1.27-1.36-3.37-2-6.28-2a25.8,25.8,0,0,0-4.39.32V394a31.72,31.72,0,0,1,4.77-.36q6.3,0,9.17,2.86t2.74,8.42a45,45,0,0,1-.63,7.14h-19.39Z"/><rect class="cls-2" x="1209.95" y="384.68" width="4.26" height="27.33"/><path class="cls-2" d="M1224.25,408.65h12a13,13,0,0,0-2.35-7.8,13.38,13.38,0,0,0-7.15-4.33l1.07-3.58c4.32,1.24,7.47,3.13,9.47,5.73s3.14,6.43,3.14,11.17v2.21h-16.23Z"/><path class="cls-2" d="M743.89,412q-10.29,0-10.29-9a9.2,9.2,0,0,1,8.66-9.7,9.45,9.45,0,0,1,1.19,0q8.53,0,8.53,8.76V412Zm4-9.26q0-6.06-4.69-6.06a4.9,4.9,0,0,0-3.88,1.65,6.17,6.17,0,0,0-1.41,4.24q0,6.06,6.51,6.06h3.47Z"/><path class="cls-2" d="M753.86,421.45l.43-3.43a11.07,11.07,0,0,0,3.52.55,4.35,4.35,0,0,0,3.48-1.29c.84-1,1.25-2.55,1.25-4.77V393.79h4.26v18.39q0,9.74-9.21,9.73a13.92,13.92,0,0,1-3.74-.49"/><rect class="cls-2" x="772.66" y="384.68" width="4.26" height="27.33"/><path class="cls-2" d="M781.6,408.65h12a13,13,0,0,0-2.35-7.8,13.19,13.19,0,0,0-7.15-4.33l1.08-3.58c4.32,1.24,7.47,3.13,9.46,5.73s3.15,6.43,3.14,11.17v2.21H781.57Z"/><rect class="cls-2" x="802.77" y="384.68" width="4.26" height="27.33"/><path class="cls-2" d="M846.75,412v-9.66c0-2.05-.38-3.51-1.13-4.37a4.86,4.86,0,0,0-3.82-1.29,16.38,16.38,0,0,0-3,.27v15h-7.59q-7.37,0-10.75-3-3.12-2.76-3.12-8.38a16.81,16.81,0,0,1,1.11-6.28l4.58-.78a14.94,14.94,0,0,0-1.44,6.55q0,4.44,2.14,6.38c1.43,1.29,4.19,2.12,7.94,2.12h3V394a35.68,35.68,0,0,1,7.36-.73c3.19,0,5.48.75,6.9,2.26s1.91,3.45,1.91,6.26v6.79h7.64V384.68h4.27v24h4.08V412Zm-17.7,7.46a2.24,2.24,0,0,1-1.64.68,2.17,2.17,0,0,1-1.59-.68,2.31,2.31,0,0,1-.66-1.69,2.23,2.23,0,0,1,.66-1.62,2.08,2.08,0,0,1,1.59-.7,2.15,2.15,0,0,1,1.64.68,2.24,2.24,0,0,1,.64,1.64,2.37,2.37,0,0,1-.64,1.69m6,0a2.28,2.28,0,0,1-3.22,0l0,0a2.36,2.36,0,0,1-.67-1.69,2.19,2.19,0,0,1,.67-1.62,2.25,2.25,0,0,1,3.19-.05l.05.05a2.26,2.26,0,0,1,.66,1.64,2.41,2.41,0,0,1-.66,1.69"/><path class="cls-2" d="M866.46,412v-3.37h2.67a9.73,9.73,0,0,1,2.22.22c-1.71-1.14-2.57-3.17-2.56-6.07a9.23,9.23,0,0,1,2.48-6.61,9.64,9.64,0,0,1,7.36-2.86q8.54,0,8.54,8.76V412ZM883,402.76q0-6.06-4.68-6.06a4.9,4.9,0,0,0-3.88,1.65,6.16,6.16,0,0,0-1.4,4.24q0,6.06,6.51,6.06H883Z"/><path class="cls-2" d="M897.23,421.24l.29-3.49a27.87,27.87,0,0,0,6.11.71q7.1,0,7.1-5.66V412h-3.48Q897,412,897,403a9.59,9.59,0,0,1,2.43-6.74,9.83,9.83,0,0,1,7.53-2.86,21.86,21.86,0,0,1,8,1.35v14H919v3.37h-4.11v.47a8.33,8.33,0,0,1-2.65,6.47q-3.06,2.87-9,2.87a33.38,33.38,0,0,1-6-.56m13.5-23.71a9.73,9.73,0,0,0-4.22-.83,5,5,0,0,0-3.89,1.64,6.21,6.21,0,0,0-1.4,4.22q0,6.09,6.51,6.1h3Z"/><path class="cls-2" d="M918.42,408.65H924V393.79h4.25V412h-9.8Zm2.4-18.82a2.38,2.38,0,0,1,0-3.29,2.22,2.22,0,0,1,3.22,0,2.23,2.23,0,0,1,.66,1.62,2.21,2.21,0,0,1-.66,1.65,2.15,2.15,0,0,1-1.63.68,2.09,2.09,0,0,1-1.59-.66m6,0a2.31,2.31,0,0,1,3.19-3.34l.05.05a2.23,2.23,0,0,1,.66,1.62,2.28,2.28,0,0,1-3.9,1.65"/><polygon class="cls-2" points="934.15 384.68 938.41 384.68 938.41 408.65 942.52 408.65 942.52 412.02 934.15 412.02 934.15 384.68"/><path class="cls-2" d="M941.94,412v-3.37h2.67a9.64,9.64,0,0,1,2.21.22c-1.7-1.14-2.55-3.17-2.55-6.07a9.25,9.25,0,0,1,2.48-6.61,9.65,9.65,0,0,1,7.37-2.86q8.53,0,8.53,8.76V412Zm16.55-9.26c0-4-1.57-6.06-4.68-6.06a4.9,4.9,0,0,0-3.88,1.65,6.21,6.21,0,0,0-1.4,4.24q0,6.06,6.51,6.06h3.45Z"/><path class="cls-2" d="M967.34,421.24l.29-3.49a27.87,27.87,0,0,0,6.11.71q7.1,0,7.1-5.66V412h-3.48q-10.29,0-10.29-9a9.59,9.59,0,0,1,2.43-6.74,9.81,9.81,0,0,1,7.53-2.86,21.77,21.77,0,0,1,8,1.35v14h4.11v3.37H985v.47a8.33,8.33,0,0,1-2.65,6.47c-2,1.91-5,2.87-9,2.87a33.27,33.27,0,0,1-6-.56m13.5-23.71a9.78,9.78,0,0,0-4.23-.83,5,5,0,0,0-3.88,1.64,6.21,6.21,0,0,0-1.4,4.22q0,6.09,6.51,6.1h3Z"/><polygon class="cls-2" points="988.53 408.65 993.67 408.65 993.67 384.68 997.95 384.68 997.95 408.65 1002.02 408.65 1002.02 412.02 988.53 412.02 988.53 408.65"/><path class="cls-2" d="M1001.42,408.65h1.32a27,27,0,0,0,9.92-1.63q-5.67-5.31-8.8-6.28l.33-3q6.06-4.5,11.21-4.49a8.63,8.63,0,0,1,6,1.85,5.5,5.5,0,0,1,1.83,4.3q0,4.35-4.33,7.8a9.41,9.41,0,0,0,5,1.44h2.47V412h-3a13.26,13.26,0,0,1-7.92-2.67,29.36,29.36,0,0,1-13,2.67h-1Zm14.61-3.54a6.39,6.39,0,0,0,3-5.15,3.3,3.3,0,0,0-1-2.52,4.2,4.2,0,0,0-3-1c-1.91,0-4.17.92-6.8,2.74q1.74.69,7.88,6"/><path class="cls-2" d="M1025.76,412v-3.37h2.67a9.69,9.69,0,0,1,2.21.22c-1.7-1.14-2.55-3.17-2.55-6.07a9.28,9.28,0,0,1,2.47-6.61,9.69,9.69,0,0,1,7.38-2.86q8.54,0,8.53,8.76V412Zm16.55-9.26c0-4-1.57-6.06-4.68-6.06a4.9,4.9,0,0,0-3.88,1.65,6.16,6.16,0,0,0-1.4,4.24q0,6.06,6.51,6.06h3.45Z"/><path class="cls-2" d="M1056,421.24l.29-3.49a27.87,27.87,0,0,0,6.11.71q7.1,0,7.1-5.66V412h-3.44q-10.27,0-10.28-9a9.54,9.54,0,0,1,2.42-6.74,9.85,9.85,0,0,1,7.54-2.86,21.77,21.77,0,0,1,8,1.35v17.8a8.39,8.39,0,0,1-2.64,6.47c-2,1.91-5,2.87-9,2.87a33.36,33.36,0,0,1-6-.56m13.5-23.71a9.73,9.73,0,0,0-4.22-.83,5,5,0,0,0-3.89,1.64,6.21,6.21,0,0,0-1.4,4.22q0,6.09,6.52,6.1h3Z"/><rect class="cls-2" x="1079.57" y="384.68" width="4.26" height="27.33"/><path class="cls-2" d="M1108.07,412q-7.36,0-10.75-3c-2.09-1.84-3.14-4.63-3.13-8.38a16.82,16.82,0,0,1,1.12-6.28l4.58-.78a15.07,15.07,0,0,0-1.43,6.55q0,4.44,2.16,6.38c1.54,1.42,4.18,2.12,7.92,2.12h3V394a34.94,34.94,0,0,1,7.36-.73q4.77,0,6.87,2.26,1.9,2,1.91,6.26v6.79h3.6V412h-7.76v-9.62c0-2.05-.37-3.51-1.12-4.37s-2-1.28-3.82-1.28a16,16,0,0,0-2.93.26v15Zm-.39,10.37a2.24,2.24,0,0,1,.69,1.65,2.09,2.09,0,0,1-.69,1.59,2.43,2.43,0,0,1-1.68.65,2.35,2.35,0,0,1-1.63-.65,2.14,2.14,0,0,1-.7-1.59,2.23,2.23,0,0,1,.68-1.65,2.49,2.49,0,0,1,3.33,0m0-6a2.26,2.26,0,0,1,0,3.21l0,0a2.37,2.37,0,0,1-1.68.66,2.29,2.29,0,0,1-1.67-3.87l0,0a2.26,2.26,0,0,1,1.65-.67,2.34,2.34,0,0,1,1.68.67"/><path class="cls-2" d="M932.43,531.08l28.62,17.22q12.33,7.69,18.14,14.2A22.87,22.87,0,0,1,985,578.3a25.71,25.71,0,0,1-.35,4.38h.54q13.5,0,27-.72a43.68,43.68,0,0,0,2.13-13.94q0-12.56-7.1-21.52t-23.39-18.45l-28.62-17q-12.79-7.44-18.5-13.39a20.83,20.83,0,0,1-5.7-15q0-10.47,7.33-16.53t19.89-6q18.16,0,28.82,10.48t14.66,34.21h6.5V477.56q0-8.37-7.67-14.78T980.77,453a93,93,0,0,0-25.1-3.37q-24,0-38,10.7t-14.08,29.09a39.59,39.59,0,0,0,6.64,22.8Q916.81,522,932.43,531.08Z"/><path class="cls-2" d="M904.42,575.79c3.72.67,7.52,1.28,11.3,1.86a80.6,80.6,0,0,1-5.87-21.38h-6.5v19.38Z"/><path class="cls-2" d="M985.2,590.54h-3.64a18.75,18.75,0,0,1-4.46,4.56q-7.89,5.82-21.38,5.82-20,0-31.18-10.47a34.22,34.22,0,0,1-4-4.46q-8.62-1.25-17.22-2.79v.29q0,8.37,7.68,14.77T930.82,608a93.4,93.4,0,0,0,25.1,3.37q27.89,0,43.17-11.52a38.47,38.47,0,0,0,9.29-9.92Q996.86,590.51,985.2,590.54Z"/><path class="cls-2" d="M812.93,547.56q6.74,3.21,13.64,6.06a359.26,359.26,0,0,0,48.61,16V453.82H863.55v107l-80-93.08a33.24,33.24,0,0,0-13.85-10.59q-8.25-3.35-21.29-3.37H732.07v7h1.16q11.41,0,16.18,5.58t4.76,15.36V607.41h11.64V492.22Z"/><path class="cls-2" d="M863,573.43c-6.6-2-13.15-4.09-19.62-6.45s-12.86-5-19.17-7.72l-2.07-.93,42.39,49.78h10.65V576.84Q869,575.23,863,573.43Z"/><path class="cls-3" d="M1126.79,347.54v-3.72h3a10,10,0,0,1,2.44.25c-1.86-1.27-2.79-3.5-2.79-6.71a10.17,10.17,0,0,1,2.79-7.29,10.69,10.69,0,0,1,8.13-3.15q9.4,0,9.41,9.67v11Zm18.26-10.22q0-6.68-5.16-6.69a5.4,5.4,0,0,0-4.28,1.82,6.91,6.91,0,0,0-1.55,4.65q0,6.67,7.19,6.69h3.8Z"/><path class="cls-3" d="M1170.8,347.54q-11.35,0-11.34-9.93a10.14,10.14,0,0,1,9.55-10.7,11.28,11.28,0,0,1,1.3,0q9.42,0,9.42,9.67v11Zm4.38-10.21q0-6.68-5.18-6.69a5.42,5.42,0,0,0-4.3,1.81,6.84,6.84,0,0,0-1.53,4.65q0,6.67,7.19,6.69h3.82Z"/><path class="cls-3" d="M1181.74,357.93l.48-3.77a12.25,12.25,0,0,0,3.89.6,4.79,4.79,0,0,0,3.84-1.42q1.38-1.59,1.37-5.28V327.43H1196v20.32q0,10.72-10.17,10.73a15.1,15.1,0,0,1-4.12-.55"/><rect class="cls-3" x="1202.54" y="317.38" width="4.7" height="30.15"/><path class="cls-3" d="M1212.4,343.82h13.27c-.09-3.6-.93-6.5-2.6-8.6s-4.31-3.72-7.89-4.79l1.19-3.94q7.14,2.06,10.44,6.28,3.48,4.49,3.47,12.33v2.44H1212.4Z"/><rect class="cls-3" x="1235.75" y="317.38" width="4.7" height="30.15"/><path class="cls-3" d="M748.53,347.54q-8.12,0-11.86-3.28-3.43-3.06-3.45-9.3a18.62,18.62,0,0,1,1.24-6.92l5.06-.87a16.48,16.48,0,0,0-1.59,7.24q0,4.9,2.38,7c1.71,1.56,4.62,2.35,8.74,2.35h6.63V327.43h4.65v20.11Zm-5.68-24.48a2.62,2.62,0,0,1,0-3.64,2.35,2.35,0,0,1,1.76-.75,2.4,2.4,0,0,1,1.79.75,2.6,2.6,0,0,1,0,3.62,2.4,2.4,0,0,1-1.79.75,2.35,2.35,0,0,1-1.76-.73m6.62,0a2.48,2.48,0,0,1-.72-1.86,2.51,2.51,0,0,1,2.52-2.56,2.44,2.44,0,0,1,1.8.75,2.64,2.64,0,0,1,0,3.62,2.55,2.55,0,0,1-3.6,0"/><polygon class="cls-3" points="766.89 317.38 771.59 317.38 771.59 343.82 776.12 343.82 776.12 347.54 766.89 347.54 766.89 317.38"/><path class="cls-3" d="M775.48,347.54v-3.72h2.94a9.93,9.93,0,0,1,2.43.25c-1.86-1.27-2.79-3.5-2.79-6.71a10.17,10.17,0,0,1,2.74-7.29,10.7,10.7,0,0,1,8.12-3.15q9.42,0,9.43,9.67v11Zm18.25-10.22q0-6.68-5.16-6.69a5.4,5.4,0,0,0-4.28,1.82,6.81,6.81,0,0,0-1.54,4.64q0,6.68,7.17,6.69h3.81Z"/><path class="cls-3" d="M803.51,357.71l.32-3.85a30.06,30.06,0,0,0,6.75.77q7.83,0,7.82-6.23v-.86h-3.83q-11.36,0-11.34-10a10.54,10.54,0,0,1,2.66-7.44q3-3.22,8.31-3.22a24.33,24.33,0,0,1,8.78,1.51v15.39h4.53v3.72H823v.52a9.32,9.32,0,0,1-2.92,7.14q-3.37,3.12-9.95,3.11a36.58,36.58,0,0,1-6.6-.6m14.88-26.19a10.63,10.63,0,0,0-4.65-.92,5.44,5.44,0,0,0-4.29,1.85,7,7,0,0,0-1.54,4.65q0,6.72,7.19,6.73h3.29Z"/><polygon class="cls-3" points="826.87 343.82 832.55 343.82 832.55 317.38 837.27 317.38 837.27 343.82 841.76 343.82 841.76 347.54 826.87 347.54 826.87 343.82"/><path class="cls-3" d="M841.09,343.82h1.46a29.76,29.76,0,0,0,10.94-1.8q-6.24-5.85-9.71-6.94l.38-3.29q6.69-4.92,12.34-4.91,4.29,0,6.57,2a6.07,6.07,0,0,1,2,4.74q0,4.79-4.78,8.61a10.42,10.42,0,0,0,5.51,1.59h2.75v3.72h-3.34a14.61,14.61,0,0,1-8.74-3,32.38,32.38,0,0,1-14.34,3h-1.1Zm16.13-3.93q3.25-2.46,3.26-5.68a3.68,3.68,0,0,0-1.09-2.79,4.68,4.68,0,0,0-3.36-1.15q-3.15,0-7.5,3,1.92.75,8.69,6.57"/><path class="cls-3" d="M868,347.54v-3.72h2.94a10,10,0,0,1,2.44.25c-1.86-1.27-2.79-3.5-2.79-6.71a10.16,10.16,0,0,1,2.68-7.29,10.72,10.72,0,0,1,8.12-3.15q9.43,0,9.43,9.67v11Zm18.24-10.22c0-4.45-1.71-6.68-5.15-6.69a5.4,5.4,0,0,0-4.28,1.82,6.81,6.81,0,0,0-1.54,4.64q0,6.68,7.17,6.69h3.84Z"/><path class="cls-3" d="M900.91,357.71l.32-3.85a30,30,0,0,0,6.73.77q7.85,0,7.84-6.23v-.86H912q-11.34,0-11.34-10a10.58,10.58,0,0,1,2.68-7.44q3-3.22,8.31-3.22a24.28,24.28,0,0,1,8.77,1.51v19.63a9.21,9.21,0,0,1-2.92,7.14q-3.37,3.12-9.94,3.11a36.58,36.58,0,0,1-6.6-.6m14.89-26.19a10.63,10.63,0,0,0-4.65-.92,5.41,5.41,0,0,0-4.29,1.85,6.85,6.85,0,0,0-1.54,4.65q0,6.72,7.18,6.73h3.3Z"/><path class="cls-3" d="M941.72,347.54q-11.36,0-11.34-10a10.58,10.58,0,0,1,2.66-7.44q3-3.22,8.32-3.22a24.28,24.28,0,0,1,8.77,1.51v15.39h4.49v3.72Zm3.84-16a10.65,10.65,0,0,0-4.65-.92,5.39,5.39,0,0,0-4.29,1.85,6.84,6.84,0,0,0-1.55,4.65q0,6.72,7.19,6.73h3.3Z"/><path class="cls-3" d="M954,343.82h6.11V327.43h4.71v16.39h6.28v3.72H954Zm5.41,11.95a2.46,2.46,0,0,1-1.86.75,2.39,2.39,0,0,1-1.76-.75,2.58,2.58,0,0,1-.72-1.86,2.52,2.52,0,0,1,.72-1.8,2.36,2.36,0,0,1,1.76-.78,2.47,2.47,0,0,1,1.86.76,2.6,2.6,0,0,1,.7,1.86,2.64,2.64,0,0,1-.7,1.85m6.63,0a2.35,2.35,0,0,1-1.77.76,2.41,2.41,0,0,1-1.8-.76,2.59,2.59,0,0,1-.73-1.85,2.46,2.46,0,0,1,.73-1.8,2.48,2.48,0,0,1,3.49-.09l.08.09a2.54,2.54,0,0,1,.74,1.86,2.64,2.64,0,0,1-.74,1.86"/><polygon class="cls-3" points="970.43 343.82 976.55 343.82 976.55 327.43 981.25 327.43 981.25 347.54 970.43 347.54 970.43 343.82"/><polygon class="cls-3" points="987.78 317.38 992.49 317.38 992.49 343.82 997.01 343.82 997.01 347.54 987.78 347.54 987.78 317.38"/><path class="cls-3" d="M996.37,343.82h6V327.43h4.7v1.42a46.15,46.15,0,0,1-.48,7h.05a13.56,13.56,0,0,1,4.65-6.68,10.8,10.8,0,0,1,6.71-2.3,8.24,8.24,0,0,1,6.5,2.57c1.51,1.7,2.26,4.09,2.26,7.15a10.74,10.74,0,0,1-2.36,7.18h5.39v3.72H996.37Zm18,0q7.49,0,7.49-6.85c0-4.19-1.62-6.28-4.84-6.29q-3.82,0-6.75,4.14a19.11,19.11,0,0,0-3.3,9Z"/><path class="cls-3" d="M1028.78,343.82h17.15a26.85,26.85,0,0,0,.27-3.91c0-3.1-.65-5.34-2-6.72s-3.71-2.26-6.92-2.26a29.09,29.09,0,0,0-4.85.36v-3.72a38.56,38.56,0,0,1,5.26-.4q7,0,10.13,3.17c2,2,3,5.1,3,9.29a47.29,47.29,0,0,1-.69,7.88h-21.38Z"/><rect class="cls-3" x="1056.52" y="317.38" width="4.7" height="30.15"/><path class="cls-3" d="M1087.53,347.54q-8.12,0-11.86-3.28-3.43-3.06-3.45-9.3a18.62,18.62,0,0,1,1.24-6.92l5-.87a16.5,16.5,0,0,0-1.58,7.24q0,4.9,2.37,7c1.72,1.56,4.63,2.35,8.75,2.35h3.35V327.74a38.85,38.85,0,0,1,8.12-.82c3.5,0,6,.84,7.58,2.51,1.42,1.5,2.13,3.81,2.13,6.89v7.5h4v3.72h-8.52V336.89q0-3.4-1.24-4.83c-.82-.94-2.23-1.42-4.23-1.42a18.5,18.5,0,0,0-3.24.29v16.61Z"/><polygon class="cls-3" points="1112.57 343.82 1118.25 343.82 1118.25 317.38 1122.97 317.38 1122.97 343.82 1127.46 343.82 1127.46 347.54 1112.57 347.54 1112.57 343.82"/><path class="cls-3" d="M968,320.76a15.62,15.62,0,0,1,2.73.21,1.82,1.82,0,0,1-1-1.85,4,4,0,0,1,1.33-3.07,6.44,6.44,0,0,1,4.46-1.45c.44,0,1.23,0,2.38.17l-.42,2.78a19.08,19.08,0,0,0-2.13-.16c-1.49,0-2.23.53-2.23,1.59s1.06,1.79,3.17,1.79h2.34v2.79H968Z"/><path class="cls-3" d="M1164.56,320.76a15.55,15.55,0,0,1,2.73.21,1.85,1.85,0,0,1-1-1.85,4,4,0,0,1,1.34-3.07,6.43,6.43,0,0,1,4.45-1.45c.45,0,1.24,0,2.38.17l-.42,2.78a18.73,18.73,0,0,0-2.12-.16c-1.49,0-2.24.53-2.24,1.59s1.06,1.79,3.17,1.79h2.35v2.79h-10.62Z"/><rect class="cls-3" x="414.26" y="315.9" width="291.31" height="291.31"/><polygon class="cls-4" points="629.02 513.11 593.67 503.68 557.13 556.71 501.75 537.86 444.99 561.76 444.99 576.22 673.81 576.22 673.81 447.5 629.02 513.11"/><path class="cls-4" d="M553.66,422.77a2.57,2.57,0,1,0,2.56,2.57,2.56,2.56,0,0,0-2.56-2.57h0"/><path class="cls-4" d="M562.83,423a2.4,2.4,0,1,0,2.38,2.4,2.39,2.39,0,0,0-2.38-2.4h0"/><path class="cls-4" d="M557.21,432.52a2.16,2.16,0,1,0,2.16-2.16,2.17,2.17,0,0,0-2.16,2.16h0"/><path class="cls-4" d="M549.08,434.28a2.54,2.54,0,1,0,2.55-2.54h0a2.54,2.54,0,0,0-2.53,2.54h0"/><path class="cls-4" d="M542.87,429.29a2.54,2.54,0,1,0,2.55-2.53h0a2.53,2.53,0,0,0-2.53,2.53"/><path class="cls-4" d="M547,421.37a1.58,1.58,0,1,0-1.59,1.58,1.59,1.59,0,0,0,1.59-1.57h0"/><path class="cls-4" d="M551.61,417.88a1.48,1.48,0,1,0-1.47-1.49v0a1.46,1.46,0,0,0,1.45,1.47h0"/><path class="cls-4" d="M556.82,418.18a2.57,2.57,0,1,0,2.59-2.55h0a2.54,2.54,0,0,0-2.55,2.53v0"/><path class="cls-4" d="M569.37,425.36a2.62,2.62,0,1,0,2.63-2.63,2.62,2.62,0,0,0-2.63,2.63v0"/><path class="cls-4" d="M570.18,431.16a2.11,2.11,0,1,0,2.12,2.12,2.14,2.14,0,0,0-2.12-2.12"/><path class="cls-4" d="M565.1,437.75a1.94,1.94,0,1,0,1.92,2v0a1.93,1.93,0,0,0-1.92-1.94h0"/><path class="cls-4" d="M555.81,443.26a1.93,1.93,0,1,0,1.92-1.93,1.93,1.93,0,0,0-1.92,1.93v0"/><path class="cls-4" d="M547.32,443.26a2.27,2.27,0,1,0,2.26-2.27,2.27,2.27,0,0,0-2.26,2.27"/><path class="cls-4" d="M540.91,439.69a1.33,1.33,0,0,0,2.65,0,1.34,1.34,0,0,0-1.33-1.33h0a1.32,1.32,0,0,0-1.32,1.31v0"/><path class="cls-4" d="M537.14,431.93a1.38,1.38,0,1,0,1.38,1.38h0a1.38,1.38,0,0,0-1.38-1.38"/><path class="cls-4" d="M533.93,425.36a1.4,1.4,0,1,0,1.4-1.4,1.4,1.4,0,0,0-1.4,1.4"/><path class="cls-4" d="M535.74,417.38a1.4,1.4,0,1,0,1.42-1.38h0a1.42,1.42,0,0,0-1.4,1.38"/><path class="cls-4" d="M540.78,411a1.46,1.46,0,1,0,1.47-1.43h0a1.43,1.43,0,0,0-1.45,1.41v0"/><path class="cls-4" d="M549.58,409a1.48,1.48,0,1,0-1.47-1.48,1.47,1.47,0,0,0,1.47,1.48"/><path class="cls-4" d="M556.54,407.47a1.2,1.2,0,1,0,1.21-1.19h0a1.21,1.21,0,0,0-1.19,1.19"/><path class="cls-4" d="M562.53,411a2.56,2.56,0,1,0,2.56-2.56,2.56,2.56,0,0,0-2.56,2.56"/><path class="cls-4" d="M570.18,415a2.4,2.4,0,1,0,2.4,2.4h0a2.42,2.42,0,0,0-2.4-2.39"/><path class="cls-4" d="M581.16,423.31a2,2,0,1,0,0,4.06h0a2,2,0,1,0,0-4.06"/><path class="cls-4" d="M581.47,433.46A1.53,1.53,0,1,0,580,435h0a1.51,1.51,0,0,0,1.52-1.51h0"/><path class="cls-4" d="M577.71,440.84a1.33,1.33,0,1,0-1.22,1.22,1.34,1.34,0,0,0,1.22-1.22"/><path class="cls-4" d="M569.49,446.85a1.32,1.32,0,1,0,1.32-1.32h0a1.3,1.3,0,0,0-1.32,1.3v0"/><path class="cls-4" d="M563.7,453.21a2.27,2.27,0,1,0-2.26-2.28v0a2.26,2.26,0,0,0,2.26,2.25"/><path class="cls-4" d="M553.46,452.78a2.26,2.26,0,1,0,2.26-2.28,2.27,2.27,0,0,0-2.26,2.28h0"/><path class="cls-4" d="M547.55,454.27a2.11,2.11,0,1,0-2.11-2.1,2.11,2.11,0,0,0,2.11,2.1h0"/><path class="cls-4" d="M537.47,449.16a2.44,2.44,0,1,0,2.46-2.42h0a2.44,2.44,0,0,0-2.43,2.42"/><path class="cls-4" d="M532.3,444.06a1.18,1.18,0,0,0,1.16,1.19h0a1.2,1.2,0,0,0,1.2-1.19h0a1.2,1.2,0,1,0-2.4,0h0"/><path class="cls-4" d="M527.44,437.28a1.44,1.44,0,0,0,1.42,1.44h0a1.45,1.45,0,1,0-1.44-1.45h0"/><path class="cls-4" d="M525.09,429.44a1.38,1.38,0,1,0,1.39-1.36h0a1.35,1.35,0,0,0-1.37,1.34v0"/><path class="cls-4" d="M524.43,421.25a2,2,0,1,0,0-.27v.27"/><path class="cls-4" d="M528.88,414.87a1.46,1.46,0,0,0,1.47-1.45h0a1.47,1.47,0,1,0-1.49,1.45h0"/><path class="cls-4" d="M531.89,406.63a1.65,1.65,0,1,0,3.3.25,1,1,0,0,0,0-.25,1.65,1.65,0,0,0-3.3,0"/><path class="cls-4" d="M538.67,401.53a1.25,1.25,0,1,0,1.25-1.24h0a1.24,1.24,0,0,0-1.23,1.24"/><path class="cls-4" d="M546.24,398.56a1.31,1.31,0,0,0,2.61,0,1.31,1.31,0,1,0-2.61,0"/><path class="cls-4" d="M554.4,397.92a1.32,1.32,0,1,0,1.32-1.32h0a1.32,1.32,0,0,0-1.32,1.32"/><path class="cls-4" d="M562.62,399.73a1.11,1.11,0,1,0,1.11-1.11,1.11,1.11,0,0,0-1.11,1.11"/><path class="cls-4" d="M569.69,403.84a1.12,1.12,0,1,0,1.12-1.12,1.12,1.12,0,0,0-1.12,1.12"/><path class="cls-4" d="M576.39,407.23a2.63,2.63,0,1,0,2.61,2.64v0a2.63,2.63,0,0,0-2.61-2.61"/><path class="cls-4" d="M580,415.21a2,2,0,1,0,2,2.05v0a2,2,0,0,0-2-2"/><path class="cls-4" d="M590.31,423.5a1.86,1.86,0,1,0,1.87,1.86,1.86,1.86,0,0,0-1.87-1.86"/><path class="cls-4" d="M589.42,435.08a1.58,1.58,0,1,0-1.59-1.59,1.57,1.57,0,0,0,1.59,1.59h0"/><path class="cls-4" d="M585.25,441.25a1.45,1.45,0,1,0,1.45-1.45h0a1.45,1.45,0,0,0-1.45,1.45"/><path class="cls-4" d="M582.33,446.1a2.11,2.11,0,1,0,.28,0h-.28"/><path class="cls-4" d="M576.54,455.69a1.68,1.68,0,1,0-1.69-1.68,1.69,1.69,0,0,0,1.69,1.68"/><path class="cls-4" d="M569.58,460.5a2.11,2.11,0,1,0-.28,0h.28"/><path class="cls-4" d="M559.71,461.1a2.12,2.12,0,0,0,4.23,0,2.13,2.13,0,0,0-2.11-2.13h0a2.11,2.11,0,0,0-2.1,2.11"/><path class="cls-4" d="M551.5,462a2.17,2.17,0,1,0,2.18-2.16h0A2.14,2.14,0,0,0,551.5,462v0"/><path class="cls-4" d="M545.49,463.22a2.12,2.12,0,1,0-2.12-2.12h0a2.1,2.1,0,0,0,2.1,2.12h0"/><path class="cls-4" d="M537.75,460.24a1.86,1.86,0,1,0-1.86-1.86,1.87,1.87,0,0,0,1.86,1.86"/><path class="cls-4" d="M530.8,452.11a1.87,1.87,0,1,0,1.86,1.86,1.87,1.87,0,0,0-1.86-1.86"/><path class="cls-4" d="M523.8,448.21A1.2,1.2,0,1,0,525,447h0a1.19,1.19,0,0,0-1.19,1.19"/><path class="cls-4" d="M522.07,441.25a1.45,1.45,0,0,0-2.9-.23v.23a1.45,1.45,0,1,0,2.9.23.88.88,0,0,0,0-.23"/><path class="cls-4" d="M517.91,431.44A2.06,2.06,0,1,0,520,433.5h0a2.05,2.05,0,0,0-2.06-2.05"/><path class="cls-4" d="M517,423.29a2.06,2.06,0,1,0,2,2.07v0a2.06,2.06,0,0,0-2-2"/><path class="cls-4" d="M515.86,417.18a2.06,2.06,0,1,0,2-2.05h0a2,2,0,0,0-2,2.05"/><path class="cls-4" d="M519.13,409.44a1.42,1.42,0,1,0,1.49-1.49,1.49,1.49,0,0,0-1.49,1.49"/><path class="cls-4" d="M525,400.83a1.66,1.66,0,1,0,1.64,1.68h0a1.65,1.65,0,0,0-1.64-1.67"/><path class="cls-4" d="M529.4,396.69a1.4,1.4,0,1,0,1.4-1.39,1.39,1.39,0,0,0-1.4,1.39"/><path class="cls-4" d="M536.28,392.31a1.48,1.48,0,1,0,1.47-1.48,1.47,1.47,0,0,0-1.47,1.48v0"/><path class="cls-4" d="M544.21,389.59a1.3,1.3,0,1,0,1.31-1.28h0a1.3,1.3,0,0,0-1.28,1.29"/><path class="cls-4" d="M553.66,386.28a2.41,2.41,0,1,0,.07,0h0"/><path class="cls-4" d="M561.81,387.25a2.35,2.35,0,1,0,2.36,2.34,2.35,2.35,0,0,0-2.36-2.34h0"/><path class="cls-4" d="M569.58,390a2.34,2.34,0,1,0,2.33,2.35,2.34,2.34,0,0,0-2.33-2.35"/><path class="cls-4" d="M576.54,394.39a2.3,2.3,0,1,0,2.27,2.31v0a2.29,2.29,0,0,0-2.27-2.28"/><path class="cls-4" d="M582.33,400.33a2.17,2.17,0,1,0,2.17,2.17,2.17,2.17,0,0,0-2.17-2.17h0"/><path class="cls-4" d="M586.7,411.26a1.87,1.87,0,1,0-1.86-1.86,1.86,1.86,0,0,0,1.86,1.86"/><path class="cls-4" d="M587.56,417.18a1.86,1.86,0,1,0,1.86-1.86,1.87,1.87,0,0,0-1.86,1.86"/><path class="cls-4" d="M599.5,423.52a1.86,1.86,0,1,0,1.86,1.86,1.87,1.87,0,0,0-1.86-1.86"/><path class="cls-4" d="M598,433.53a.7.7,0,0,0,.68.74h0a.76.76,0,0,0,.75-.75.75.75,0,0,0-.75-.74.72.72,0,0,0-.71.72v0"/><path class="cls-4" d="M605.77,433.53a.72.72,0,0,0,.69.74h0a.76.76,0,0,0,.75-.75.75.75,0,0,0-.75-.74.72.72,0,0,0-.71.72v0"/><path class="cls-4" d="M595.22,441.46a1.33,1.33,0,1,0,1.34-1.33,1.34,1.34,0,0,0-1.34,1.33h0"/><path class="cls-4" d="M591.7,448.85a1.31,1.31,0,1,0,1.3-1.3h0a1.33,1.33,0,0,0-1.3,1.3"/><path class="cls-4" d="M586.12,455.5a2.05,2.05,0,0,0,2,2.06h0a2.06,2.06,0,0,0,.28-4.11h-.28a2,2,0,0,0-2,2v0"/><path class="cls-4" d="M584.3,461.17a2.06,2.06,0,1,0-2.06,2.07,2.06,2.06,0,0,0,2.06-2.07h0"/><path class="cls-4" d="M573.38,465.73a2,2,0,1,0,2-2h0a2,2,0,0,0-2,2v0"/><path class="cls-4" d="M565.62,468.93a2.22,2.22,0,1,0,2.24-2.2h0a2.22,2.22,0,0,0-2.2,2.2"/><path class="cls-4" d="M562,470.76a2.15,2.15,0,1,0-2.15,2.15,2.15,2.15,0,0,0,2.15-2.15h0"/><path class="cls-4" d="M553.89,471.13a2.28,2.28,0,1,0,0,.05v-.05"/><path class="cls-4" d="M541.2,470a2.29,2.29,0,1,0,2.29-2.29A2.29,2.29,0,0,0,541.2,470h0"/><path class="cls-4" d="M533.15,467.48a2.49,2.49,0,1,0,2.5-2.48,2.5,2.5,0,0,0-2.5,2.48v0"/><path class="cls-4" d="M527,463.6a1.37,1.37,0,0,0,1.38,1.37,1.4,1.4,0,1,0-1.38-1.41"/><path class="cls-4" d="M520.58,458.49a1.4,1.4,0,1,0,1.4-1.4,1.4,1.4,0,0,0-1.4,1.4"/><path class="cls-4" d="M516.58,451.05a1.24,1.24,0,1,0,1.23,1.25,1.25,1.25,0,0,0-1.23-1.25"/><path class="cls-4" d="M512.33,443.94a1.3,1.3,0,1,0,1.29,1.31,1.3,1.3,0,0,0-1.29-1.31h0"/><path class="cls-4" d="M508.17,437.54a1.3,1.3,0,1,0,2.59,0,1.3,1.3,0,0,0-2.59-.05v0"/><path class="cls-4" d="M509.66,429.47a1.66,1.66,0,1,0-1.67,1.64h0a1.65,1.65,0,0,0,1.66-1.64h0"/><path class="cls-4" d="M508,422.9a1.67,1.67,0,1,0-1.65-1.67h0A1.66,1.66,0,0,0,508,422.9"/><path class="cls-4" d="M508.1,413.16a1.37,1.37,0,1,0,2.74,0,1.37,1.37,0,0,0-2.74,0v0"/><path class="cls-4" d="M512.33,406.78a1.32,1.32,0,1,0-1.33-1.32h0a1.32,1.32,0,0,0,1.31,1.32h0"/><path class="cls-4" d="M515.06,398.39a1.52,1.52,0,1,0,1.52-1.51,1.52,1.52,0,0,0-1.52,1.51v0"/><path class="cls-4" d="M520.41,392.21a1.58,1.58,0,1,0,1.57-1.58,1.58,1.58,0,0,0-1.57,1.58h0"/><path class="cls-4" d="M528.41,386.26a.83.83,0,1,0,.74.74.83.83,0,0,0-.74-.74"/><path class="cls-4" d="M535.61,381.23a2,2,0,0,0-2,2,2,2,0,0,0,3.91,0,2,2,0,0,0-2-2"/><path class="cls-4" d="M542.07,380.67a1.4,1.4,0,1,0,1.39-1.39,1.4,1.4,0,0,0-1.39,1.39"/><path class="cls-4" d="M549.45,379.55a2.15,2.15,0,1,0,2.14-2.16,2.16,2.16,0,0,0-2.14,2.16h0"/><path class="cls-4" d="M559.83,377.53a2.39,2.39,0,1,0,.3,0h-.3"/><path class="cls-4" d="M567.82,379.38a2.37,2.37,0,1,0,2.37,2.41,2.37,2.37,0,0,0-2.37-2.41h0"/><path class="cls-4" d="M575.37,383.08a1.89,1.89,0,0,0-1.9,1.91,1.91,1.91,0,1,0,1.91-1.91h0"/><path class="cls-4" d="M582.24,387.3a2.2,2.2,0,1,0,2.19,2.21,2.2,2.2,0,0,0-2.19-2.21h0"/><path class="cls-4" d="M588.19,393a2.2,2.2,0,1,0,2.17,2.22v0a2.19,2.19,0,0,0-2.17-2.19"/><path class="cls-4" d="M590.43,401.84a2.57,2.57,0,1,0,2.57-2.58,2.58,2.58,0,0,0-2.57,2.58v0"/><path class="cls-4" d="M594.46,409.25a2.11,2.11,0,1,0,0-.05v.05"/><path class="cls-4" d="M596.92,417.18a1.86,1.86,0,1,0,1.86-1.86,1.87,1.87,0,0,0-1.86,1.86"/><path class="cls-4" d="M607.48,425.36a1.17,1.17,0,1,0,1.19-1.19,1.17,1.17,0,0,0-1.19,1.19v0"/><path class="cls-4" d="M606.21,440.75a.81.81,0,0,0-.82.8h0a.82.82,0,1,0,1.64,0,.8.8,0,0,0-.82-.8h0"/><path class="cls-4" d="M590.56,462.76a2.5,2.5,0,1,0,2.52-2.48h0a2.49,2.49,0,0,0-2.5,2.48h0"/><path class="cls-4" d="M588,469.42a2,2,0,1,0-2-2h0a2,2,0,0,0,2,2"/><path class="cls-4" d="M568.21,479a2.33,2.33,0,1,0-2.33,2.35,2.33,2.33,0,0,0,2.33-2.35v0"/><path class="cls-4" d="M557.77,477.62a2.58,2.58,0,1,0,2.57,2.59h0a2.58,2.58,0,0,0-2.57-2.58"/><path class="cls-4" d="M552,480.2a2.45,2.45,0,1,0-2.44,2.44h0a2.42,2.42,0,0,0,2.44-2.4v0"/><path class="cls-4" d="M543.57,479a2.16,2.16,0,1,0-2.16,2.16h0a2.16,2.16,0,0,0,2.15-2.16"/><path class="cls-4" d="M533.55,477.92a1.37,1.37,0,0,0,0-2.74,1.37,1.37,0,1,0,0,2.74"/><path class="cls-4" d="M524.79,473a1.38,1.38,0,1,0,1.38-1.38h0a1.35,1.35,0,0,0-1.36,1.35v0"/><path class="cls-4" d="M518,468.36A1.39,1.39,0,1,0,519.4,467h0a1.36,1.36,0,0,0-1.38,1.34v0"/><path class="cls-4" d="M514.46,462.76a1.14,1.14,0,0,0-1.12-1.14,1.13,1.13,0,0,0,0,2.26h0a1.12,1.12,0,0,0,1.12-1.12"/><path class="cls-4" d="M508.21,455a1.32,1.32,0,1,0,1.32,1.32v0a1.32,1.32,0,0,0-1.32-1.3"/><path class="cls-4" d="M505.46,449.22a1.37,1.37,0,1,0-1.38,1.35h0a1.35,1.35,0,0,0,1.36-1.35h0"/><path class="cls-4" d="M499.65,441.55a1.43,1.43,0,0,0,1.43,1.45h.07a1.44,1.44,0,1,0-1.45-1.45"/><path class="cls-4" d="M499.29,431.7a1.87,1.87,0,1,0,1.86,1.87,1.87,1.87,0,0,0-1.86-1.87"/><path class="cls-4" d="M498.65,426.8a1.45,1.45,0,1,0,0-2.89,1.45,1.45,0,0,0,0,2.89h0"/><path class="cls-4" d="M497.82,417.18a1.45,1.45,0,1,0,2.89.24,1,1,0,0,0,0-.24,1.45,1.45,0,0,0-2.89-.23.88.88,0,0,0,0,.23"/><path class="cls-4" d="M499.71,409.14a1.4,1.4,0,0,0,2.79,0,1.4,1.4,0,0,0-1.4-1.39,1.38,1.38,0,0,0-1.39,1.38v0"/><path class="cls-4" d="M504.1,399.88a1.61,1.61,0,1,0,.25,0h-.25"/><path class="cls-4" d="M508.21,392.49a1.87,1.87,0,1,0,1.86,1.87,1.87,1.87,0,0,0-1.86-1.87"/><path class="cls-4" d="M513.34,386.08a1.86,1.86,0,1,0,1.86,1.86,1.86,1.86,0,0,0-1.86-1.86"/><path class="cls-4" d="M519.36,380.38a1.91,1.91,0,1,0,.14,3.8,1.9,1.9,0,0,0-.14-3.8"/><path class="cls-4" d="M526.15,374.83a2.88,2.88,0,1,0,2.88,2.88h0a2.88,2.88,0,0,0-2.87-2.87h0"/><path class="cls-4" d="M530.68,374.14a2.88,2.88,0,1,0,2.88-2.87h0a2.87,2.87,0,0,0-2.87,2.86h0"/><path class="cls-4" d="M541.43,369.18a2.55,2.55,0,1,0,2.56,2.53,2.54,2.54,0,0,0-2.56-2.53"/><path class="cls-4" d="M573.8,372.27a1.87,1.87,0,1,0,1.86,1.86,1.86,1.86,0,0,0-1.86-1.86"/><path class="cls-4" d="M581.16,375.88a1.86,1.86,0,1,0,1.86,1.86,1.87,1.87,0,0,0-1.86-1.86"/><path class="cls-4" d="M588,380.38a2,2,0,0,0-2,2,2,2,0,0,0,2,1.94,1.93,1.93,0,0,0,1.95-1.9v0a2,2,0,0,0-1.93-2h0"/><path class="cls-4" d="M592.52,388a1.51,1.51,0,1,0,1.69-1.46H594a1.45,1.45,0,0,0-1.45,1.45h0"/><path class="cls-4" d="M601.4,394.36a2.3,2.3,0,1,0-2.3,2.28h0a2.29,2.29,0,0,0,2.28-2.28"/><path class="cls-4" d="M600.81,401.48a2.37,2.37,0,1,0,2.46-2.44,2.45,2.45,0,0,0-2.46,2.44"/><path class="cls-4" d="M606.21,407.12a2,2,0,1,0,1.88,1.88,2,2,0,0,0-1.88-1.88"/><path class="cls-4" d="M606.88,417.18a1.18,1.18,0,1,0,1.18-1.17,1.18,1.18,0,0,0-1.18,1.17h0"/><path class="cls-4" d="M616.24,425.36a1.6,1.6,0,1,0,1.6-1.6,1.6,1.6,0,0,0-1.6,1.6h0"/><path class="cls-4" d="M550.29,489.23A2.8,2.8,0,1,0,547.5,492a2.79,2.79,0,0,0,2.79-2.79"/><path class="cls-4" d="M541.69,488a2.32,2.32,0,1,0-2.33,2.31h0a2.3,2.3,0,0,0,2.32-2.3h0"/><path class="cls-4" d="M529.38,485.58a2.12,2.12,0,1,0,2.11-2.12h0a2.15,2.15,0,0,0-2.11,2.12"/><path class="cls-4" d="M524,483.63a1.4,1.4,0,1,0-1.4-1.4,1.4,1.4,0,0,0,1.4,1.4"/><path class="cls-4" d="M518.39,478a1.46,1.46,0,0,0-1.45-1.44h0A1.44,1.44,0,0,0,515.5,478v0a1.45,1.45,0,0,0,1.43,1.46h0a1.47,1.47,0,0,0,1.45-1.46"/><path class="cls-4" d="M509.63,472.85a.93.93,0,1,0,.93-.93.93.93,0,0,0-.93.93"/><path class="cls-4" d="M506.05,467a1.26,1.26,0,1,0-1.29,1.23h0a1.24,1.24,0,0,0,1.26-1.22h0"/><path class="cls-4" d="M498.5,460.35a1.38,1.38,0,1,0,1.38-1.37h0a1.38,1.38,0,0,0-1.37,1.37"/><path class="cls-4" d="M494.39,453.19a1.45,1.45,0,1,0,1.45-1.45h0a1.45,1.45,0,0,0-1.45,1.45"/><path class="cls-4" d="M492.77,444.13a1.45,1.45,0,1,0,1.44,1.44,1.45,1.45,0,0,0-1.44-1.44"/><path class="cls-4" d="M490.67,436.29a1.33,1.33,0,1,0-.05,2.66,1.32,1.32,0,0,0,1.35-1.3v0a1.33,1.33,0,0,0-1.31-1.33"/><path class="cls-4" d="M489.61,431.07a1.61,1.61,0,1,0-1.6-1.62v0a1.6,1.6,0,0,0,1.6,1.6h0"/><path class="cls-4" d="M489.61,422.63a1.4,1.4,0,1,0-1.4-1.39,1.4,1.4,0,0,0,1.4,1.39"/><path class="cls-4" d="M488.92,413.09a1.76,1.76,0,1,0,3.52,0,1.75,1.75,0,0,0-1.75-1.76h0a1.75,1.75,0,0,0-1.75,1.75"/><path class="cls-4" d="M491.38,405.12a1.38,1.38,0,1,0,1.4-1.36h0a1.36,1.36,0,0,0-1.37,1.35h0"/><path class="cls-4" d="M495.87,398.43a1.83,1.83,0,1,0,1.85-1.82h0a1.84,1.84,0,0,0-1.83,1.82"/><path class="cls-4" d="M586.92,368.57a1.86,1.86,0,1,0,1.86,1.86,1.86,1.86,0,0,0-1.86-1.86"/><path class="cls-4" d="M593.67,373.41a1.77,1.77,0,1,0,1.77,1.77,1.76,1.76,0,0,0-1.77-1.77"/><path class="cls-4" d="M599.76,379a1.66,1.66,0,1,0,1.53,1.53,1.66,1.66,0,0,0-1.53-1.53"/><path class="cls-4" d="M603.45,387a1.62,1.62,0,0,0,1.61,1.65h0a1.66,1.66,0,0,0,0-3.31,1.63,1.63,0,0,0-1.65,1.59.15.15,0,0,0,0,.07"/><path class="cls-4" d="M608.63,396.25a2.4,2.4,0,1,0-2.38-2.41h0a2.38,2.38,0,0,0,2.36,2.4h0"/><path class="cls-4" d="M611.66,401.26a1.48,1.48,0,0,0,1.48,1.48h0a1.49,1.49,0,0,0,1.36-1.6,1.43,1.43,0,0,0-2.85.12h0"/><path class="cls-4" d="M615.71,406.78a2.29,2.29,0,1,0,.29,0h-.29"/><path class="cls-4" d="M614.78,417.18a1.6,1.6,0,1,0,1.57-1.61h0a1.6,1.6,0,0,0-1.57,1.61"/><path class="cls-4" d="M547.87,498.22a2.42,2.42,0,1,0-2.43,2.43,2.43,2.43,0,0,0,2.43-2.43h0"/><path class="cls-4" d="M539.65,496.86a2.31,2.31,0,1,0-2.31,2.32,2.3,2.3,0,0,0,2.31-2.32h0"/><path class="cls-4" d="M527.87,494.56a1.58,1.58,0,1,0,3.15,0h0a1.58,1.58,0,0,0-3.15,0h0"/><path class="cls-4" d="M520.9,491.43a.93.93,0,1,0,.93-.94.93.93,0,0,0-.93.94"/><path class="cls-4" d="M513.75,487.44a.93.93,0,1,0,1.86.11.93.93,0,0,0-.87-1h-.06a.89.89,0,0,0-.93.84v0"/><path class="cls-4" d="M507,482.7a.93.93,0,1,0,.93-.93.93.93,0,0,0-.93.93"/><path class="cls-4" d="M502.87,477.21a1.07,1.07,0,0,0-2.14,0h0a1.07,1.07,0,0,0,2.14,0"/><path class="cls-4" d="M495.08,471.08a1.24,1.24,0,1,0,1.23-1.25,1.24,1.24,0,0,0-1.23,1.25"/><path class="cls-4" d="M492.77,464.38a1.27,1.27,0,0,0-1.25-1.27h0a1.26,1.26,0,0,0,0,2.51,1.26,1.26,0,0,0,1.26-1.24"/><path class="cls-4" d="M485.05,457.18a2.53,2.53,0,1,0,2.53-2.55,2.53,2.53,0,0,0-2.53,2.55"/><path class="cls-4" d="M484.38,446.7a2.88,2.88,0,1,0,2.88,2.88h0a2.86,2.86,0,0,0-2.87-2.87h0"/><path class="cls-4" d="M482.15,443.26a1.6,1.6,0,1,0-1.6-1.6,1.6,1.6,0,0,0,1.6,1.6"/><path class="cls-4" d="M480.77,432.09a1.47,1.47,0,1,0,1.47,1.45,1.46,1.46,0,0,0-1.47-1.45"/><path class="cls-4" d="M480.32,426.8a1.46,1.46,0,0,0,1.44-1.46h0a1.43,1.43,0,0,0-1.42-1.43h0a1.45,1.45,0,0,0-1.45,1.43h0a1.45,1.45,0,0,0,1.45,1.46"/><path class="cls-4" d="M479.34,417.18a1.42,1.42,0,0,0,1.41,1.44h0a1.44,1.44,0,0,0,0-2.87,1.41,1.41,0,0,0-1.43,1.42h0"/><path class="cls-4" d="M481.89,410a1.19,1.19,0,1,0,2.38.07,1.19,1.19,0,0,0-1.15-1.23h0a1.2,1.2,0,0,0-1.19,1.2"/><path class="cls-4" d="M590.84,363.25a1.87,1.87,0,1,0,1.87-1.87,1.87,1.87,0,0,0-1.87,1.87"/><path class="cls-4" d="M598,368a1.36,1.36,0,0,0,1.35,1.39h0A1.4,1.4,0,1,0,598,368v0"/><path class="cls-4" d="M607,373.49a1.52,1.52,0,0,0-3-.24v.24a1.52,1.52,0,0,0,3,0"/><path class="cls-4" d="M611,377.65a2,2,0,0,0-1.94,2h0a1.93,1.93,0,0,0,1.91,1.95h0a2,2,0,0,0,2-1.93v0a2,2,0,0,0-2-2"/><path class="cls-4" d="M613.6,386.32a2.17,2.17,0,1,0,2.2-2.14h0a2.14,2.14,0,0,0-2.16,2.12v0"/><path class="cls-4" d="M615.57,393.32a1.59,1.59,0,1,0,1.59-1.57h0a1.57,1.57,0,0,0-1.59,1.56h0"/><path class="cls-4" d="M622.88,399a2.11,2.11,0,1,0,2.13,2.09h0a2.13,2.13,0,0,0-2.13-2.09"/><path class="cls-4" d="M624.69,409.62A1.72,1.72,0,0,0,623,407.9h0a1.72,1.72,0,0,0,0,3.44h0a1.68,1.68,0,0,0,1.72-1.66.13.13,0,0,0,0-.06"/><path class="cls-4" d="M552.38,507.85a1.67,1.67,0,1,0-1.68,1.67,1.67,1.67,0,0,0,1.68-1.67v0"/><path class="cls-4" d="M543.41,508.89a1.69,1.69,0,1,0-1.68-1.7v0a1.69,1.69,0,0,0,1.68,1.68"/><path class="cls-4" d="M537.47,505.79a2.2,2.2,0,1,0-2.19,2.21,2.21,2.21,0,0,0,2.19-2.21"/><path class="cls-4" d="M526.17,503.52a1.27,1.27,0,0,0,1.24,1.27,1.25,1.25,0,0,0,1.17-1.27,1.22,1.22,0,0,0-1.17-1.16,1.24,1.24,0,0,0-1.24,1.16"/><path class="cls-4" d="M517.81,500.57a1.92,1.92,0,1,0,1.93-1.91h-.06a1.87,1.87,0,0,0-1.87,1.87v0"/><path class="cls-4" d="M513.73,496.8a1.33,1.33,0,1,0-1.34,1.32h0a1.31,1.31,0,0,0,1.33-1.29v0"/><path class="cls-4" d="M506.87,492.35a1.38,1.38,0,1,0-1.4,1.36h0a1.36,1.36,0,0,0,1.38-1.34v0"/><path class="cls-4" d="M500.47,487.22a1.41,1.41,0,1,0-2.81,0,1.4,1.4,0,0,0,1.39,1.41h0a1.4,1.4,0,0,0,1.4-1.39"/><path class="cls-4" d="M495.62,481.45a2.45,2.45,0,1,0-2.46,2.44h0a2.43,2.43,0,0,0,2.44-2.42v0"/><path class="cls-4" d="M490,475.16a2,2,0,1,0-2,2,2,2,0,0,0,2-2h0"/><path class="cls-4" d="M483.25,466.55a1.79,1.79,0,1,0,1.78,1.78,1.79,1.79,0,0,0-1.78-1.78"/><path class="cls-4" d="M476.77,461.14a2.55,2.55,0,1,0,2.56-2.54h0a2.57,2.57,0,0,0-2.55,2.54"/><path class="cls-4" d="M476.12,450.82a2.8,2.8,0,1,0,2.8,2.79v-.05a2.8,2.8,0,0,0-2.8-2.74"/><path class="cls-4" d="M473.7,443.19a2.53,2.53,0,1,0,2.52,2.53h0a2.51,2.51,0,0,0-2.51-2.52h0"/><path class="cls-4" d="M472.06,440.39a2.75,2.75,0,1,0-2.75-2.79,2.79,2.79,0,0,0,2.75,2.79"/><path class="cls-4" d="M471.26,431.16a1.69,1.69,0,1,0-1.68-1.69h0a1.68,1.68,0,0,0,1.68,1.68"/><path class="cls-4" d="M471.26,422.57a1.33,1.33,0,0,0,1.31-1.34h0a1.32,1.32,0,0,0-2.63,0,1.34,1.34,0,0,0,1.31,1.35h0"/><path class="cls-4" d="M473.51,413.05a1.45,1.45,0,1,0-1.45,1.45h0a1.45,1.45,0,0,0,1.45-1.45"/><path class="cls-4" d="M599.06,355.21a1.47,1.47,0,1,0,1.48,1.46,1.47,1.47,0,0,0-1.48-1.46h0"/><path class="cls-4" d="M605.09,358.73a2.12,2.12,0,1,0,2.13,2.11,2.11,2.11,0,0,0-2.13-2.11h0"/><path class="cls-4" d="M611.29,364.09a2.22,2.22,0,1,0,2.2,2.24v0a2.23,2.23,0,0,0-2.2-2.2"/><path class="cls-4" d="M616.88,370.35a2,2,0,1,0-.27,3.91h.27a2,2,0,0,0,0-3.91"/><path class="cls-4" d="M619.87,378.88a2,2,0,0,0,1.94,2h0a1.93,1.93,0,0,0,1.94-1.92v0a2,2,0,0,0-1.94-2h0a2,2,0,0,0-2,2"/><path class="cls-4" d="M624.34,385.89a1.78,1.78,0,1,0,1.79-1.79,1.78,1.78,0,0,0-1.79,1.79v0"/><path class="cls-4" d="M523.16,511.68a1.44,1.44,0,1,0,1.44-1.44,1.44,1.44,0,0,0-1.44,1.44"/><path class="cls-4" d="M520.5,509.63a2.87,2.87,0,0,0-5.74-.32,1.71,1.71,0,0,0,0,.32,2.87,2.87,0,0,0,5.74,0"/><path class="cls-4" d="M511.58,506.09a1.37,1.37,0,1,0-1.37,1.37,1.37,1.37,0,0,0,1.37-1.37"/><path class="cls-4" d="M503.15,500.8a1.06,1.06,0,1,0,1.06,1.08,1.06,1.06,0,0,0-1.06-1.08h0"/><path class="cls-4" d="M498,497a1.47,1.47,0,1,0-1.47,1.48A1.47,1.47,0,0,0,498,497v0"/><path class="cls-4" d="M491.78,491.61a1.48,1.48,0,1,0-1.49,1.47h0a1.47,1.47,0,0,0,1.48-1.46h0"/><path class="cls-4" d="M484.62,487a1.41,1.41,0,1,0-1.41-1.41h0A1.41,1.41,0,0,0,484.6,487h0"/><path class="cls-4" d="M479.49,477.21a2,2,0,0,0-2,2h0a2,2,0,1,0,4.07.28v-.28a2,2,0,0,0-2-2h0"/><path class="cls-4" d="M475,474.59a2.22,2.22,0,1,0-2.2-2.24v0a2.22,2.22,0,0,0,2.2,2.22h0"/><path class="cls-4" d="M471.06,467.7a2.58,2.58,0,1,0-2.57-2.6v0a2.58,2.58,0,0,0,2.57,2.57"/><path class="cls-4" d="M465.05,457.56a2.8,2.8,0,1,0,2.79-2.79,2.79,2.79,0,0,0-2.79,2.79"/><path class="cls-4" d="M465.29,447.17a2.57,2.57,0,1,0-.31,5.13h.31a2.57,2.57,0,0,0,0-5.13"/><path class="cls-4" d="M463.46,438.92a2.8,2.8,0,1,0,2.79,2.8,2.8,2.8,0,0,0-2.79-2.8"/><path class="cls-4" d="M462.34,430.74a2.82,2.82,0,1,0,.05,0h-.05"/><path class="cls-4" d="M462,427.93a2.6,2.6,0,1,0-2.59-2.61v0a2.6,2.6,0,0,0,2.59,2.59"/><path class="cls-4" d="M462.34,419.73a2.6,2.6,0,1,0-2.59-2.61,2.61,2.61,0,0,0,2.59,2.61h0"/><path class="cls-4" d="M461.7,409a1.77,1.77,0,1,0,1.77-1.76h0A1.75,1.75,0,0,0,461.7,409h0"/><path class="cls-4" d="M604.15,347a1.87,1.87,0,1,0,1.87,1.87,1.87,1.87,0,0,0-1.87-1.87"/><path class="cls-4" d="M609.9,351.57a2.12,2.12,0,0,0-.06,4.23,2.13,2.13,0,0,0,2.15-2.09v0a2.11,2.11,0,0,0-2.1-2.11h0"/><path class="cls-4" d="M631.55,378.32a1.8,1.8,0,1,0,1.82-1.77h0a1.8,1.8,0,0,0-1.79,1.77"/><path class="cls-4" d="M510,514.81a2.41,2.41,0,1,0-4.81-.27v.27a2.41,2.41,0,0,0,4.81,0"/><path class="cls-4" d="M500.88,514.11a2.79,2.79,0,1,0-2.86-2.79,2.84,2.84,0,0,0,2.86,2.79"/><path class="cls-4" d="M495.24,506.68a1.19,1.19,0,1,0-1.19,1.2,1.18,1.18,0,0,0,1.19-1.2h0"/><path class="cls-4" d="M489,501.58a1.45,1.45,0,1,0-1.45,1.45,1.45,1.45,0,0,0,1.45-1.45"/><path class="cls-4" d="M480.23,495.92a1.4,1.4,0,1,0,1.36-1.43,1.4,1.4,0,0,0-1.4,1.4"/><path class="cls-4" d="M477.23,492.24a1.67,1.67,0,1,0-1.67-1.67,1.67,1.67,0,0,0,1.67,1.67"/><path class="cls-4" d="M466.69,473.07a2.36,2.36,0,0,0-2.37,2.35h0a2.37,2.37,0,1,0,2.37-2.35h0"/><path class="cls-4" d="M462.79,466.31a2.79,2.79,0,1,0,2.79,2.79,2.79,2.79,0,0,0-2.79-2.79"/><path class="cls-4" d="M459.53,458.73a2.8,2.8,0,1,0,2.79,2.8,2.8,2.8,0,0,0-2.79-2.8"/><path class="cls-4" d="M456.9,450.94a2.8,2.8,0,1,0,2.79,2.79,2.8,2.8,0,0,0-2.79-2.79"/><path class="cls-4" d="M455.44,443.36a2.4,2.4,0,1,0,2.4,2.4,2.4,2.4,0,0,0-2.4-2.4"/><path class="cls-4" d="M453.56,434.8a2.88,2.88,0,1,0,2.88,2.88,2.87,2.87,0,0,0-2.88-2.88h0"/><path class="cls-4" d="M452.9,432.67a3.21,3.21,0,1,0-3.2-3.22h0a3.21,3.21,0,0,0,3.2,3.21"/><path class="cls-4" d="M451.94,421.22a1.89,1.89,0,1,0,1.89-1.88,1.89,1.89,0,0,0-1.89,1.88h0"/><path class="cls-4" d="M452.72,414a1.78,1.78,0,1,0,1.79-1.77h0a1.77,1.77,0,0,0-1.77,1.77h0"/><path class="cls-4" d="M454,406.78a1.87,1.87,0,1,0,1.86-1.86,1.86,1.86,0,0,0-1.86,1.86"/><path class="cls-4" d="M640.38,377.91a2.29,2.29,0,0,0,2.28,2.27,2.26,2.26,0,1,0-2.28-2.27"/><path class="cls-4" d="M650.08,372.1a1.13,1.13,0,0,0,1.11,1.1,1.1,1.1,0,1,0-1.11-1.1"/><path class="cls-4" d="M491.68,514.86a1.4,1.4,0,0,0-1.39,1.41,1.4,1.4,0,0,0,2.79,0h0a1.4,1.4,0,0,0-1.4-1.38"/><path class="cls-4" d="M486.46,511.35a1.41,1.41,0,1,0,0,.32,1.71,1.71,0,0,0,0-.32"/><path class="cls-4" d="M481.12,506a2.3,2.3,0,1,0-2.32,2.32,2.29,2.29,0,0,0,2.32-2.32h0"/><path class="cls-4" d="M475.3,500.79a1.69,1.69,0,1,0-1.69,1.68h0a1.68,1.68,0,0,0,1.68-1.68"/><path class="cls-4" d="M648,367.73a1.68,1.68,0,1,0,1.68,1.67h0a1.66,1.66,0,0,0-1.66-1.67h0"/><path class="cls-4" d="M651.1,376.68a1.67,1.67,0,1,0,1.7-1.64h-.06a1.64,1.64,0,0,0-1.64,1.64h0"/><path class="cls-4" d="M478,515.75a1.94,1.94,0,1,0-1.93-1.94h0a1.94,1.94,0,0,0,1.93,1.94"/><path class="cls-4" d="M470.12,508.18a2.16,2.16,0,1,0,2.16,2.16v0a2.16,2.16,0,0,0-2.16-2.16h0"/><path class="cls-4" d="M653.59,363.73a1.53,1.53,0,1,0,1.56-1.5h0a1.52,1.52,0,0,0-1.53,1.49v0"/><path class="cls-4" d="M656.69,370a1.55,1.55,0,0,0,1.53,1.53,1.53,1.53,0,1,0-1.53-1.53"/><path class="cls-4" d="M661.24,374.29a1.23,1.23,0,0,0,1.23,1.25h0a1.26,1.26,0,0,0,1.25-1.25,1.25,1.25,0,0,0-2.49,0h0"/><path class="cls-4" d="M660.93,366.61a1.24,1.24,0,0,0,1.23,1.25h0a1.27,1.27,0,0,0,1.25-1.25,1.25,1.25,0,0,0-1.25-1.23,1.23,1.23,0,0,0-1.24,1.21v0"/><path class="cls-4" d="M666.93,362.3a1.42,1.42,0,0,0,0,2.83h0a1.42,1.42,0,1,0,0-2.83h0"/><path class="cls-4" d="M666.84,368.66a1.34,1.34,0,0,0,0,2.68h0a1.34,1.34,0,0,0,0-2.68h0"/><path class="cls-4" d="M671.58,362.91a1.34,1.34,0,0,0,0,2.68h0a1.34,1.34,0,0,0,0-2.68h0"/><line class="cls-5" x1="414" y1="638.5" x2="1248" y2="638.5"/><text class="cls-6" transform="translate(680.81 750.58)"><tspan class="cls-7">N</tspan><tspan x="49.67" y="0">o Image</tspan></text></svg>